<?xml version="1.0" encoding="utf-8" standalone="no"?>
<!DOCTYPE svg PUBLIC "-//W3C//DTD SVG 1.1//EN"
  "http://www.w3.org/Graphics/SVG/1.1/DTD/svg11.dtd">
<!-- Created with matplotlib (http://matplotlib.org/) -->
<svg height="288pt" version="1.1" viewBox="0 0 432 288" width="432pt" xmlns="http://www.w3.org/2000/svg" xmlns:xlink="http://www.w3.org/1999/xlink">
 <defs>
  <style type="text/css">
*{stroke-linecap:butt;stroke-linejoin:round;}
  </style>
 </defs>
 <g id="figure_1">
  <g id="patch_1">
   <path d="M 0 288 
L 432 288 
L 432 0 
L 0 0 
z
" style="fill:#ffffff;"/>
  </g>
  <g id="axes_1">
   <g id="patch_2">
    <path d="M 33.824646 248.865354 
L 429.165354 248.865354 
L 429.165354 2.834646 
L 33.824646 2.834646 
z
" style="fill:#ffffff;"/>
   </g>
   <g id="line2d_1">
    <path clip-path="url(#pc32ab5e518)" d="M 236.797558 193.13424 
L 237.450754 186.013446 
L 237.736619 178.81999 
L 238.812994 170.609278 
L 241.227931 161.599294 
L 241.805219 152.686191 
L 245.791781 143.28868 
L 247.707674 133.188778 
L 253.388713 122.870892 
L 252.406983 112.11704 
L 245.483756 103.543022 
L 257.531801 94.823682 
L 257.084685 86.540309 
L 251.214549 81.502468 
L 263.45296 75.568473 
L 264.841984 69.319613 
L 266.708124 64.233331 
L 285.306418 56.09528 
L 294.935699 52.898189 
L 291.030122 50.645693 
L 288.61919 48.901825 
L 275.523132 47.666585 
L 267.047551 47.254839 
L 253.934676 47.375941 
L 233.060844 47.884569 
L 196.516463 49.410453 
L 174.461418 52.098916 
L 158.396238 55.731975 
L 162.305495 60.018983 
L 159.359083 65.613893 
L 165.594887 72.371382 
L 180.143408 79.855482 
L 194.155043 87.84821 
L 200.870507 95.550294 
L 209.478766 102.16246 
L 216.882264 108.847287 
L 214.171145 115.532114 
L 218.009073 122.459146 
L 215.881068 129.919025 
L 220.627642 136.45853 
L 219.153525 142.852713 
L 220.546387 149.464879 
L 219.291462 156.004384 
L 221.351684 162.471228 
L 224.149954 168.647427 
L 225.008835 174.750965 
L 223.802603 181.024046 
L 223.215034 187.321347 
L 225.37235 193.13424 
L 225.624424 204.469382 
L 226.968303 209.918969 
L 226.910109 215.247455 
L 231.520882 220.600161 
L 231.499667 242.471172 
L 231.517179 224.451202 
L 233.607392 216.022507 
L 237.038284 207.47271 
L 234.686041 199.455761 
L 236.603824 191.463033 
L 239.793157 183.17966 
L 241.086107 174.605643 
L 241.834251 165.813641 
L 240.866906 156.077045 
L 244.362319 146.41311 
L 244.310285 137.185142 
L 247.441171 127.375884 
L 246.197197 118.656545 
L 247.039906 110.736477 
L 245.388639 103.034394 
L 247.324639 96.761313 
L 254.867748 90.028045 
L 247.967292 85.087086 
L 242.406949 81.672011 
L 243.889035 78.983548 
L 246.760599 76.949035 
L 237.995736 75.859118 
L 223.744449 77.167019 
L 218.458395 80.000804 
L 214.966833 83.343218 
L 215.403196 87.048937 
L 215.158567 91.408607 
L 219.913016 95.404971 
L 220.145467 98.892707 
L 214.19924 103.470361 
L 223.130162 108.338659 
L 217.405925 112.553007 
L 216.005806 118.002594 
L 221.075491 123.088876 
L 219.121235 128.538463 
L 220.121252 134.012271 
L 219.201259 138.92901 
L 222.740927 144.451259 
L 221.417477 150.191491 
L 221.346615 155.713739 
L 221.884689 161.599294 
L 221.104158 167.194204 
L 223.391741 172.57113 
L 222.000403 178.311362 
L 224.843992 183.760949 
L 224.840307 188.992553 
L 223.63319 194.587463 
L 226.913025 204.97801 
L 226.295626 209.846308 
L 226.08015 215.416998 
L 231.520813 220.672822 
L 231.50038 241.74456 
L 231.522185 219.243819 
L 233.848615 213.842672 
L 233.821586 207.957118 
L 235.000724 201.054307 
L 235.674944 194.660124 
L 239.232882 187.394008 
L 239.203573 179.837246 
L 240.310921 171.699196 
L 241.6855 153.170598 
L 244.114429 143.869969 
L 245.143631 134.133373 
L 248.069612 124.106132 
L 254.035421 114.514858 
L 250.832277 105.432212 
L 254.547343 96.56755 
L 256.461205 88.792805 
L 255.380839 82.035317 
L 262.573924 75.568473 
L 259.730275 70.046224 
L 265.874278 65.177926 
L 272.767741 60.915138 
L 286.929946 57.475843 
L 291.513711 54.496735 
L 287.041722 52.098916 
L 286.778986 50.064404 
L 287.317524 48.465858 
L 283.091901 47.085296 
L 270.385606 46.286023 
L 254.976518 45.438309 
L 242.130289 45.632073 
L 204.397846 46.794651 
L 179.981293 49.119809 
L 163.738819 52.534883 
L 159.252397 56.749231 
L 155.783099 61.980835 
L 151.143797 68.52034 
L 164.05937 76.149762 
L 180.391698 84.651119 
L 190.007739 93.225136 
L 200.884844 100.854559 
L 206.815088 108.41132 
L 215.974395 115.314131 
L 219.256244 121.562991 
L 214.669933 129.240854 
L 220.667903 136.240547 
L 219.790577 142.707391 
L 221.137288 149.246896 
L 219.849531 155.568417 
L 222.056364 161.889938 
L 225.364379 168.284121 
L 221.113268 174.46032 
L 224.068472 180.491197 
L 224.969304 186.594735 
L 226.097566 198.365844 
L 224.324405 203.888092 
L 226.578613 209.555663 
L 227.001109 214.714606 
L 231.52158 219.873549 
L 231.499667 242.471172 
L 231.519765 221.762739 
L 232.492437 214.133317 
L 236.868312 206.092148 
L 236.387694 198.075199 
L 237.757857 190.66376 
L 237.964973 182.307726 
L 240.164519 173.370403 
L 238.721723 164.50574 
L 242.530398 155.277772 
L 242.818055 146.098245 
L 242.78065 136.385869 
L 245.764297 127.593868 
L 245.273118 119.746462 
L 249.887015 111.826395 
L 248.273028 104.632939 
L 246.253768 92.498525 
L 249.602213 87.702888 
L 249.000057 83.391659 
L 247.39052 79.855482 
L 246.21796 77.820969 
L 237.956457 76.440407 
L 231.894743 76.295085 
L 227.851521 77.602986 
L 218.768697 80.291449 
L 214.014562 84.433135 
L 216.251365 89.374095 
L 216.702184 93.879087 
L 216.510955 98.674724 
L 221.60209 102.671088 
L 215.894609 107.975353 
L 224.119708 112.843651 
L 221.474074 116.113404 
L 216.807662 126.794595 
L 219.774015 131.44491 
L 221.665278 137.112481 
L 221.181745 142.489407 
L 220.211712 148.738267 
L 224.753239 154.405838 
L 220.099425 160.436715 
L 219.617261 166.758237 
L 222.268542 172.135163 
L 222.5727 177.875395 
L 222.501426 183.833611 
L 224.060392 189.210537 
L 222.826157 194.442141 
L 225.277745 200.400356 
L 227.113018 205.413977 
L 225.820784 210.57292 
L 227.387366 216.579576 
L 231.519626 221.908062 
L 231.501804 240.291337 
L 231.524323 217.015543 
L 234.424962 211.590176 
L 238.515758 205.195993 
L 235.300471 198.656489 
L 235.47269 192.189645 
L 238.653059 184.996189 
L 239.734391 177.003461 
L 238.811339 168.938072 
L 240.341725 160.654699 
L 245.856555 142.126101 
L 247.125236 132.607488 
L 249.853622 122.943553 
L 251.744309 113.788246 
L 248.863937 105.795518 
L 254.867831 97.512145 
L 257.454622 89.156111 
L 253.722629 82.689267 
L 256.129548 76.803713 
L 259.348629 71.354125 
L 263.387987 66.776472 
L 265.570011 62.92543 
L 272.569057 60.091645 
L 281.992113 57.403181 
L 271.391427 55.513991 
L 271.313022 54.133429 
L 267.033983 53.188834 
L 251.509043 52.97085 
L 230.341365 53.334156 
L 205.14343 54.787379 
L 185.477858 57.257859 
L 183.465659 61.181562 
L 170.716174 66.267844 
L 178.239743 72.153398 
L 190.580559 78.983548 
L 195.607942 85.886359 
L 204.313254 93.152475 
L 209.522224 100.006845 
L 214.783315 107.17608 
L 213.954198 114.00623 
L 219.902438 119.819123 
L 218.264949 126.285967 
L 218.269301 132.970794 
L 218.860407 139.219655 
L 221.55907 145.468515 
L 222.795393 151.862697 
L 223.622456 157.966235 
L 221.160727 163.997112 
L 224.135274 170.463956 
L 225.077981 176.591714 
L 223.062432 183.106999 
L 224.760506 189.065215 
L 226.007243 194.587463 
L 226.198335 200.182373 
L 227.724018 205.849944 
L 226.508187 211.22687 
L 226.679669 216.531135 
L 231.519835 221.690078 
L 231.499667 242.471172 
L 231.517948 223.65193 
L 235.981053 215.368557 
L 236.97222 207.521151 
L 234.90291 199.891728 
L 238.16086 191.899 
L 237.448512 183.664068 
L 239.461092 174.46032 
L 240.118229 165.232352 
L 240.573191 155.713739 
L 241.217218 146.631094 
L 244.573735 137.257803 
L 246.049362 128.732226 
L 245.603197 119.964446 
L 247.273745 112.189701 
L 248.048464 104.923584 
L 250.397629 98.238757 
L 245.897453 92.571186 
L 244.221418 87.678667 
L 249.756811 82.83459 
L 247.04248 79.274192 
L 241.131386 77.094357 
L 241.217757 76.00444 
L 227.272182 76.658391 
L 235.442833 76.00444 
L 229.080322 76.222424 
L 210.318257 79.564837 
L 210.435241 83.682303 
L 207.637465 87.557565 
L 213.357814 91.771913 
L 211.577555 97.366823 
L 222.054818 101.435848 
L 216.515132 106.304146 
L 211.496794 112.625668 
L 217.804728 117.493966 
L 219.3688 122.144281 
L 218.262024 128.611124 
L 219.82177 134.496679 
L 220.292362 139.946266 
L 219.177171 146.558432 
L 220.757124 152.153342 
L 219.591507 157.820913 
L 221.842938 163.85179 
L 224.543509 169.374039 
L 222.184985 175.477576 
L 223.123395 180.927164 
L 222.040043 186.158768 
L 223.381554 191.681017 
L 225.080611 196.985282 
L 226.364516 207.157845 
L 226.587532 212.098804 
L 231.524161 217.185086 
L 231.502515 239.564725 
L 231.524091 217.257747 
L 234.585801 211.735498 
L 236.670724 205.341316 
L 235.412797 198.511166 
L 235.187282 192.552951 
L 238.858714 185.940784 
L 237.807738 177.875395 
L 237.665144 169.882667 
L 242.269245 161.599294 
L 245.190607 152.734631 
L 242.84539 143.651986 
L 246.650596 134.424018 
L 249.066694 124.687421 
L 249.955509 115.750098 
L 252.140044 107.321403 
L 254.937277 98.384079 
L 250.175187 91.335946 
L 258.58691 84.796441 
L 257.128707 78.111614 
L 254.032189 72.928451 
L 260.087967 67.866389 
L 272.156167 63.216075 
L 276.9903 59.583016 
L 281.89736 56.531247 
L 283.164781 54.133429 
L 279.726473 52.3169 
L 279.718809 50.863677 
L 276.080465 49.84642 
L 260.500026 49.701098 
L 247.055356 49.991743 
L 210.766891 51.008999 
L 182.523846 53.624801 
L 170.467378 57.185198 
L 170.340211 61.472207 
L 169.530683 66.63115 
L 173.365337 72.734688 
L 181.133465 80.485212 
L 194.653317 87.993532 
L 204.63398 94.823682 
L 204.756148 101.58117 
L 213.7062 108.193337 
L 215.775061 114.224213 
L 220.159499 121.127024 
L 218.454356 127.666529 
L 218.445359 134.060712 
L 220.15208 141.108845 
L 225.389485 147.139722 
L 223.092776 153.24326 
L 219.574053 160.073409 
L 224.274635 166.104286 
L 222.062535 172.280485 
L 223.190805 178.529345 
L 222.989368 184.487561 
L 225.85606 190.373116 
L 223.797768 196.331331 
L 226.96376 201.926241 
L 226.493258 207.521151 
L 226.313898 212.825416 
L 231.523254 218.129681 
L 231.502515 239.564725 
L 231.520464 221.036128 
L 233.23167 213.69735 
L 234.570626 206.503894 
L 234.527357 199.092456 
L 236.477389 191.24505 
L 237.98902 182.816354 
L 237.932286 174.750965 
L 239.941071 166.467592 
L 241.488363 157.360726 
L 245.331834 147.793672 
L 246.994605 138.92901 
L 246.39583 129.846364 
L 244.912652 121.127024 
L 249.19693 113.061635 
L 249.518015 105.335331 
L 254.406068 97.439484 
L 249.1091 91.626591 
L 247.066987 86.830954 
L 250.236899 82.180639 
L 248.365461 78.547581 
L 246.436875 76.00444 
L 239.767165 74.11525 
L 239.262016 72.807349 
L 239.312907 71.911194 
L 227.146338 72.298721 
L 218.548556 74.478556 
L 209.353538 78.620242 
L 212.522634 82.979912 
L 211.91187 86.61297 
L 206.332251 92.062558 
L 216.310509 97.439484 
L 215.620741 101.435848 
L 213.020998 107.17608 
L 215.322058 112.77099 
L 218.825815 117.275982 
L 216.831612 122.652909 
L 216.673787 128.683785 
L 220.677111 133.770067 
L 218.106245 139.364977 
L 219.296521 144.959887 
L 221.649372 150.966543 
L 221.633622 157.457607 
L 223.607268 162.689211 
L 220.89811 168.21146 
L 223.376762 179.473941 
L 225.803954 184.923528 
L 224.754825 190.227793 
L 226.644896 195.241414 
L 225.363495 200.884764 
L 223.934311 206.21325 
L 226.85177 211.372193 
L 226.805011 216.385813 
L 231.520301 221.20567 
L 231.501804 240.291337 
L 231.523603 217.766375 
L 233.888201 211.953482 
L 234.202129 205.995266 
L 236.428291 200.255034 
L 237.345639 193.424885 
L 235.822791 186.93382 
L 236.587422 180.200552 
L 238.220709 172.643791 
L 239.572703 164.287757 
L 240.766322 155.859062 
L 243.969192 147.212383 
L 243.887479 138.057076 
L 248.721527 128.441582 
L 247.876501 118.801867 
L 246.595486 110.155188 
L 252.482339 101.653832 
L 253.7135 94.169732 
L 256.865726 87.266921 
L 254.917085 80.582093 
L 252.104943 75.423151 
L 262.473526 70.40953 
L 262.364502 65.977199 
L 266.304108 62.489463 
L 273.838785 57.766487 
L 271.795333 56.167942 
L 269.202349 54.714718 
L 258.458899 53.915445 
L 245.603928 53.915445 
L 225.054844 54.569396 
L 200.460846 56.022619 
L 178.198245 59.219711 
L 172.502587 63.288736 
L 182.457347 67.721067 
L 179.165856 73.170655 
L 191.239854 80.412551 
L 198.567699 87.19426 
L 208.86675 93.297798 
L 213.151071 105.141568 
L 218.01693 111.245106 
L 217.586199 117.687729 
L 219.123959 124.251454 
L 219.548981 130.718298 
L 216.743413 137.112481 
L 218.645206 143.651986 
L 220.778822 149.828185 
L 221.491423 155.568417 
L 222.621029 162.204803 
L 221.5801 169.010733 
L 224.828332 174.678304 
L 223.337524 180.491197 
L 225.710306 186.30409 
L 225.941174 191.753678 
L 226.578618 197.275926 
L 227.545432 202.652853 
L 226.270782 207.811795 
L 227.767919 212.898077 
L 231.523603 217.766375 
L 231.498953 243.197783 
L 231.522348 219.074276 
L 236.095048 212.970738 
L 237.888453 205.922605 
L 234.842055 199.479982 
L 237.717542 193.352223 
L 237.041372 186.861159 
L 240.245401 179.934128 
L 238.786447 173.007097 
L 241.947586 166.855118 
L 240.045047 160.364054 
L 244.248549 152.952615 
L 245.579745 135.005307 
L 246.556959 126.431289 
L 249.028768 117.421305 
L 249.709294 109.64656 
L 251.548198 102.598427 
L 251.431994 96.180024 
L 249.564562 90.827318 
L 247.090489 85.741036 
L 248.686804 81.260264 
L 252.888021 77.2639 
L 241.508506 73.969927 
L 248.567368 72.444043 
L 236.377686 71.935415 
L 223.108561 73.097993 
L 215.66821 75.568473 
L 215.474832 78.765564 
L 209.276855 82.616606 
L 207.670836 87.702888 
L 214.595689 92.062558 
L 214.595004 96.712872 
L 217.885451 101.363187 
L 217.211356 105.650196 
L 215.771965 111.172444 
L 219.288281 115.750098 
L 216.386439 121.272347 
L 219.478039 126.939917 
L 218.76167 131.953538 
L 216.37354 138.711026 
L 223.338608 143.506663 
L 222.260553 148.520284 
L 221.074067 155.059789 
L 222.33822 160.291393 
L 222.136282 165.522997 
L 220.539778 171.33589 
L 222.854072 176.858139 
L 224.23384 182.017081 
L 225.821341 187.030702 
L 223.285187 193.182681 
L 227.115416 198.656489 
L 226.460721 203.524787 
L 226.971801 208.465746 
L 228.008862 213.116061 
L 231.523464 217.911698 
L 231.500736 241.381254 
L 231.523324 218.05702 
L 233.603517 213.188722 
L 234.7919 207.908677 
L 234.108535 203.379464 
L 235.386795 196.646196 
L 238.076012 189.791826 
L 238.577316 183.397644 
L 237.087676 176.276849 
L 239.591063 168.284121 
L 235.809523 160.073409 
L 242.5261 152.710411 
L 246.066383 144.233275 
L 246.950759 135.295952 
L 244.807522 126.794595 
L 247.891252 118.487002 
L 248.510154 109.573899 
L 250.756873 101.944476 
L 256.40479 94.605699 
L 250.716113 87.920871 
L 254.496969 82.107978 
L 254.406893 76.658391 
L 251.855858 72.080737 
L 257.077675 68.229695 
L 258.373012 65.032604 
L 262.250414 62.126157 
L 258.998674 60.091645 
L 248.992665 58.347777 
L 247.586804 57.766487 
L 237.666426 58.129793 
L 206.297174 60.018983 
L 191.175765 63.918466 
L 190.721385 67.648406 
L 190.597289 72.734688 
L 201.064797 78.692903 
L 207.102356 83.827626 
L 205.747338 90.827318 
L 215.162215 102.81641 
L 214.465812 109.719221 
L 216.569681 115.532114 
L 219.399566 120.981702 
L 215.990888 127.811851 
L 219.123823 134.060712 
L 217.395016 139.413418 
L 219.307418 145.468515 
L 222.254634 151.644714 
L 220.470264 157.384946 
L 221.959271 163.343162 
L 222.578506 169.301377 
L 222.095547 181.508453 
L 224.860668 186.764278 
L 224.846645 192.189645 
L 225.998604 197.711893 
L 226.170366 203.016158 
L 227.802367 208.247762 
L 227.173578 213.552028 
L 231.523301 218.08124 
L 231.496092 246.10423 
L 231.522185 219.243819 
L 233.96043 212.680094 
L 235.865922 206.067927 
L 235.82314 199.092456 
L 235.14957 192.044322 
L 238.037659 184.342239 
L 238.9974 176.422172 
L 240.876841 168.647427 
L 243.625338 159.855426 
L 241.798034 151.790036 
L 247.56133 143.143358 
L 246.271921 134.424018 
L 245.437313 125.341372 
L 248.605183 116.549371 
L 247.763038 108.919948 
L 249.40475 100.95144 
L 248.182791 94.169732 
L 247.028561 88.647483 
L 251.891865 82.786149 
L 249.432203 78.329597 
L 249.905546 75.132506 
L 251.208557 72.298721 
L 249.191031 70.046224 
L 246.594355 68.157034 
L 238.144639 67.503084 
L 227.60683 68.060153 
L 221.760778 68.738323 
L 212.489162 70.99082 
L 212.960408 74.551217 
L 209.158169 78.47492 
L 213.184778 83.270557 
L 209.50629 88.211516 
L 210.583612 93.007153 
L 212.585923 98.602063 
L 213.986139 103.228157 
L 215.202739 108.193337 
L 216.126921 113.812467 
L 220.151285 118.704985 
L 217.652162 123.597504 
L 218.187104 129.555719 
L 215.837236 135.441274 
L 220.590072 140.672878 
L 219.361992 147.115501 
L 221.194431 153.388582 
L 223.012106 158.692847 
L 220.63167 164.990148 
L 222.381944 171.117907 
L 225.052398 176.494833 
L 223.392143 182.501489 
L 225.315979 188.120619 
L 225.136473 193.206901 
L 225.491393 198.995574 
L 228.054553 204.251398 
L 227.559692 213.334044 
L 231.523464 217.911698 
L 231.502587 239.492064 
L 231.522976 218.420326 
L 233.718376 213.261383 
L 233.177816 202.870836 
L 234.277364 197.130604 
L 236.601943 191.172388 
L 239.081932 177.58475 
L 239.794721 169.810006 
L 238.116502 162.689211 
L 240.270787 154.987128 
L 240.010384 146.703755 
L 242.017152 138.711026 
L 246.022125 129.919025 
L 246.447998 121.780975 
L 247.724753 113.788246 
L 247.36365 106.086163 
L 252.614514 91.55393 
L 252.372681 85.523053 
L 249.23742 80.291449 
L 253.13685 75.423151 
L 251.376638 71.572109 
L 249.232098 68.035932 
L 248.642757 63.288736 
L 245.699576 62.053496 
L 240.74701 61.569088 
L 227.105549 62.634785 
L 213.292338 64.378653 
L 206.210196 67.212439 
L 199.67101 71.354125 
L 200.834065 76.416187 
L 208.479889 81.841554 
L 210.686217 87.266921 
L 213.0199 91.844574 
L 214.235079 97.415264 
L 215.073918 103.688344 
L 214.954026 109.04105 
L 212.75192 115.774318 
L 216.870484 122.870892 
L 216.276972 129.289295 
L 216.708861 136.095224 
L 218.0502 142.489407 
L 219.447184 148.350741 
L 218.684504 154.478499 
L 221.620367 160.945343 
L 222.817692 166.467592 
L 223.581378 171.989841 
L 222.529855 178.311362 
L 224.301945 183.978933 
L 225.30882 189.355859 
L 223.682552 195.241414 
L 228.899921 200.908985 
L 225.733704 206.116368 
L 226.709188 210.863564 
L 228.531519 215.247455 
L 231.521441 220.018871 
L 231.494658 247.557453 
L 231.5193 222.247147 
L 235.212939 215.077912 
L 236.786024 208.12666 
L 236.224024 201.102748 
L 237.977677 193.206901 
L 237.763317 185.819682 
L 238.722458 177.875395 
L 240.862367 169.4467 
L 241.009388 161.163327 
L 245.727054 152.298664 
L 245.375283 143.070696 
L 243.352338 134.084932 
L 245.770111 124.808523 
L 248.58654 115.459453 
L 249.767243 107.248741 
L 251.194408 99.013809 
L 251.700357 91.408607 
L 251.209 83.609642 
L 252.711782 77.118578 
L 249.64656 70.99082 
L 251.940192 66.219403 
L 249.330567 62.27148 
L 250.854659 59.437694 
L 248.375255 56.991435 
L 247.256716 55.005363 
L 232.238114 54.787379 
L 214.515482 56.579688 
L 206.303795 59.074388 
L 204.420152 61.908174 
L 202.869716 66.098301 
L 205.572181 71.426787 
L 203.968916 75.931779 
L 202.955019 81.01806 
L 213.74631 86.564529 
L 214.184192 91.335946 
L 210.20095 96.349567 
L 210.055529 101.605391 
L 210.118146 107.612047 
L 210.565136 113.933569 
L 214.049427 118.729206 
L 213.217807 124.905405 
L 213.562285 132.292623 
L 220.293653 137.621109 
L 218.717611 143.651986 
L 220.829554 150.675898 
L 221.910075 156.222367 
L 218.39182 161.599294 
L 220.465071 168.041917 
L 221.257828 173.661047 
L 222.606213 178.892651 
L 221.100768 184.681324 
L 223.728649 189.937149 
L 223.778459 195.02343 
L 225.751871 199.940169 
L 221.937788 202.798175 
L 217.712027 205.63196 
L 220.302229 209.265019 
L 221.498272 212.994959 
L 231.523952 217.403069 
L 231.508325 233.606509 
L 231.52444 216.894441 
L 231.042038 211.880821 
L 232.642793 207.303167 
L 233.377018 201.998902 
L 233.743069 196.403992 
L 233.453187 190.373116 
L 236.087326 184.124255 
L 238.648831 177.076122 
L 239.127668 169.882667 
L 242.155656 162.035261 
L 241.572099 153.751888 
L 241.359534 145.75916 
L 247.930293 137.330464 
L 244.99683 128.901769 
L 249.356889 120.545735 
L 246.413618 112.988974 
L 248.048768 105.28689 
L 250.323314 98.093435 
L 253.415321 91.117963 
L 247.650623 84.72378 
L 253.115824 79.564837 
L 254.952669 74.987184 
L 250.162711 70.99082 
L 252.439728 67.2851 
L 259.457128 62.198818 
L 251.974091 60.672934 
L 243.093185 60.721375 
L 228.632673 61.254223 
L 218.944353 62.27148 
L 208.577319 64.233331 
L 203.913274 67.357761 
L 199.133259 71.426787 
L 198.654949 76.149762 
L 201.120654 81.01806 
L 206.373683 86.031681 
L 205.213193 91.699252 
L 216.328023 97.003517 
L 215.611357 101.871815 
L 210.541149 108.120675 
L 215.8321 114.466417 
L 215.109015 121.054363 
L 216.360613 127.787631 
L 218.286547 134.084932 
L 218.529089 140.890861 
L 217.374238 146.219347 
L 218.040703 152.153342 
L 221.544817 158.329541 
L 219.815885 164.215096 
L 222.053756 170.342854 
L 223.091697 176.785477 
L 223.401084 182.937456 
L 225.111247 189.016774 
L 224.009876 195.096091 
L 226.666934 201.24807 
L 225.726437 206.84298 
L 228.32119 211.517515 
L 228.677232 216.385813 
L 231.520021 221.496315 
L 231.493365 248.865354 
L 231.521115 220.357957 
L 236.075059 213.188722 
L 235.550574 206.503894 
L 238.067052 198.75337 
L 236.288744 191.172388 
L 240.055282 183.615627 
L 239.447422 175.816662 
L 241.022777 167.993476 
L 241.326738 159.274136 
L 242.868157 149.779744 
L 245.300904 140.915082 
L 245.962806 132.316844 
L 248.932269 122.74979 
L 251.347175 113.255398 
L 253.983801 104.487617 
L 248.730453 96.664432 
L 254.549522 89.010789 
L 250.952531 82.616606 
L 253.773185 77.191239 
L 256.221686 72.008076 
L 255.940175 68.011712 
L 257.765608 65.226367 
L 256.353431 62.707447 
L 255.989858 60.672934 
L 252.660419 59.849441 
L 244.712905 59.050168 
L 232.622455 58.929066 
L 215.474309 60.939358 
L 198.58509 63.773144 
L 194.284443 67.067117 
L 198.07998 75.471591 
L 206.44428 80.582093 
L 210.910793 84.675339 
L 212.809012 88.841246 
L 211.385149 93.225136 
L 213.733335 98.480961 
L 215.277738 103.761005 
L 215.476421 109.428576 
L 212.721192 115.822759 
L 216.147014 121.49033 
L 215.015897 127.448546 
L 218.417782 133.261439 
L 216.351154 139.679842 
L 218.124709 146.267788 
L 221.287685 152.855733 
L 221.095294 159.153034 
L 221.256071 165.450336 
L 222.35634 171.456992 
L 222.961079 177.608971 
L 223.155859 183.906272 
L 222.953726 189.912928 
L 225.564695 195.846923 
L 225.859189 201.635596 
L 225.754937 207.278947 
L 226.724857 212.534771 
L 231.524021 217.330408 
L 231.49831 243.851734 
L 231.521115 220.357957 
L 233.566492 214.569284 
L 233.549096 209.047035 
L 236.652521 203.185701 
L 235.414274 197.49391 
L 236.665352 190.809083 
L 237.008868 183.591407 
L 240.377605 175.332254 
L 239.757505 167.702832 
L 241.712462 159.855426 
L 243.748508 151.063425 
L 245.134999 141.690134 
L 245.097725 132.752811 
L 247.490946 123.96081 
L 248.136604 115.314131 
L 249.108111 107.321403 
L 252.102102 99.328674 
L 249.366901 92.692288 
L 246.637214 87.266921 
L 252.180501 81.59935 
L 253.986467 77.724088 
L 256.805745 74.187911 
L 255.191837 70.554853 
L 253.838591 68.350797 
L 251.127373 66.558488 
L 251.045827 65.323249 
L 238.202651 64.959943 
L 226.182317 65.710775 
L 212.956583 67.793728 
L 202.108202 70.700175 
L 203.959052 75.156726 
L 203.750346 80.218788 
L 207.341975 85.159747 
L 214.454091 90.488232 
L 211.770856 96.276905 
L 216.323857 100.878779 
L 215.247569 105.28689 
L 216.749669 111.027122 
L 213.48555 116.985338 
L 214.321312 123.234198 
L 218.102772 128.97443 
L 215.378541 135.005307 
L 219.229879 141.157286 
L 219.388058 146.485771 
L 219.917604 152.589309 
L 220.211675 164.142435 
L 223.962536 169.47092 
L 222.811774 174.799406 
L 223.009088 180.345875 
L 223.321041 185.529038 
L 224.266049 191.172388 
L 223.633215 196.912621 
L 227.277048 202.313767 
L 225.262582 213.188722 
L 231.522627 218.783632 
L 231.501092 241.017948 
L 231.521604 219.849329 
L 233.483643 213.479366 
L 236.771082 206.576556 
L 234.615724 198.050979 
L 238.192003 189.912928 
L 239.016761 181.581114 
L 240.593901 173.20086 
L 240.589388 164.796385 
L 244.223827 155.423095 
L 245.570743 146.195127 
L 246.581125 136.216326 
L 246.593942 125.995322 
L 249.565327 117.057999 
L 252.109989 107.515166 
L 254.053278 99.03803 
L 256.50848 91.069522 
L 254.584952 84.360474 
L 256.45788 78.184275 
L 259.331053 73.170655 
L 258.62545 69.392274 
L 266.102223 65.468571 
L 263.830436 61.932394 
L 264.888671 59.19549 
L 260.220201 57.039876 
L 248.685996 55.610873 
L 243.738966 54.83582 
L 234.983019 54.351412 
L 217.093733 55.659313 
L 188.564938 58.250895 
L 189.29864 61.399546 
L 187.731259 66.752252 
L 193.638399 72.952671 
L 201.489011 79.056209 
L 201.69896 86.007461 
L 208.590726 92.159439 
L 211.235565 97.584806 
L 211.270424 103.470361 
L 214.951097 109.67078 
L 213.338817 116.331387 
L 215.023263 122.434925 
L 216.044865 128.32048 
L 217.536548 134.56934 
L 220.50683 140.939302 
L 216.876307 147.575689 
L 220.433624 154.115194 
L 223.992834 160.14607 
L 222.191002 166.394931 
L 222.863205 172.135163 
L 224.356087 178.432464 
L 224.34825 184.487561 
L 223.411209 189.937149 
L 226.445282 195.168753 
L 226.193216 200.787883 
L 225.306332 206.8672 
L 227.045121 212.171465 
L 231.524277 217.063984 
L 231.501804 240.291337 
L 231.520673 220.818144 
L 231.98721 214.93259 
L 236.259994 208.538407 
L 237.635084 201.85358 
L 235.885918 193.812411 
L 238.236966 186.013446 
L 238.240828 177.875395 
L 238.982158 169.519361 
L 240.378172 160.945343 
L 244.061384 151.717375 
L 243.935152 142.707391 
L 244.822777 134.399797 
L 249.084183 126.358628 
L 247.339915 118.269018 
L 251.958761 103.107055 
L 250.471216 96.204244 
L 258.48666 89.882723 
L 252.877798 84.433135 
L 251.61916 79.589058 
L 257.065766 75.059845 
L 255.742884 71.572109 
L 256.736804 68.810985 
L 248.34542 67.866389 
L 244.225188 68.375018 
L 236.002332 69.271172 
L 224.444702 71.402566 
L 214.299063 74.696539 
L 208.877185 78.668683 
L 206.143371 82.979912 
L 208.73599 87.339582 
L 209.363707 92.910271 
L 212.838389 98.771605 
L 218.825151 104.778262 
L 215.859224 109.719221 
L 213.605693 114.684401 
L 218.088518 120.182429 
L 217.573512 125.026507 
L 219.410246 130.088568 
L 219.161743 135.441274 
L 219.925868 141.39949 
L 219.573739 147.188162 
L 220.584428 152.879954 
L 220.536289 158.063117 
L 218.908777 163.633806 
L 222.26672 170.027989 
L 222.958989 176.204188 
L 222.418528 181.992861 
L 226.438237 187.176024 
L 226.993531 192.577171 
L 221.846998 198.196301 
L 225.880445 203.597448 
L 225.369743 209.119696 
L 224.144777 214.835708 
L 231.521511 219.94621 
L 231.501804 240.291337 
L 231.523464 217.911698 
L 235.962838 210.912005 
L 237.0291 204.275619 
L 237.344427 197.130604 
L 238.518158 189.283198 
L 236.878693 180.951384 
L 239.176408 172.716452 
L 241.285734 164.263537 
L 244.013129 154.042532 
L 244.398141 143.070696 
L 246.988064 132.07464 
L 248.988458 121.102804 
L 248.920248 110.736477 
L 252.279525 101.096763 
L 257.184807 92.522745 
L 257.059155 84.941763 
L 260.377857 78.329597 
L 261.135295 72.540924 
L 264.256079 67.866389 
L 270.093755 63.700483 
L 272.017088 60.188526 
L 277.216265 57.257859 
L 283.977867 54.351412 
L 283.768053 51.905153 
L 276.330491 49.919081 
L 266.572563 48.223654 
L 258.054039 47.375941 
L 235.48639 47.666585 
L 207.332215 48.732282 
L 176.076638 51.808272 
L 166.676105 55.877297 
L 163.320072 61.447986 
L 167.370666 67.430422 
L 183.626418 73.315977 
L 189.388464 80.703195 
L 197.601307 87.993532 
L 206.849591 95.186988 
L 207.697827 102.79219 
L 215.107475 109.67078 
L 216.162816 116.694693 
L 217.655957 123.888149 
L 214.545688 130.20967 
L 218.902409 136.821836 
L 221.16706 143.773088 
L 220.978419 150.845441 
L 223.863551 156.948979 
L 223.591566 163.270501 
L 223.512787 169.567802 
L 224.596509 175.332254 
L 226.118787 181.29047 
L 225.962471 187.030702 
L 225.283809 192.843595 
L 226.722342 198.801811 
L 225.161191 204.251398 
L 226.652665 209.700986 
L 227.584642 215.077912 
L 231.521092 220.382177 
L 231.503936 238.111502 
L 231.519486 222.053384 
L 234.425897 214.423962 
L 232.412408 207.012523 
L 236.212573 199.310439 
L 237.370172 191.463033 
L 238.39527 183.397644 
L 241.714301 174.46032 
L 243.021334 165.450336 
L 242.494988 156.295029 
L 244.408481 147.769452 
L 247.587582 137.839092 
L 246.514672 127.811851 
L 244.13625 118.850308 
L 248.242879 110.663816 
L 253.184847 101.145204 
L 250.74485 93.854866 
L 250.209512 87.484904 
L 248.228526 81.962656 
L 251.439467 78.014732 
L 258.927616 73.703503 
L 254.71315 70.845497 
L 254.388851 68.932086 
L 253.791746 67.30932 
L 255.916415 66.195183 
L 236.837899 66.461607 
L 220.952871 67.721067 
L 210.986335 69.75558 
L 202.457823 73.582401 
L 193.659047 78.910887 
L 205.455983 84.287813 
L 206.951328 90.464012 
L 207.800642 96.398007 
L 215.126986 100.27327 
L 213.747389 106.037722 
L 218.628864 111.729513 
L 213.068736 115.750098 
L 214.514569 121.998958 
L 218.163471 128.36892 
L 217.59372 134.206034 
L 219.374459 140.8182 
L 220.955542 146.170906 
L 218.350999 152.443987 
L 218.005312 158.983492 
L 219.953195 165.232352 
L 220.305481 171.699196 
L 222.887052 177.245665 
L 223.10055 183.324982 
L 222.68276 189.42852 
L 224.835166 194.635904 
L 224.439381 199.722186 
L 225.877294 205.123332 
L 226.457194 210.524479 
L 225.019768 216.434254 
L 231.518368 223.215963 
L 231.501567 240.533541 
L 231.519206 222.344029 
L 235.366481 212.534771 
L 237.226629 203.960754 
L 236.801776 195.386736 
L 237.295197 186.400972 
L 241.448115 176.083086 
L 243.436093 165.014369 
L 244.911283 154.139414 
L 246.136739 144.015292 
L 246.354866 133.770067 
L 248.592376 123.137316 
L 252.681667 112.335023 
L 249.571569 102.307782 
L 256.656648 92.086778 
L 260.836194 82.447063 
L 266.83679 73.679283 
L 264.373408 67.139778 
L 272.631717 61.472207 
L 282.750447 56.313264 
L 288.29111 52.098916 
L 298.528877 48.61118 
L 298.244468 45.777395 
L 296.348757 47.254839 
L 288.004142 47.230618 
L 294.102026 45.341428 
L 289.800564 43.815543 
L 265.450969 42.434981 
L 239.25376 42.870948 
L 197.254658 44.542155 
L 165.514801 47.593924 
L 154.083602 51.856712 
L 146.939995 56.967214 
L 141.105823 62.634785 
L 144.305215 69.464935 
L 144.538131 77.578765 
L 163.528454 86.104342 
L 179.343607 95.404971 
L 192.975975 103.906328 
L 202.939871 111.971717 
L 209.678366 119.60114 
L 214.264449 126.939917 
L 218.239509 134.278695 
L 216.773378 141.39949 
L 219.294053 148.423402 
L 220.233273 154.623822 
L 223.102443 160.824241 
L 222.838283 166.952 
L 223.558042 184.826647 
L 223.570054 190.227793 
L 224.918558 196.25867 
L 224.052301 202.071563 
L 225.648258 207.739134 
L 227.54692 212.631653 
L 231.523743 217.621053 
L 231.50038 241.74456 
L 231.518438 223.143302 
L 237.876366 208.223542 
L 237.877217 200.61834 
L 239.617542 191.826339 
L 239.398773 181.992861 
L 241.8856 171.917179 
L 244.925182 161.260208 
L 245.743832 150.724339 
L 245.824754 140.454894 
L 246.283881 131.396469 
L 250.331825 121.950517 
L 255.191855 112.916312 
L 255.65309 103.664124 
L 255.251874 95.30809 
L 252.942564 88.356838 
L 256.553535 82.979912 
L 260.325287 77.627206 
L 263.315636 72.734688 
L 260.379379 68.786764 
L 264.690226 65.492791 
L 261.534514 62.780108 
L 254.511695 60.866697 
L 243.285895 60.45495 
L 223.307687 61.617529 
L 198.875519 64.015348 
L 192.884146 68.447679 
L 185.200875 73.969927 
L 193.281795 79.782821 
L 199.367237 86.61297 
L 204.556324 93.297798 
L 207.907135 100.200608 
L 212.683497 106.570571 
L 213.52001 112.77099 
L 214.64613 119.044071 
L 216.133912 125.486694 
L 217.216408 131.953538 
L 216.551279 139.219655 
L 220.492838 145.904482 
L 219.404718 152.879954 
L 221.279876 159.080373 
L 222.507038 165.474556 
L 222.997117 172.861775 
L 221.295233 179.546602 
L 225.388595 185.553258 
L 223.943394 190.881744 
L 222.354939 197.203265 
L 225.816038 202.846616 
L 227.593414 208.320424 
L 224.792414 213.430926 
L 231.522325 219.098497 
L 231.501804 240.291337 
L 231.522139 219.29226 
L 233.883537 209.99163 
L 237.092185 200.61834 
L 240.431824 191.24505 
L 240.401623 181.677996 
L 242.094136 169.277157 
L 244.668215 155.7864 
L 246.895605 142.07766 
L 252.53768 128.465802 
L 255.077389 114.078891 
L 254.348972 102.889071 
L 265.974519 94.024409 
L 265.155924 88.865466 
L 265.393978 80.606314 
L 276.645799 66.195183 
L 287.385107 60.164306 
L 306.490545 50.791015 
L 317.497314 47.375941 
L 321.157992 44.25151 
L 324.23277 41.417725 
L 328.558354 38.656601 
L 331.61875 36.11346 
L 328.57267 33.860964 
L 325.550149 31.899112 
L 303.248154 30.300566 
L 284.369709 29.646616 
L 246.987519 30.155244 
L 205.080756 31.681129 
L 160.852874 34.224269 
L 137.499657 37.97843 
L 124.403139 42.071675 
L 115.656275 46.358684 
L 111.24879 51.662949 
L 107.502909 58.250895 
L 100.909593 65.686554 
L 106.16182 74.7692 
L 120.406708 85.256628 
L 145.349053 97.366823 
L 167.044696 108.41132 
L 189.227901 117.13066 
L 197.364733 125.995322 
L 210.138005 134.496679 
L 214.429569 142.198762 
L 217.448763 149.610201 
L 219.105951 156.513012 
L 217.713871 163.633806 
L 223.384573 170.536617 
L 223.903524 177.148783 
L 223.131263 183.615627 
L 226.192114 190.00981 
L 224.128447 196.186009 
L 225.437749 202.216886 
L 225.916497 208.029779 
L 226.600841 213.552028 
L 231.522627 218.783632 
L 231.497047 245.135414 
L 231.523254 218.129681 
L 236.651365 208.10244 
L 237.205575 198.220522 
L 239.23346 188.556586 
L 240.058595 178.020717 
L 244.086194 166.97622 
L 245.446643 155.011348 
L 250.426942 142.901154 
L 250.35444 130.86362 
L 251.888869 119.044071 
L 256.554505 108.265998 
L 254.686551 97.730129 
L 261.007477 87.87243 
L 259.263054 79.7586 
L 264.880725 72.88001 
L 270.970621 66.292064 
L 270.554516 61.181562 
L 274.857388 57.548504 
L 279.833434 54.424074 
L 277.456298 52.098916 
L 272.416742 50.791015 
L 273.989188 50.403489 
L 260.643886 50.42771 
L 238.519165 51.008999 
L 201.523003 52.607544 
L 177.332531 55.731975 
L 170.663199 60.527612 
L 175.880251 65.541232 
L 173.885855 72.371382 
L 180.773075 80.000804 
L 186.762002 88.623263 
L 202.810968 96.955076 
L 207.960254 104.632939 
L 211.986551 111.971717 
L 215.5387 119.286275 
L 216.018372 125.777339 
L 217.185222 133.116117 
L 217.634385 140.067368 
L 222.283286 153.824549 
L 220.562174 161.308649 
L 221.380651 167.775493 
L 220.80162 174.532981 
L 222.624281 181.120927 
L 226.494025 187.103363 
L 225.251086 193.061579 
L 226.029024 199.3831 
L 229.175253 205.341316 
L 227.073014 210.524479 
L 226.095931 215.877185 
L 231.520045 221.472095 
L 231.502752 239.322521 
L 231.519369 222.174486 
L 236.467663 210.936226 
L 239.42668 201.684037 
L 237.584909 191.705237 
L 242.290034 181.363131 
L 241.413194 170.463956 
L 243.156792 158.23266 
L 249.343658 144.814564 
L 248.32206 132.292623 
L 253.470758 119.358936 
L 259.518682 105.94084 
L 261.009977 94.363495 
L 265.206703 82.907251 
L 266.606117 72.952671 
L 273.383366 65.517012 
L 282.839864 58.323556 
L 296.416732 51.953594 
L 315.371227 48.199434 
L 320.791869 44.469494 
L 339.862811 39.528535 
L 345.526722 38.269074 
L 351.038448 35.411069 
L 354.249284 31.099839 
L 358.812254 27.055034 
L 359.493671 23.03445 
L 339.412204 19.692036 
L 311.087324 17.003573 
L 283.878295 15.695672 
L 262.658914 15.913656 
L 209.183707 20.418648 
L 166.431776 23.325095 
L 144.723808 26.594847 
L 133.74336 29.622396 
L 129.028393 32.98903 
L 108.514822 37.494022 
L 101.033785 42.652965 
L 74.76274 57.185198 
L 78.401358 66.534268 
L 78.411682 77.167019 
L 101.529734 89.08345 
L 134.059064 101.508509 
L 166.533892 112.77099 
L 181.19978 121.248126 
L 200.202322 129.773703 
L 208.150198 138.347721 
L 213.223711 146.049804 
L 217.932737 153.606565 
L 217.920849 160.945343 
L 221.455001 167.848154 
L 218.766586 174.46032 
L 221.269356 181.217809 
L 224.909956 187.611991 
L 222.965682 193.715529 
L 224.752032 199.601084 
L 225.736861 205.00223 
L 226.857697 210.209614 
L 226.093805 215.368557 
L 231.521301 220.164194 
L 231.498953 243.197783 
L 231.517039 224.596525 
L 236.896768 212.43789 
L 236.85706 200.376136 
L 236.091406 189.937149 
L 238.529404 178.480905 
L 244.617523 166.685575 
L 252.523632 130.984722 
L 250.530335 119.964446 
L 256.883347 109.04105 
L 258.154073 97.778569 
L 258.678309 87.630227 
L 260.811565 78.014732 
L 260.515217 70.554853 
L 272.471864 64.451315 
L 277.549572 61.03624 
L 290.584857 57.451622 
L 297.678665 55.223346 
L 301.688239 52.462222 
L 301.024415 50.42771 
L 296.96095 48.829164 
L 299.646148 47.109516 
L 285.644677 45.898497 
L 269.147423 45.341428 
L 248.692155 45.292987 
L 208.706216 46.625108 
L 163.322992 48.974486 
L 154.834269 52.97085 
L 138.947238 58.057132 
L 137.404902 64.233331 
L 125.655068 68.54456 
L 138.920316 75.277828 
L 158.827128 84.142491 
L 177.359858 94.799462 
L 195.244137 103.082835 
L 207.838816 119.64958 
L 215.957487 127.957174 
L 218.148506 136.45853 
L 218.589398 145.15365 
L 216.882611 155.326213 
L 220.593421 162.035261 
L 220.050465 169.301377 
L 224.25762 176.34951 
L 224.334199 182.816354 
L 225.861809 188.79879 
L 224.180607 194.878108 
L 228.086463 201.199629 
L 227.373291 206.964082 
L 227.667441 211.977702 
L 226.371581 216.82178 
L 231.520208 221.302552 
L 231.50936 232.540812 
L 231.521022 220.454838 
L 236.02226 210.863564 
L 239.452023 201.126968 
L 242.252588 190.809083 
L 242.099801 180.127891 
L 246.026235 168.647427 
L 248.303825 155.059789 
L 247.729413 142.368305 
L 252.585392 129.337736 
L 252.344804 115.047707 
L 257.650944 101.653832 
L 259.02234 89.156111 
L 269.774313 77.748308 
L 271.169425 68.302356 
L 280.385833 60.309628 
L 302.207626 53.406817 
L 332.593582 43.452238 
L 342.196142 39.455873 
L 355.941089 35.604832 
L 367.266523 31.463145 
L 376.431497 27.030814 
L 387.876853 21.339023 
L 376.691128 15.55035 
L 331.597749 10.803154 
L 290.77641 7.048993 
L 270.334637 4.578514 
L 261.157659 3.149511 
L 253.718736 2.834646 
L 250.368492 4.215208 
L 245.609447 6.685687 
L 236.320939 9.810118 
L 198.619621 13.225192 
L 169.651715 17.076234 
L 152.047524 20.927276 
L 137.844067 24.92364 
L 122.922291 28.992665 
L 119.957903 33.03747 
L 134.271275 37.421361 
L 84.634655 42.870948 
L 69.612664 50.064404 
L 53.754834 59.873661 
L 59.11431 70.700175 
L 71.526806 83.052573 
L 98.920759 95.114327 
L 130.140177 107.054978 
L 154.503493 118.293239 
L 183.946176 128.465802 
L 195.718409 137.814872 
L 206.800873 146.41311 
L 212.497952 154.042532 
L 217.991248 168.259901 
L 219.55574 175.622899 
L 217.121729 181.532674 
L 223.176203 187.53933 
L 221.234822 193.570207 
L 222.163217 199.092456 
L 223.603733 204.687365 
L 224.649034 210.064292 
L 225.014249 215.077912 
L 231.52165 219.800888 
L 231.508889 233.02522 
L 231.523115 218.275003 
L 237.629883 206.019487 
L 237.495417 194.563243 
L 240.184536 183.106999 
L 240.94494 172.425808 
L 244.411001 160.436715 
L 247.813509 147.357705 
L 252.82722 134.278695 
L 254.694952 121.853636 
L 254.662468 109.937205 
L 258.279542 98.311418 
L 260.452622 87.920871 
L 259.665848 79.056209 
L 262.181793 71.281464 
L 270.108651 64.81462 
L 278.07192 59.001727 
L 289.160012 54.424074 
L 295.525894 50.573032 
L 311.455535 47.666585 
L 308.243681 45.050783 
L 310.626034 43.185813 
L 308.595021 42.216998 
L 315.035812 40.400469 
L 298.487078 39.092568 
L 275.168855 38.365956 
L 244.770955 38.874584 
L 203.219337 40.400469 
L 164.891805 43.59756 
L 148.611822 47.230618 
L 134.599153 51.517627 
L 122.298047 57.548504 
L 117.859507 65.371689 
L 118.731353 73.969927 
L 124.410975 83.270557 
L 157.640211 94.169732 
L 179.898605 104.778262 
L 190.289512 113.497602 
L 199.406365 122.434925 
L 211.800239 131.033163 
L 216.081946 139.219655 
L 217.392961 146.776416 
L 221.835678 154.551161 
L 221.095551 161.817277 
L 220.585029 169.204496 
L 222.812304 176.640155 
L 222.909867 183.034338 
L 222.443008 189.791826 
L 224.140261 195.968025 
L 227.120947 201.85358 
L 226.515621 207.593812 
L 227.424488 213.576248 
L 231.522139 219.29226 
L 231.504646 237.38489 
L 231.517948 223.65193 
L 239.04489 200.981646 
L 239.240496 190.00981 
L 242.009283 178.747329 
L 246.263253 166.516033 
L 250.947741 138.711026 
L 254.666106 125.414033 
L 257.055052 111.53575 
L 257.763333 98.747385 
L 264.26144 87.121598 
L 271.592835 76.876374 
L 276.713772 68.229695 
L 285.803545 61.447986 
L 309.435102 55.150685 
L 314.28467 50.282387 
L 330.00454 46.431345 
L 340.242941 42.725626 
L 354.705949 39.092568 
L 354.779514 35.314187 
L 361.991242 31.1725 
L 372.219149 26.740169 
L 358.985323 21.871871 
L 336.503561 18.020829 
L 306.313343 14.823738 
L 271.431696 13.588498 
L 256.170555 13.879143 
L 248.350222 14.96906 
L 229.003145 17.221557 
L 193.771133 20.128003 
L 162.609846 23.761062 
L 147.613768 27.539442 
L 136.804699 31.027178 
L 125.741353 35.168865 
L 107.925162 39.673857 
L 88.027468 44.905461 
L 77.776139 51.590288 
L 67.499292 59.946322 
L 71.218148 70.288428 
L 80.489488 82.543945 
L 102.679765 94.460376 
L 130.472988 106.594791 
L 159.900578 118.220578 
L 183.51767 128.029835 
L 197.934393 136.894497 
L 206.521203 145.395854 
L 215.251005 152.879954 
L 217.378938 160.218732 
L 216.849733 167.266865 
L 220.634464 174.508761 
L 220.206629 181.435792 
L 221.795738 187.53933 
L 223.16837 193.642868 
L 223.546991 199.746406 
L 224.987565 205.486638 
L 225.946568 211.420633 
L 225.053395 216.749119 
L 231.519905 221.617417 
L 231.50038 241.74456 
L 231.513604 228.156922 
L 238.796558 202.943497 
L 239.816636 190.881744 
L 242.675378 178.456684 
L 244.617075 165.74098 
L 247.540869 152.371326 
L 249.445408 138.589924 
L 252.016144 125.147609 
L 251.777606 112.044378 
L 257.417024 99.522437 
L 258.853396 87.920871 
L 261.327855 78.329597 
L 260.992892 70.40953 
L 272.127015 63.506719 
L 279.541813 57.621165 
L 289.814588 53.309936 
L 302.153591 49.386233 
L 302.491998 45.995378 
L 307.775039 44.154629 
L 305.450105 42.144337 
L 306.627776 40.691113 
L 298.581068 39.383212 
L 281.387601 38.583939 
L 264.566127 38.511278 
L 236.399324 40.085604 
L 178.034211 42.798287 
L 155.526309 46.140701 
L 136.9326 49.119809 
L 129.516883 53.963886 
L 124.626604 60.527612 
L 124.768233 68.932086 
L 139.843569 78.765564 
L 159.886718 89.592078 
L 180.040113 99.546658 
L 193.09001 108.556642 
L 204.123964 116.840015 
L 210.242869 124.760083 
L 215.90207 133.212998 
L 217.623246 140.672878 
L 221.529568 149.658642 
L 223.687093 159.128814 
L 223.146741 167.557509 
L 222.26877 174.823626 
L 224.521856 180.902944 
L 224.857806 187.394008 
L 225.478714 193.037358 
L 225.697651 198.268962 
L 224.831822 204.251398 
L 226.66283 208.950154 
L 228.070457 214.448182 
L 231.521092 220.382177 
L 231.50038 241.74456 
L 231.522069 219.364921 
L 235.862092 208.393085 
L 238.038593 196.936841 
L 240.875809 185.577479 
L 242.24325 174.314998 
L 244.059802 162.253244 
L 248.127603 148.810929 
L 253.110273 134.496679 
L 253.666978 120.909041 
L 258.718899 107.78159 
L 261.363982 95.259649 
L 264.083677 84.287813 
L 270.216262 74.042589 
L 273.540596 65.977199 
L 287.839607 58.880625 
L 303.051839 52.680206 
L 318.726281 47.811908 
L 332.378541 44.178849 
L 339.258738 40.763774 
L 348.688098 37.276038 
L 352.642328 33.715641 
L 352.228686 30.082583 
L 369.241994 26.15888 
L 355.382836 22.089855 
L 326.35246 18.892763 
L 296.239671 17.003573 
L 264.02089 16.78559 
L 250.019291 17.657524 
L 225.140415 19.32873 
L 192.437837 21.871871 
L 162.888028 25.141624 
L 141.946425 28.62936 
L 127.59193 32.189757 
L 118.021941 36.11346 
L 99.375288 40.47313 
L 93.816305 45.777395 
L 79.138242 52.607544 
L 68.346302 60.745595 
L 75.277199 70.700175 
L 82.333203 82.035317 
L 100.865979 93.733765 
L 139.245847 106.570571 
L 162.774168 117.857272 
L 184.290284 127.521207 
L 200.212091 136.45853 
L 210.541159 144.741903 
L 214.585573 152.516648 
L 216.199715 160.000748 
L 216.199053 166.97622 
L 220.56022 173.733709 
L 222.069733 180.757621 
L 222.135443 187.321347 
L 223.901659 193.570207 
L 225.816008 199.528422 
L 225.1994 205.195993 
L 226.217556 210.645581 
L 225.531552 215.804524 
L 231.520743 220.745483 
L 231.499667 242.471172 
L 231.518927 222.634673 
L 236.663357 209.773647 
L 239.485483 197.057943 
L 241.725251 185.432156 
L 239.319674 173.152419 
L 246.010385 159.49212 
L 248.577876 146.122465 
L 249.416713 133.3341 
L 252.099227 121.054363 
L 253.401996 108.919948 
L 257.018433 97.366823 
L 261.064145 87.121598 
L 263.18854 78.402258 
L 266.399483 71.572109 
L 270.265298 65.250587 
L 280.176129 59.728339 
L 293.285248 55.368669 
L 291.664233 52.026255 
L 292.41737 49.337792 
L 295.379391 47.085296 
L 291.713575 45.414089 
L 293.072911 44.106188 
L 284.126741 43.234254 
L 272.056312 42.798287 
L 243.973361 43.452238 
L 195.152966 44.85702 
L 169.992121 47.666585 
L 145.790193 52.026255 
L 134.009993 57.548504 
L 129.818337 64.233331 
L 135.801187 72.080737 
L 148.883963 81.381366 
L 172.488529 91.408607 
L 183.587721 100.781898 
L 198.264281 109.210593 
L 207.222054 117.566627 
L 212.666187 125.704678 
L 218.133075 133.3341 
L 218.983492 140.600217 
L 218.899586 148.3023 
L 221.133203 155.350433 
L 221.589743 162.180583 
L 223.016369 169.156055 
L 222.889403 176.179968 
L 223.806969 182.743693 
L 225.970106 189.137876 
L 225.814929 195.314075 
L 226.015627 201.344952 
L 227.825794 212.825416 
L 231.523115 218.275003 
L 231.499381 242.761816 
L 231.517039 224.596525 
L 237.909736 213.479366 
L 236.481864 202.943497 
L 237.535356 192.552951 
L 241.362097 181.484233 
L 241.811108 169.156055 
L 245.873833 156.440351 
L 249.331074 143.869969 
L 252.635405 130.572976 
L 254.450302 116.985338 
L 261.129272 104.196972 
L 263.21072 92.353202 
L 266.475697 81.381366 
L 272.30547 72.153398 
L 271.824744 64.669298 
L 288.253152 58.468879 
L 298.067272 53.188834 
L 314.279524 48.829164 
L 327.556202 45.123444 
L 338.072619 41.902133 
L 342.286332 38.365956 
L 342.684208 35.50795 
L 341.501464 32.698385 
L 350.934313 29.646616 
L 349.853031 26.449525 
L 328.613304 24.051706 
L 296.70446 22.889128 
L 265.450242 22.816466 
L 242.773919 23.615739 
L 200.670996 25.359607 
L 161.341471 28.484037 
L 121.907685 35.314187 
L 121.40362 39.092568 
L 107.219848 43.59756 
L 90.723071 49.119809 
L 85.494244 56.385925 
L 80.875351 65.032604 
L 81.474688 74.696539 
L 91.454514 85.813697 
L 125.801902 97.875451 
L 160.8527 109.428576 
L 182.193511 119.165173 
L 194.581903 128.102496 
L 205.245323 136.749175 
L 215.237396 144.669242 
L 216.285558 152.298664 
L 217.729034 159.49212 
L 219.994351 166.612914 
L 223.02927 173.443064 
L 222.579454 180.05523 
L 221.49062 186.522074 
L 227.102769 192.625612 
L 225.286787 198.511166 
L 223.861078 204.469382 
L 226.408594 210.354936 
L 227.441687 215.804524 
L 231.520673 220.818144 
L 231.498953 243.197783 
L 231.517202 224.426982 
L 237.296548 211.517515 
L 240.077565 199.261998 
L 237.768788 187.054922 
L 241.665283 174.605643 
L 243.292049 161.332869 
L 245.896857 148.132758 
L 248.717219 135.368613 
L 252.659673 123.088876 
L 255.478174 111.366208 
L 253.690894 101.072542 
L 258.745953 91.57815 
L 260.895268 82.543945 
L 264.505113 74.551217 
L 262.787286 67.866389 
L 273.748129 61.980835 
L 280.50256 57.33052 
L 288.91565 53.406817 
L 293.829261 50.42771 
L 294.856246 48.029891 
L 297.110577 46.69777 
L 297.648923 45.171885 
L 283.30606 43.670221 
L 270.479573 43.234254 
L 248.012293 42.99205 
L 212.856394 43.960866 
L 179.353802 46.140701 
L 147.654029 49.725318 
L 143.716164 55.659313 
L 131.949695 61.254223 
L 135.153736 68.084373 
L 142.482524 76.367746 
L 158.178386 84.965984 
L 178.342854 94.09707 
L 190.544995 101.944476 
L 202.279339 117.784611 
L 209.90515 125.268711 
L 209.238549 132.825472 
L 213.886772 139.728283 
L 216.450662 146.41311 
L 219.007333 153.751888 
L 218.97854 160.000748 
L 214.068173 167.266865 
L 218.223721 173.152419 
L 219.197973 178.602007 
L 221.716965 185.940784 
L 225.11392 192.189645 
L 227.643996 197.51813 
L 227.827002 203.597448 
L 224.437338 209.192358 
L 226.085135 214.738827 
L 231.52158 219.873549 
L 231.505779 236.222311 
L 231.524091 217.257747 
L 233.735426 208.247762 
L 236.268864 199.310439 
L 237.33457 190.082471 
L 241.694326 180.05523 
L 242.109367 168.86541 
L 244.232741 158.402202 
L 247.88969 146.485771 
L 250.861938 133.479422 
L 249.244356 122.289603 
L 254.462116 111.463089 
L 258.734773 99.740421 
L 259.499938 87.630227 
L 262.693279 78.741344 
L 270.257898 70.845497 
L 278.470769 63.579381 
L 295.877414 51.735611 
L 305.839175 47.811908 
L 313.847962 44.953902 
L 318.51147 42.289659 
L 330.933102 39.601196 
L 330.777491 37.276038 
L 326.961278 34.805559 
L 328.194426 32.480401 
L 328.066983 29.937261 
L 310.92449 28.193393 
L 295.304444 27.321459 
L 256.546726 27.466781 
L 225.141647 28.726241 
L 168.936844 31.608467 
L 140.869106 34.805559 
L 130.140463 38.293295 
L 122.717317 42.216998 
L 102.262742 47.012635 
L 91.264737 53.188834 
L 86.893317 60.45495 
L 90.592481 68.593001 
L 102.605673 78.329597 
L 126.048573 89.301433 
L 151.888618 100.709237 
L 175.523628 110.591155 
L 192.347826 119.819123 
L 206.147967 128.175157 
L 208.857547 136.45853 
L 215.209805 143.94263 
L 219.233042 151.281408 
L 218.976307 158.474864 
L 223.086383 172.619571 
L 222.510509 179.328618 
L 223.643142 185.65014 
L 222.224264 191.899 
L 223.644966 197.687673 
L 225.259731 203.08882 
L 225.163909 208.901713 
L 227.605336 214.278639 
L 231.522069 219.364921 
L 231.498239 243.924395 
L 231.520045 221.472095 
L 236.294564 210.718242 
L 237.762318 199.528422 
L 239.28073 188.847231 
L 241.268555 178.020717 
L 242.02444 166.104286 
L 245.502639 154.187855 
L 249.740305 142.344085 
L 247.887407 129.919025 
L 252.507222 118.438561 
L 254.645767 107.466725 
L 255.651248 97.294162 
L 259.11057 87.993532 
L 259.24564 79.855482 
L 266.579034 72.734688 
L 270.327954 66.994455 
L 262.505348 62.344141 
L 280.667946 57.91181 
L 289.631915 51.638729 
L 283.941542 49.555776 
L 273.942215 48.950266 
L 272.99887 48.465858 
L 260.625977 48.393197 
L 234.696512 49.119809 
L 202.898045 50.936338 
L 175.736977 54.133429 
L 165.590111 58.275115 
L 164.226689 62.998091 
L 159.89407 69.464935 
L 171.973378 77.094357 
L 181.183098 85.087086 
L 194.398371 93.225136 
L 203.430058 100.636575 
L 208.376091 107.902692 
L 215.806789 115.604776 
L 215.55702 122.289603 
L 217.788223 129.071312 
L 221.556206 136.749175 
L 220.852111 143.579325 
L 221.096672 150.336813 
L 223.075444 157.02164 
L 222.000782 163.706468 
L 222.010326 170.10065 
L 223.25281 176.422172 
L 223.597898 182.671032 
L 225.707833 188.629248 
L 223.836379 194.442141 
L 226.695766 200.182373 
L 227.462993 205.777283 
L 227.338781 211.154209 
L 227.488457 216.313152 
L 231.520394 221.108789 
L 231.501306 240.799965 
L 231.516479 225.177814 
L 235.235578 216.385813 
L 234.647504 208.029779 
L 237.177914 199.673745 
L 234.972814 191.172388 
L 239.685706 172.643791 
L 242.551565 162.543889 
L 244.60457 151.136086 
L 248.894816 140.672878 
L 249.185985 129.773703 
L 250.860253 118.511222 
L 253.186253 108.048014 
L 260.641622 97.948112 
L 260.225761 88.356838 
L 261.432118 79.710159 
L 263.468184 72.298721 
L 269.308211 66.558488 
L 273.836582 60.963579 
L 287.777307 56.022619 
L 288.932655 52.534883 
L 293.424991 49.628437 
L 290.96918 47.230618 
L 294.290676 45.414089 
L 286.926707 44.033527 
L 288.790857 43.016271 
L 275.613012 42.701406 
L 251.681198 43.040491 
L 231.267609 44.396833 
L 191.123878 46.358684 
L 171.83881 49.507335 
L 153.713035 53.915445 
L 144.370063 59.752559 
L 148.389316 66.146742 
L 154.607095 73.388638 
L 161.324356 82.568165 
L 178.521333 92.256321 
L 192.232022 101.871815 
L 203.494021 111.051342 
L 208.951131 119.576919 
L 218.34483 128.247818 
L 220.799475 137.112481 
L 222.43931 145.78338 
L 221.210818 155.13245 
L 223.372675 164.384638 
L 222.243801 173.709488 
L 224.435212 183.034338 
L 226.452164 192.770934 
L 226.230132 197.615012 
L 226.464015 197.49391 
L 224.560208 199.455761 
L 227.910155 204.34828 
L 225.726936 212.46211 
L 227.96753 212.050363 
L 226.760019 213.06762 
L 226.29595 216.095168 
L 231.520114 221.399434 
L 231.494897 247.315249 
L 231.521162 220.309516 
L 234.038015 210.500259 
L 237.101811 201.514494 
L 239.342563 192.916256 
L 241.300465 183.664068 
L 243.073736 173.515725 
L 244.059183 151.717375 
L 248.987519 140.140029 
L 247.296582 128.611124 
L 253.971708 116.040743 
L 254.184168 104.608719 
L 260.748093 94.315054 
L 258.496351 85.401951 
L 259.641777 77.506104 
L 263.861931 70.554853 
L 262.06749 65.468571 
L 262.856297 60.43073 
L 271.433529 56.313264 
L 275.531991 53.261495 
L 280.047847 51.154321 
L 270.675539 49.773759 
L 263.331199 48.974486 
L 250.267163 49.047147 
L 223.029096 50.064404 
L 191.436478 51.977814 
L 172.674087 55.683534 
L 179.287173 60.890917 
L 172.112038 66.485827 
L 183.462287 73.170655 
L 195.904834 80.36411 
L 200.297688 87.751329 
L 211.933902 101.217865 
L 216.600664 108.048014 
L 216.143377 120.473074 
L 219.843132 127.448546 
L 218.534025 134.278695 
L 219.255533 141.181506 
L 220.810556 148.084317 
L 223.132791 154.454279 
L 224.974365 160.14607 
L 223.413676 166.540253 
L 225.052164 172.619571 
L 224.480701 178.16604 
L 223.688098 184.051594 
L 226.1496 189.549622 
L 224.140535 194.732786 
L 224.255333 200.327695 
L 225.772804 205.777283 
L 226.129327 211.372193 
L 227.126621 215.683422 
L 231.521162 220.309516 
L 231.505118 236.900482 
L 231.521348 220.115753 
L 233.377955 213.915333 
L 235.11813 209.483002 
L 234.609802 202.749734 
L 234.878795 195.871144 
L 238.34746 187.684652 
L 238.412852 178.965312 
L 239.163417 169.931107 
L 242.034437 160.14607 
L 244.247589 150.482135 
L 248.575521 140.212691 
L 248.196832 129.410397 
L 248.685161 118.293239 
L 250.093688 108.169116 
L 255.874304 98.45674 
L 258.632094 89.010789 
L 251.970298 81.066501 
L 259.696796 73.824605 
L 261.358796 67.648406 
L 272.376664 63.482499 
L 268.454009 61.399546 
L 269.227851 57.354741 
L 279.96511 54.351412 
L 279.085562 52.098916 
L 272.818857 50.500371 
L 273.278505 49.652657 
L 262.912486 49.555776 
L 248.263032 51.08166 
L 222.325577 53.55214 
L 199.169278 56.967214 
L 175.532529 62.392582 
L 172.144029 68.52034 
L 175.1642 75.495812 
L 185.101618 78.47492 
L 192.457126 84.166711 
L 198.671376 91.989897 
L 202.605477 96.470668 
L 211.381719 103.058614 
L 213.253561 111.826395 
L 216.176793 116.985338 
L 217.481273 122.071619 
L 216.89636 127.157901 
L 215.227418 133.93961 
L 220.85396 140.358013 
L 217.920904 146.267788 
L 223.024264 152.61353 
L 221.837969 158.620186 
L 221.254741 165.08703 
L 223.988689 171.33589 
L 224.614905 177.826954 
L 221.9827 184.269578 
L 225.513957 190.300454 
L 224.318045 195.725821 
L 227.058207 200.836323 
L 227.071047 206.697658 
L 228.300779 212.244127 
L 231.524161 217.185086 
L 231.495375 246.830842 
L 231.524091 217.257747 
L 234.941599 209.410341 
L 236.119716 201.635596 
L 239.09291 192.867816 
L 237.646865 184.196916 
L 239.4381 174.823626 
L 243.29923 165.450336 
L 244.839016 155.13245 
L 247.17573 144.959887 
L 246.08641 134.932646 
L 248.7098 124.638981 
L 252.998563 113.279618 
L 252.378902 104.947805 
L 253.391736 97.003517 
L 258.377853 89.228772 
L 255.412758 82.035317 
L 258.811317 75.931779 
L 256.247074 71.281464 
L 265.690619 66.776472 
L 264.851598 62.707447 
L 268.415931 59.583016 
L 268.686996 57.548504 
L 267.292741 56.264823 
L 260.4443 55.949958 
L 248.554582 55.731975 
L 232.967418 56.313264 
L 197.303553 58.56576 
L 186.46115 62.198818 
L 177.927697 66.340505 
L 187.280113 71.935415 
L 192.051434 76.706831 
L 198.600016 81.720452 
L 203.110901 87.048937 
L 210.797565 92.643847 
L 208.162757 98.650503 
L 218.767132 104.632939 
L 213.237635 110.445833 
L 213.901233 117.179101 
L 216.36555 123.088876 
L 217.505826 128.465802 
L 219.327451 135.368613 
L 220.812457 141.835457 
L 220.919609 147.575689 
L 220.060337 154.115194 
L 223.109202 160.436715 
L 222.470786 166.394931 
L 223.764631 172.59535 
L 223.043548 179.183296 
L 225.023563 184.584443 
L 225.884944 190.082471 
L 225.920237 195.386736 
L 225.844532 201.732478 
L 226.05648 213.624689 
L 231.523859 217.499951 
L 231.502302 239.782709 
L 231.518997 222.562012 
L 232.149169 210.548699 
L 232.401001 203.379464 
L 234.564853 196.621976 
L 237.146706 189.549622 
L 237.762644 181.799098 
L 236.780115 175.889323 
L 239.361524 168.889631 
L 240.438488 160.436715 
L 239.94168 151.790036 
L 245.80623 142.271424 
L 245.553704 133.261439 
L 248.593026 123.815487 
L 246.173197 114.369536 
L 248.913733 105.94084 
L 250.612803 97.875451 
L 254.818676 91.069522 
L 251.596794 85.014425 
L 252.04735 79.201531 
L 255.704756 74.405894 
L 257.240672 70.336869 
L 251.844531 66.921794 
L 256.026405 64.233331 
L 256.52587 61.908174 
L 252.211255 60.745595 
L 235.811243 60.672934 
L 225.124058 61.544868 
L 211.044366 63.482499 
L 197.438357 67.575745 
L 201.085421 71.354125 
L 201.883258 76.00444 
L 202.608247 81.090722 
L 208.397165 86.467648 
L 207.053414 92.062558 
L 215.645174 97.003517 
L 214.756581 101.871815 
L 215.838857 107.612047 
L 217.850485 113.618704 
L 214.466651 119.310495 
L 216.316796 126.189085 
L 216.744574 132.68015 
L 220.831236 138.711026 
L 218.430325 144.402818 
L 218.307423 150.046168 
L 221.907218 156.004384 
L 220.985811 162.398567 
L 223.876955 168.356782 
L 224.736793 173.80637 
L 221.946966 180.273213 
L 223.89818 186.376751 
L 225.030326 191.899 
L 223.195753 197.784555 
L 227.951505 203.452125 
L 224.438972 214.205978 
L 231.521929 219.510243 
L 231.50038 241.74456 
L 231.521999 219.437582 
L 236.211232 205.413977 
L 237.886671 190.736421 
L 237.874708 182.380387 
L 238.392226 174.387659 
L 240.30396 165.668319 
L 246.778195 146.41311 
L 248.740665 136.676514 
L 246.800908 126.867256 
L 248.440244 117.348644 
L 251.326613 108.048014 
L 253.697872 99.401336 
L 255.273637 91.699252 
L 258.326405 84.72378 
L 256.822583 78.765564 
L 258.788853 73.53396 
L 261.698035 68.375018 
L 264.850397 64.596637 
L 271.264601 61.205782 
L 272.193301 57.839148 
L 267.778647 56.918774 
L 262.780357 56.458586 
L 245.720797 56.385925 
L 233.890072 56.603909 
L 222.63199 57.548504 
L 202.89622 59.437694 
L 188.180428 63.143414 
L 187.094333 67.430422 
L 190.73975 72.734688 
L 192.6941 79.613278 
L 201.364969 85.571494 
L 206.179804 91.335946 
L 206.949613 97.923892 
L 213.531581 104.02743 
L 215.984036 109.137932 
L 218.283193 114.805503 
L 216.836 120.473074 
L 216.58699 127.157901 
L 222.013875 133.624745 
L 221.412229 139.437638 
L 219.120101 145.904482 
L 219.820922 151.886918 
L 222.481762 157.578709 
L 223.215385 163.561145 
L 226.190565 169.034953 
L 225.057307 174.750965 
L 225.102673 180.636519 
L 224.797378 185.747021 
L 228.045718 191.099727 
L 223.32856 196.621976 
L 225.795137 203.379464 
L 225.388286 209.410341 
L 228.118096 214.496623 
L 231.522813 218.589868 
L 231.503463 238.59591 
L 231.520254 221.254111 
L 233.18412 215.174794 
L 233.132608 208.829052 
L 234.556321 202.798175 
L 234.507028 197.639232 
L 236.799452 192.141204 
L 235.653319 185.432156 
L 236.158357 177.948056 
L 238.527516 170.318634 
L 240.016539 162.107922 
L 243.546497 153.969871 
L 244.335724 145.395854 
L 245.506391 136.022563 
L 247.715397 127.593868 
L 247.536137 119.237834 
L 248.24759 111.172444 
L 248.565888 103.3977 
L 250.455695 96.422228 
L 250.823246 90.31869 
L 246.801747 85.571494 
L 247.716029 81.526689 
L 253.999034 77.748308 
L 252.556084 74.260572 
L 250.986652 71.354125 
L 243.167251 69.464935 
L 235.470579 68.665662 
L 230.265547 68.883646 
L 222.543924 69.75558 
L 212.632761 71.862754 
L 210.2364 75.35049 
L 209.118255 79.855482 
L 209.574093 83.924507 
L 211.501166 88.502161 
L 212.198633 94.605699 
L 219.241904 99.183352 
L 216.070524 103.325038 
L 217.847311 108.701965 
L 217.562129 113.642924 
L 212.986406 119.528479 
L 219.191287 125.268711 
L 217.729597 130.645637 
L 217.133789 136.385869 
L 218.151872 142.489407 
L 218.766829 148.084317 
L 220.553033 154.260516 
L 220.846323 160.218732 
L 222.635695 166.176947 
L 223.140884 171.917179 
L 222.191876 178.020717 
L 221.988902 183.542966 
L 224.870879 189.065215 
L 222.785169 194.878108 
L 221.982795 200.255034 
L 226.881275 205.849944 
L 224.892243 211.154209 
L 223.447713 216.603797 
L 231.519765 221.762739 
L 231.501804 240.291337 
L 231.520533 220.963467 
L 232.021181 214.423962 
L 234.541295 207.303167 
L 234.255147 200.182373 
L 236.745248 193.061579 
L 238.829306 185.359495 
L 238.906455 177.366767 
L 240.288191 169.228716 
L 242.062158 160.654699 
L 243.506533 151.208747 
L 246.174578 142.440966 
L 247.264478 133.552084 
L 246.411382 123.742826 
L 247.046432 114.805503 
L 254.670064 106.449469 
L 253.632974 98.311418 
L 253.865667 91.045301 
L 251.516045 85.014425 
L 255.476893 78.983548 
L 255.723422 73.897266 
L 258.422011 69.75558 
L 262.261194 66.122521 
L 263.713619 63.070752 
L 267.444939 60.890917 
L 261.659767 59.437694 
L 253.888464 58.711082 
L 239.322548 58.638421 
L 229.993316 59.219711 
L 202.802305 61.108901 
L 192.692958 64.669298 
L 190.689396 69.246952 
L 193.599327 74.260572 
L 197.80261 79.855482 
L 203.633548 85.595714 
L 206.568069 90.97264 
L 213.282127 96.640211 
L 216.230068 102.235121 
L 216.674436 113.497602 
L 217.685269 120.23087 
L 215.299585 126.358628 
L 218.619717 132.534827 
L 219.746333 138.856349 
L 222.885636 144.57236 
L 221.566437 150.191491 
L 226.86927 156.077045 
L 223.885473 162.035261 
L 222.540744 168.356782 
L 224.58513 174.242337 
L 225.649987 180.200552 
L 225.179403 186.158768 
L 225.469396 191.463033 
L 225.04017 197.130604 
L 226.242462 202.50753 
L 225.978777 207.44849 
L 228.403069 212.607432 
L 231.523743 217.621053 
L 231.501804 240.291337 
L 231.521999 219.437582 
L 233.156489 213.842672 
L 234.287552 207.811795 
L 236.547091 201.708257 
L 234.43021 195.314075 
L 236.964407 188.847231 
L 238.538185 181.435792 
L 237.890117 174.169676 
L 237.634221 166.540253 
L 241.131429 158.329541 
L 240.626979 150.627458 
L 243.43694 142.562068 
L 245.075564 134.496679 
L 246.449042 126.649273 
L 242.075276 118.583883 
L 250.676824 111.390428 
L 247.640151 105.359551 
L 246.380455 99.03803 
L 247.105585 93.297798 
L 246.326273 89.156111 
L 242.400245 85.087086 
L 240.540834 82.2533 
L 244.091325 80.000804 
L 239.768968 78.402258 
L 238.517659 77.820969 
L 235.895713 77.457663 
L 223.58133 78.838225 
L 223.704435 81.308705 
L 217.472281 83.997168 
L 215.947631 87.993532 
L 218.872515 92.135219 
L 216.607991 96.204244 
L 216.173054 100.92722 
L 214.127138 105.359551 
L 218.604638 109.864543 
L 216.765034 114.66018 
L 215.231694 120.109768 
L 216.762022 125.414033 
L 216.151399 130.936282 
L 217.863014 135.949902 
L 216.228755 141.254167 
L 220.959959 147.212383 
L 222.792124 152.66197 
L 222.000042 158.620186 
L 221.900238 163.997112 
L 223.005556 169.4467 
L 221.914602 175.477576 
L 223.007385 180.927164 
L 225.290935 186.086107 
L 227.013797 191.971661 
L 223.030909 197.566571 
L 226.324358 202.798175 
L 223.494074 207.739134 
L 226.031742 213.116061 
L 231.523185 218.202342 
L 231.501092 241.017948 
L 231.519905 221.617417 
L 233.566309 215.949846 
L 233.951771 209.773647 
L 236.665929 203.524787 
L 234.910272 196.912621 
L 235.599187 190.930185 
L 236.913933 183.615627 
L 239.564532 175.768221 
L 240.707861 167.484848 
L 240.395839 158.838169 
L 243.862799 150.336813 
L 245.655739 140.890861 
L 244.821643 132.171521 
L 247.688898 123.016215 
L 252.068807 106.086163 
L 254.475029 97.875451 
L 252.307835 90.536673 
L 253.233238 84.142491 
L 253.827519 78.838225 
L 259.772355 73.824605 
L 253.928144 69.828241 
L 260.718871 66.413166 
L 257.915792 64.13645 
L 255.505289 62.562124 
L 254.83152 61.254223 
L 246.775005 60.45495 
L 238.340187 60.45495 
L 220.435562 61.254223 
L 203.202029 63.361397 
L 197.685842 66.558488 
L 196.589844 70.264208 
L 196.135481 75.544253 
L 205.306402 86.685631 
L 209.402395 92.135219 
L 214.14126 98.020773 
L 215.929847 103.252377 
L 218.323359 108.701965 
L 216.683192 114.514858 
L 219.504847 126.431289 
L 217.896875 132.244183 
L 222.904155 138.493043 
L 223.289501 144.596581 
L 225.740208 150.11883 
L 225.368158 156.004384 
L 223.059026 162.253244 
L 221.452944 168.066138 
L 223.110852 173.951692 
L 223.014377 179.691924 
L 224.804845 185.359495 
L 225.507375 190.881744 
L 225.621375 196.403992 
L 229.239347 201.466054 
L 227.004182 211.299531 
L 228.205125 216.095168 
L 231.520743 220.745483 
L 231.499238 242.907139 
L 231.520254 221.254111 
L 232.492241 215.804524 
L 233.977418 209.846308 
L 234.108152 203.670109 
L 235.652801 197.808775 
L 236.53966 191.971661 
L 236.886453 184.778206 
L 237.07714 177.294106 
L 238.245602 169.664683 
L 241.177614 161.744616 
L 241.295168 153.751888 
L 243.796088 145.75916 
L 242.651747 137.403125 
L 242.359181 129.773703 
L 245.428485 114.926605 
L 248.19857 108.774626 
L 247.188948 102.235121 
L 247.049621 96.349567 
L 248.017468 91.699252 
L 243.376711 87.84821 
L 244.953507 84.651119 
L 238.68974 82.471284 
L 240.175997 81.381366 
L 233.051574 80.800077 
L 222.808647 81.817333 
L 217.199934 84.651119 
L 219.627293 86.782513 
L 215.349296 89.519417 
L 210.439903 94.387715 
L 219.264934 98.602063 
L 221.080392 101.799154 
L 218.915524 106.158824 
L 220.280231 110.518494 
L 219.430091 114.587519 
L 220.288097 119.383156 
L 217.151764 124.396777 
L 222.445172 129.337736 
L 218.616496 134.859985 
L 220.890537 140.018927 
L 221.611914 145.541176 
L 221.242075 150.990763 
L 222.561303 156.222367 
L 222.480032 161.817277 
L 222.945865 167.630171 
L 222.629552 172.861775 
L 222.951325 178.456684 
L 222.555651 184.196916 
L 227.126203 189.283198 
L 224.107535 194.732786 
L 225.363575 199.964389 
L 225.712301 205.195993 
L 227.318581 210.354936 
L 227.635974 215.513879 
L 231.521441 220.018871 
L 231.497524 244.651007 
L 231.52165 219.800888 
L 234.582713 213.915333 
L 235.589262 208.029779 
L 234.038983 201.85358 
L 235.953968 195.120312 
L 237.193099 188.847231 
L 234.753427 180.927164 
L 239.098685 172.861775 
L 238.042641 164.360418 
L 243.475488 155.495756 
L 244.015785 146.267788 
L 244.788299 136.894497 
L 247.949039 127.884513 
L 247.3915 118.729206 
L 249.908242 110.082527 
L 255.018117 102.283562 
L 251.957871 94.533037 
L 252.369362 87.775549 
L 252.403186 81.817333 
L 255.040849 72.226059 
L 254.79131 68.302356 
L 258.61562 64.959943 
L 264.223238 62.198818 
L 263.615889 60.164306 
L 257.825928 58.711082 
L 255.257032 57.91181 
L 241.712105 58.178234 
L 224.755025 59.147049 
L 203.360189 60.963579 
L 188.340786 64.233331 
L 192.032296 68.375018 
L 189.507717 73.315977 
L 195.513054 79.056209 
L 206.06274 84.72378 
L 208.00487 90.173367 
L 210.536276 95.768277 
L 216.280873 101.290526 
L 216.476274 106.52213 
L 216.203426 112.262362 
L 219.770892 118.656545 
L 219.195973 124.324116 
L 219.3927 130.718298 
L 219.878141 137.03982 
L 221.101368 142.707391 
L 223.771449 148.810929 
L 222.927839 154.914466 
L 222.785555 160.72736 
L 223.792632 166.758237 
L 221.869535 172.643791 
L 225.586469 178.456684 
L 225.61648 184.124255 
L 224.395346 189.646504 
L 226.85081 200.327695 
L 228.591259 205.559299 
L 228.271797 210.718242 
L 228.904626 215.58654 
L 231.521092 220.382177 
L 231.500023 242.107866 
L 231.520882 220.600161 
L 234.568128 214.884149 
L 233.768401 209.33768 
L 235.514929 203.08882 
L 236.825488 196.476654 
L 236.739122 189.646504 
L 238.487439 182.162404 
L 239.773334 174.387659 
L 240.742567 166.467592 
L 240.428951 158.402202 
L 243.70295 150.336813 
L 242.249315 142.05344 
L 242.8387 133.842728 
L 244.503502 125.559355 
L 244.950284 117.929933 
L 247.016232 110.809139 
L 247.705643 103.978989 
L 245.734219 98.238757 
L 250.780173 93.661103 
L 248.708406 89.446756 
L 240.583284 86.249664 
L 242.571968 84.287813 
L 236.864799 82.83459 
L 231.152748 82.471284 
L 228.47019 83.754964 
L 226.640819 84.990204 
L 223.063562 86.540309 
L 217.436874 90.246029 
L 219.724122 94.242393 
L 218.727608 97.657468 
L 218.588894 102.16246 
L 218.948721 106.958097 
L 218.890307 110.809139 
L 220.662174 115.096147 
L 219.797094 119.746462 
L 220.642639 124.978066 
L 222.275564 129.410397 
L 222.414159 134.496679 
L 224.392437 140.454894 
L 223.323558 145.105209 
L 224.403037 150.409474 
L 222.023779 156.513012 
L 223.784783 161.889938 
L 227.311558 167.339526 
L 222.237882 173.22508 
L 222.46664 178.747329 
L 223.440102 184.196916 
L 222.929537 189.646504 
L 225.193152 195.02343 
L 226.492336 200.037051 
L 224.144657 205.195993 
L 227.383266 210.136953 
L 228.655846 214.859929 
L 231.521859 219.582904 
L 231.49394 248.284065 
L 231.523254 218.129681 
L 235.897546 212.316788 
L 233.766895 206.431233 
L 235.013986 200.255034 
L 237.040059 193.497546 
L 239.904094 186.812718 
L 238.286483 179.037974 
L 236.083709 171.045245 
L 240.791593 162.61655 
L 239.547712 153.969871 
L 241.943977 145.250531 
L 245.541268 136.167886 
L 247.389082 127.157901 
L 245.98386 118.511222 
L 250.156091 109.864543 
L 253.067902 101.726493 
L 250.9943 94.315054 
L 254.392193 87.484904 
L 253.542495 81.526689 
L 254.149337 76.731052 
L 254.634231 71.935415 
L 257.511791 68.011712 
L 262.018977 64.741959 
L 263.05935 62.053496 
L 258.350214 60.309628 
L 254.534991 59.147049 
L 245.582044 58.783744 
L 230.021862 59.365033 
L 210.169855 60.963579 
L 201.694462 63.724703 
L 189.438044 67.503084 
L 195.586197 72.008076 
L 201.019994 77.094357 
L 204.483815 82.471284 
L 212.283325 93.588442 
L 213.638249 99.183352 
L 215.916486 104.487617 
L 213.109607 110.30051 
L 218.44775 116.47671 
L 222.769761 122.507586 
L 219.247925 128.829108 
L 222.365046 134.859985 
L 220.732214 140.479115 
L 219.344742 146.776416 
L 220.436509 152.807293 
L 221.671237 158.838169 
L 221.968702 165.159691 
L 223.497741 171.117907 
L 224.688192 176.858139 
L 224.668067 182.52571 
L 226.675224 188.411264 
L 225.338758 194.006174 
L 226.82125 199.140896 
L 226.61679 203.888092 
L 227.383517 208.489966 
L 228.753242 213.019179 
L 231.523952 217.403069 
L 231.494658 247.557453 
L 231.52051 220.987687 
L 234.082857 213.842672 
L 235.355655 205.849944 
L 235.317515 199.310439 
L 235.932487 192.068543 
L 237.152651 185.504817 
L 238.116405 177.318326 
L 237.889454 169.374039 
L 241.490018 161.163327 
L 239.239602 153.533904 
L 245.866572 145.250531 
L 244.190625 137.03982 
L 244.650332 128.490022 
L 249.035719 120.497294 
L 243.713172 114.369536 
L 248.679141 107.054978 
L 243.237681 101.217865 
L 243.591056 96.930856 
L 245.351493 92.353202 
L 241.374609 89.228772 
L 240.319692 87.048937 
L 234.525835 85.789477 
L 230.086491 85.571494 
L 229.91307 85.305069 
L 219.647135 87.339582 
L 219.346161 90.294469 
L 222.792659 92.425864 
L 213.863748 97.269941 
L 219.542092 101.968697 
L 220.513916 104.560278 
L 220.382541 109.477017 
L 218.580368 115.096147 
L 222.957366 118.874528 
L 218.61995 124.033471 
L 222.821903 129.240854 
L 222.168615 133.3341 
L 221.435684 139.776724 
L 218.872529 149.028912 
L 222.289235 154.696483 
L 222.276707 159.928087 
L 221.637197 165.450336 
L 223.101579 171.263229 
L 223.061247 176.688596 
L 222.837924 181.508453 
L 225.802279 187.103363 
L 224.58886 192.262306 
L 225.54952 197.275926 
L 225.465372 202.870836 
L 225.507819 208.029779 
L 227.049952 212.752755 
L 231.524138 217.209306 
L 231.498239 243.924395 
L 231.520673 220.818144 
L 235.069132 215.150573 
L 234.473893 209.119696 
L 233.998493 202.386428 
L 235.096269 195.580499 
L 237.665571 187.975297 
L 238.431278 180.70918 
L 240.59816 172.57113 
L 239.550001 164.287757 
L 239.972222 156.222367 
L 242.484813 147.139722 
L 244.175776 137.766431 
L 246.866114 129.483058 
L 246.107566 120.303531 
L 245.67046 110.591155 
L 249.779844 102.259341 
L 254.253007 94.969004 
L 257.875468 88.792805 
L 254.922809 81.647791 
L 255.878571 75.495812 
L 254.635758 70.99082 
L 254.694701 67.696847 
L 259.384488 64.741959 
L 266.441449 61.617529 
L 258.844264 59.219711 
L 256.924834 57.766487 
L 258.488321 56.821892 
L 246.06573 57.088316 
L 228.093609 58.129793 
L 214.95738 59.583016 
L 192.19454 62.416802 
L 188.515082 66.413166 
L 189.788649 71.136142 
L 193.826507 76.876374 
L 203.53393 82.592386 
L 209.139158 87.412243 
L 208.946455 93.806426 
L 213.838763 99.546658 
L 212.617851 104.705601 
L 212.617851 104.705601 
" style="fill:none;stroke:#000000;stroke-linecap:round;"/>
   </g>
   <g id="matplotlib.axis_1">
    <g id="xtick_1">
     <g id="line2d_2">
      <defs>
       <path d="M 0 0 
L 0 -3.5 
" id="m8a7a494110" style="stroke:#000000;stroke-width:0.8;"/>
      </defs>
      <g>
       <use style="opacity:0.1;stroke:#000000;stroke-width:0.8;" x="90.30189" xlink:href="#m8a7a494110" y="248.865354"/>
      </g>
     </g>
     <g id="text_1">
      <!-- -10 -->
      <defs>
       <path d="M 4.890625 31.390625 
L 31.203125 31.390625 
L 31.203125 23.390625 
L 4.890625 23.390625 
z
" id="DejaVuSans-2d"/>
       <path d="M 12.40625 8.296875 
L 28.515625 8.296875 
L 28.515625 63.921875 
L 10.984375 60.40625 
L 10.984375 69.390625 
L 28.421875 72.90625 
L 38.28125 72.90625 
L 38.28125 8.296875 
L 54.390625 8.296875 
L 54.390625 0 
L 12.40625 0 
z
" id="DejaVuSans-31"/>
       <path d="M 31.78125 66.40625 
Q 24.171875 66.40625 20.328125 58.90625 
Q 16.5 51.421875 16.5 36.375 
Q 16.5 21.390625 20.328125 13.890625 
Q 24.171875 6.390625 31.78125 6.390625 
Q 39.453125 6.390625 43.28125 13.890625 
Q 47.125 21.390625 47.125 36.375 
Q 47.125 51.421875 43.28125 58.90625 
Q 39.453125 66.40625 31.78125 66.40625 
z
M 31.78125 74.21875 
Q 44.046875 74.21875 50.515625 64.515625 
Q 56.984375 54.828125 56.984375 36.375 
Q 56.984375 17.96875 50.515625 8.265625 
Q 44.046875 -1.421875 31.78125 -1.421875 
Q 19.53125 -1.421875 13.0625 8.265625 
Q 6.59375 17.96875 6.59375 36.375 
Q 6.59375 54.828125 13.0625 64.515625 
Q 19.53125 74.21875 31.78125 74.21875 
z
" id="DejaVuSans-30"/>
      </defs>
      <g transform="translate(80.502202 261.483479)scale(0.12 -0.12)">
       <use xlink:href="#DejaVuSans-2d"/>
       <use x="36.083984" xlink:href="#DejaVuSans-31"/>
       <use x="99.707031" xlink:href="#DejaVuSans-30"/>
      </g>
     </g>
    </g>
    <g id="xtick_2">
     <g id="line2d_3">
      <g>
       <use style="opacity:0.1;stroke:#000000;stroke-width:0.8;" x="160.898445" xlink:href="#m8a7a494110" y="248.865354"/>
      </g>
     </g>
     <g id="text_2">
      <!-- -5 -->
      <defs>
       <path d="M 10.796875 72.90625 
L 49.515625 72.90625 
L 49.515625 64.59375 
L 19.828125 64.59375 
L 19.828125 46.734375 
Q 21.96875 47.46875 24.109375 47.828125 
Q 26.265625 48.1875 28.421875 48.1875 
Q 40.625 48.1875 47.75 41.5 
Q 54.890625 34.8125 54.890625 23.390625 
Q 54.890625 11.625 47.5625 5.09375 
Q 40.234375 -1.421875 26.90625 -1.421875 
Q 22.3125 -1.421875 17.546875 -0.640625 
Q 12.796875 0.140625 7.71875 1.703125 
L 7.71875 11.625 
Q 12.109375 9.234375 16.796875 8.0625 
Q 21.484375 6.890625 26.703125 6.890625 
Q 35.15625 6.890625 40.078125 11.328125 
Q 45.015625 15.765625 45.015625 23.390625 
Q 45.015625 31 40.078125 35.4375 
Q 35.15625 39.890625 26.703125 39.890625 
Q 22.75 39.890625 18.8125 39.015625 
Q 14.890625 38.140625 10.796875 36.28125 
z
" id="DejaVuSans-35"/>
      </defs>
      <g transform="translate(154.916257 261.483479)scale(0.12 -0.12)">
       <use xlink:href="#DejaVuSans-2d"/>
       <use x="36.083984" xlink:href="#DejaVuSans-35"/>
      </g>
     </g>
    </g>
    <g id="xtick_3">
     <g id="line2d_4">
      <g>
       <use style="opacity:0.1;stroke:#000000;stroke-width:0.8;" x="231.495" xlink:href="#m8a7a494110" y="248.865354"/>
      </g>
     </g>
     <g id="text_3">
      <!-- 0 -->
      <g transform="translate(227.6775 261.483479)scale(0.12 -0.12)">
       <use xlink:href="#DejaVuSans-30"/>
      </g>
     </g>
    </g>
    <g id="xtick_4">
     <g id="line2d_5">
      <g>
       <use style="opacity:0.1;stroke:#000000;stroke-width:0.8;" x="302.091555" xlink:href="#m8a7a494110" y="248.865354"/>
      </g>
     </g>
     <g id="text_4">
      <!-- 5 -->
      <g transform="translate(298.274055 261.483479)scale(0.12 -0.12)">
       <use xlink:href="#DejaVuSans-35"/>
      </g>
     </g>
    </g>
    <g id="xtick_5">
     <g id="line2d_6">
      <g>
       <use style="opacity:0.1;stroke:#000000;stroke-width:0.8;" x="372.68811" xlink:href="#m8a7a494110" y="248.865354"/>
      </g>
     </g>
     <g id="text_5">
      <!-- 10 -->
      <g transform="translate(365.05311 261.483479)scale(0.12 -0.12)">
       <use xlink:href="#DejaVuSans-31"/>
       <use x="63.623047" xlink:href="#DejaVuSans-30"/>
      </g>
     </g>
    </g>
    <g id="text_6">
     <!-- Discharge (m s) -->
     <defs>
      <path d="M 19.671875 64.796875 
L 19.671875 8.109375 
L 31.59375 8.109375 
Q 46.6875 8.109375 53.6875 14.9375 
Q 60.6875 21.78125 60.6875 36.53125 
Q 60.6875 51.171875 53.6875 57.984375 
Q 46.6875 64.796875 31.59375 64.796875 
z
M 9.8125 72.90625 
L 30.078125 72.90625 
Q 51.265625 72.90625 61.171875 64.09375 
Q 71.09375 55.28125 71.09375 36.53125 
Q 71.09375 17.671875 61.125 8.828125 
Q 51.171875 0 30.078125 0 
L 9.8125 0 
z
" id="DejaVuSans-44"/>
      <path d="M 9.421875 54.6875 
L 18.40625 54.6875 
L 18.40625 0 
L 9.421875 0 
z
M 9.421875 75.984375 
L 18.40625 75.984375 
L 18.40625 64.59375 
L 9.421875 64.59375 
z
" id="DejaVuSans-69"/>
      <path d="M 44.28125 53.078125 
L 44.28125 44.578125 
Q 40.484375 46.53125 36.375 47.5 
Q 32.28125 48.484375 27.875 48.484375 
Q 21.1875 48.484375 17.84375 46.4375 
Q 14.5 44.390625 14.5 40.28125 
Q 14.5 37.15625 16.890625 35.375 
Q 19.28125 33.59375 26.515625 31.984375 
L 29.59375 31.296875 
Q 39.15625 29.25 43.1875 25.515625 
Q 47.21875 21.78125 47.21875 15.09375 
Q 47.21875 7.46875 41.1875 3.015625 
Q 35.15625 -1.421875 24.609375 -1.421875 
Q 20.21875 -1.421875 15.453125 -0.5625 
Q 10.6875 0.296875 5.421875 2 
L 5.421875 11.28125 
Q 10.40625 8.6875 15.234375 7.390625 
Q 20.0625 6.109375 24.8125 6.109375 
Q 31.15625 6.109375 34.5625 8.28125 
Q 37.984375 10.453125 37.984375 14.40625 
Q 37.984375 18.0625 35.515625 20.015625 
Q 33.0625 21.96875 24.703125 23.78125 
L 21.578125 24.515625 
Q 13.234375 26.265625 9.515625 29.90625 
Q 5.8125 33.546875 5.8125 39.890625 
Q 5.8125 47.609375 11.28125 51.796875 
Q 16.75 56 26.8125 56 
Q 31.78125 56 36.171875 55.265625 
Q 40.578125 54.546875 44.28125 53.078125 
z
" id="DejaVuSans-73"/>
      <path d="M 48.78125 52.59375 
L 48.78125 44.1875 
Q 44.96875 46.296875 41.140625 47.34375 
Q 37.3125 48.390625 33.40625 48.390625 
Q 24.65625 48.390625 19.8125 42.84375 
Q 14.984375 37.3125 14.984375 27.296875 
Q 14.984375 17.28125 19.8125 11.734375 
Q 24.65625 6.203125 33.40625 6.203125 
Q 37.3125 6.203125 41.140625 7.25 
Q 44.96875 8.296875 48.78125 10.40625 
L 48.78125 2.09375 
Q 45.015625 0.34375 40.984375 -0.53125 
Q 36.96875 -1.421875 32.421875 -1.421875 
Q 20.0625 -1.421875 12.78125 6.34375 
Q 5.515625 14.109375 5.515625 27.296875 
Q 5.515625 40.671875 12.859375 48.328125 
Q 20.21875 56 33.015625 56 
Q 37.15625 56 41.109375 55.140625 
Q 45.0625 54.296875 48.78125 52.59375 
z
" id="DejaVuSans-63"/>
      <path d="M 54.890625 33.015625 
L 54.890625 0 
L 45.90625 0 
L 45.90625 32.71875 
Q 45.90625 40.484375 42.875 44.328125 
Q 39.84375 48.1875 33.796875 48.1875 
Q 26.515625 48.1875 22.3125 43.546875 
Q 18.109375 38.921875 18.109375 30.90625 
L 18.109375 0 
L 9.078125 0 
L 9.078125 75.984375 
L 18.109375 75.984375 
L 18.109375 46.1875 
Q 21.34375 51.125 25.703125 53.5625 
Q 30.078125 56 35.796875 56 
Q 45.21875 56 50.046875 50.171875 
Q 54.890625 44.34375 54.890625 33.015625 
z
" id="DejaVuSans-68"/>
      <path d="M 34.28125 27.484375 
Q 23.390625 27.484375 19.1875 25 
Q 14.984375 22.515625 14.984375 16.5 
Q 14.984375 11.71875 18.140625 8.90625 
Q 21.296875 6.109375 26.703125 6.109375 
Q 34.1875 6.109375 38.703125 11.40625 
Q 43.21875 16.703125 43.21875 25.484375 
L 43.21875 27.484375 
z
M 52.203125 31.203125 
L 52.203125 0 
L 43.21875 0 
L 43.21875 8.296875 
Q 40.140625 3.328125 35.546875 0.953125 
Q 30.953125 -1.421875 24.3125 -1.421875 
Q 15.921875 -1.421875 10.953125 3.296875 
Q 6 8.015625 6 15.921875 
Q 6 25.140625 12.171875 29.828125 
Q 18.359375 34.515625 30.609375 34.515625 
L 43.21875 34.515625 
L 43.21875 35.40625 
Q 43.21875 41.609375 39.140625 45 
Q 35.0625 48.390625 27.6875 48.390625 
Q 23 48.390625 18.546875 47.265625 
Q 14.109375 46.140625 10.015625 43.890625 
L 10.015625 52.203125 
Q 14.9375 54.109375 19.578125 55.046875 
Q 24.21875 56 28.609375 56 
Q 40.484375 56 46.34375 49.84375 
Q 52.203125 43.703125 52.203125 31.203125 
z
" id="DejaVuSans-61"/>
      <path d="M 41.109375 46.296875 
Q 39.59375 47.171875 37.8125 47.578125 
Q 36.03125 48 33.890625 48 
Q 26.265625 48 22.1875 43.046875 
Q 18.109375 38.09375 18.109375 28.8125 
L 18.109375 0 
L 9.078125 0 
L 9.078125 54.6875 
L 18.109375 54.6875 
L 18.109375 46.1875 
Q 20.953125 51.171875 25.484375 53.578125 
Q 30.03125 56 36.53125 56 
Q 37.453125 56 38.578125 55.875 
Q 39.703125 55.765625 41.0625 55.515625 
z
" id="DejaVuSans-72"/>
      <path d="M 45.40625 27.984375 
Q 45.40625 37.75 41.375 43.109375 
Q 37.359375 48.484375 30.078125 48.484375 
Q 22.859375 48.484375 18.828125 43.109375 
Q 14.796875 37.75 14.796875 27.984375 
Q 14.796875 18.265625 18.828125 12.890625 
Q 22.859375 7.515625 30.078125 7.515625 
Q 37.359375 7.515625 41.375 12.890625 
Q 45.40625 18.265625 45.40625 27.984375 
z
M 54.390625 6.78125 
Q 54.390625 -7.171875 48.1875 -13.984375 
Q 42 -20.796875 29.203125 -20.796875 
Q 24.46875 -20.796875 20.265625 -20.09375 
Q 16.0625 -19.390625 12.109375 -17.921875 
L 12.109375 -9.1875 
Q 16.0625 -11.328125 19.921875 -12.34375 
Q 23.78125 -13.375 27.78125 -13.375 
Q 36.625 -13.375 41.015625 -8.765625 
Q 45.40625 -4.15625 45.40625 5.171875 
L 45.40625 9.625 
Q 42.625 4.78125 38.28125 2.390625 
Q 33.9375 0 27.875 0 
Q 17.828125 0 11.671875 7.65625 
Q 5.515625 15.328125 5.515625 27.984375 
Q 5.515625 40.671875 11.671875 48.328125 
Q 17.828125 56 27.875 56 
Q 33.9375 56 38.28125 53.609375 
Q 42.625 51.21875 45.40625 46.390625 
L 45.40625 54.6875 
L 54.390625 54.6875 
z
" id="DejaVuSans-67"/>
      <path d="M 56.203125 29.59375 
L 56.203125 25.203125 
L 14.890625 25.203125 
Q 15.484375 15.921875 20.484375 11.0625 
Q 25.484375 6.203125 34.421875 6.203125 
Q 39.59375 6.203125 44.453125 7.46875 
Q 49.3125 8.734375 54.109375 11.28125 
L 54.109375 2.78125 
Q 49.265625 0.734375 44.1875 -0.34375 
Q 39.109375 -1.421875 33.890625 -1.421875 
Q 20.796875 -1.421875 13.15625 6.1875 
Q 5.515625 13.8125 5.515625 26.8125 
Q 5.515625 40.234375 12.765625 48.109375 
Q 20.015625 56 32.328125 56 
Q 43.359375 56 49.78125 48.890625 
Q 56.203125 41.796875 56.203125 29.59375 
z
M 47.21875 32.234375 
Q 47.125 39.59375 43.09375 43.984375 
Q 39.0625 48.390625 32.421875 48.390625 
Q 24.90625 48.390625 20.390625 44.140625 
Q 15.875 39.890625 15.1875 32.171875 
z
" id="DejaVuSans-65"/>
      <path id="DejaVuSans-20"/>
      <path d="M 31 75.875 
Q 24.46875 64.65625 21.28125 53.65625 
Q 18.109375 42.671875 18.109375 31.390625 
Q 18.109375 20.125 21.3125 9.0625 
Q 24.515625 -2 31 -13.1875 
L 23.1875 -13.1875 
Q 15.875 -1.703125 12.234375 9.375 
Q 8.59375 20.453125 8.59375 31.390625 
Q 8.59375 42.28125 12.203125 53.3125 
Q 15.828125 64.359375 23.1875 75.875 
z
" id="DejaVuSans-28"/>
      <path d="M 52 44.1875 
Q 55.375 50.25 60.0625 53.125 
Q 64.75 56 71.09375 56 
Q 79.640625 56 84.28125 50.015625 
Q 88.921875 44.046875 88.921875 33.015625 
L 88.921875 0 
L 79.890625 0 
L 79.890625 32.71875 
Q 79.890625 40.578125 77.09375 44.375 
Q 74.3125 48.1875 68.609375 48.1875 
Q 61.625 48.1875 57.5625 43.546875 
Q 53.515625 38.921875 53.515625 30.90625 
L 53.515625 0 
L 44.484375 0 
L 44.484375 32.71875 
Q 44.484375 40.625 41.703125 44.40625 
Q 38.921875 48.1875 33.109375 48.1875 
Q 26.21875 48.1875 22.15625 43.53125 
Q 18.109375 38.875 18.109375 30.90625 
L 18.109375 0 
L 9.078125 0 
L 9.078125 54.6875 
L 18.109375 54.6875 
L 18.109375 46.1875 
Q 21.1875 51.21875 25.484375 53.609375 
Q 29.78125 56 35.6875 56 
Q 41.65625 56 45.828125 52.96875 
Q 50 49.953125 52 44.1875 
z
" id="DejaVuSans-6d"/>
      <path d="M 25.59375 54.6875 
Q 30.078125 53.8125 32.546875 51.140625 
Q 35.015625 48.484375 35.015625 44.484375 
Q 35.015625 38.421875 30.375 35.15625 
Q 25.734375 31.890625 17.09375 31.890625 
Q 14.3125 31.890625 11.25 32.390625 
Q 8.203125 32.90625 4.78125 33.890625 
L 4.78125 39.796875 
Q 7.328125 38.484375 10.234375 37.84375 
Q 13.140625 37.203125 16.40625 37.203125 
Q 21.734375 37.203125 24.65625 39.125 
Q 27.59375 41.0625 27.59375 44.484375 
Q 27.59375 48.09375 24.875 49.953125 
Q 22.171875 51.8125 16.890625 51.8125 
L 12.703125 51.8125 
L 12.703125 57.078125 
L 17.28125 57.078125 
Q 21.875 57.078125 24.234375 58.609375 
Q 26.609375 60.15625 26.609375 63.09375 
Q 26.609375 65.921875 24.171875 67.40625 
Q 21.734375 68.890625 17.09375 68.890625 
Q 15.140625 68.890625 12.640625 68.453125 
Q 10.15625 68.015625 6.203125 66.890625 
L 6.203125 72.515625 
Q 9.765625 73.34375 12.890625 73.78125 
Q 16.015625 74.21875 18.703125 74.21875 
Q 25.734375 74.21875 29.859375 71.328125 
Q 33.984375 68.453125 33.984375 63.625 
Q 33.984375 60.25 31.78125 57.90625 
Q 29.59375 55.5625 25.59375 54.6875 
z
" id="DejaVuSans-b3"/>
      <path d="M 6.6875 52.484375 
L 46.09375 52.484375 
L 46.09375 47.859375 
L 6.6875 47.859375 
z
" id="DejaVuSans-207b"/>
      <path d="M 7.625 37.984375 
L 17.578125 37.984375 
L 17.578125 67.828125 
L 6.6875 65.828125 
L 6.6875 71.484375 
L 17.921875 73.390625 
L 24.609375 73.390625 
L 24.609375 37.984375 
L 34.625 37.984375 
L 34.625 32.625 
L 7.625 32.625 
z
" id="DejaVuSans-b9"/>
      <path d="M 8.015625 75.875 
L 15.828125 75.875 
Q 23.140625 64.359375 26.78125 53.3125 
Q 30.421875 42.28125 30.421875 31.390625 
Q 30.421875 20.453125 26.78125 9.375 
Q 23.140625 -1.703125 15.828125 -13.1875 
L 8.015625 -13.1875 
Q 14.5 -2 17.703125 9.0625 
Q 20.90625 20.125 20.90625 31.390625 
Q 20.90625 42.671875 17.703125 53.65625 
Q 14.5 64.65625 8.015625 75.875 
z
" id="DejaVuSans-29"/>
     </defs>
     <g transform="translate(148.093125 281.656292)scale(0.18 -0.18)">
      <use xlink:href="#DejaVuSans-44"/>
      <use x="77.001953" xlink:href="#DejaVuSans-69"/>
      <use x="104.785156" xlink:href="#DejaVuSans-73"/>
      <use x="156.884766" xlink:href="#DejaVuSans-63"/>
      <use x="211.865234" xlink:href="#DejaVuSans-68"/>
      <use x="275.244141" xlink:href="#DejaVuSans-61"/>
      <use x="336.523438" xlink:href="#DejaVuSans-72"/>
      <use x="377.621094" xlink:href="#DejaVuSans-67"/>
      <use x="441.097656" xlink:href="#DejaVuSans-65"/>
      <use x="502.621094" xlink:href="#DejaVuSans-20"/>
      <use x="534.408203" xlink:href="#DejaVuSans-28"/>
      <use x="573.421875" xlink:href="#DejaVuSans-6d"/>
      <use x="670.833984" xlink:href="#DejaVuSans-b3"/>
      <use x="710.921875" xlink:href="#DejaVuSans-20"/>
      <use x="742.708984" xlink:href="#DejaVuSans-73"/>
      <use x="794.808594" xlink:href="#DejaVuSans-207b"/>
      <use x="847.591797" xlink:href="#DejaVuSans-b9"/>
      <use x="887.679688" xlink:href="#DejaVuSans-29"/>
     </g>
    </g>
   </g>
   <g id="matplotlib.axis_2">
    <g id="ytick_1">
     <g id="line2d_7">
      <defs>
       <path d="M 0 0 
L 3.5 0 
" id="m6a8957a22c" style="stroke:#000000;stroke-width:0.8;"/>
      </defs>
      <g>
       <use style="opacity:0.1;stroke:#000000;stroke-width:0.8;" x="33.824646" xlink:href="#m6a8957a22c" y="241.926213"/>
      </g>
     </g>
     <g id="text_7">
      <!-- 0 -->
      <g transform="translate(22.689646 246.485275)scale(0.12 -0.12)">
       <use xlink:href="#DejaVuSans-30"/>
      </g>
     </g>
    </g>
    <g id="ytick_2">
     <g id="line2d_8">
      <g>
       <use style="opacity:0.1;stroke:#000000;stroke-width:0.8;" x="33.824646" xlink:href="#m6a8957a22c" y="168.863594"/>
      </g>
     </g>
     <g id="text_8">
      <!-- 1 -->
      <g transform="translate(22.689646 173.422656)scale(0.12 -0.12)">
       <use xlink:href="#DejaVuSans-31"/>
      </g>
     </g>
    </g>
    <g id="ytick_3">
     <g id="line2d_9">
      <g>
       <use style="opacity:0.1;stroke:#000000;stroke-width:0.8;" x="33.824646" xlink:href="#m6a8957a22c" y="95.800975"/>
      </g>
     </g>
     <g id="text_9">
      <!-- 2 -->
      <defs>
       <path d="M 19.1875 8.296875 
L 53.609375 8.296875 
L 53.609375 0 
L 7.328125 0 
L 7.328125 8.296875 
Q 12.9375 14.109375 22.625 23.890625 
Q 32.328125 33.6875 34.8125 36.53125 
Q 39.546875 41.84375 41.421875 45.53125 
Q 43.3125 49.21875 43.3125 52.78125 
Q 43.3125 58.59375 39.234375 62.25 
Q 35.15625 65.921875 28.609375 65.921875 
Q 23.96875 65.921875 18.8125 64.3125 
Q 13.671875 62.703125 7.8125 59.421875 
L 7.8125 69.390625 
Q 13.765625 71.78125 18.9375 73 
Q 24.125 74.21875 28.421875 74.21875 
Q 39.75 74.21875 46.484375 68.546875 
Q 53.21875 62.890625 53.21875 53.421875 
Q 53.21875 48.921875 51.53125 44.890625 
Q 49.859375 40.875 45.40625 35.40625 
Q 44.1875 33.984375 37.640625 27.21875 
Q 31.109375 20.453125 19.1875 8.296875 
z
" id="DejaVuSans-32"/>
      </defs>
      <g transform="translate(22.689646 100.360037)scale(0.12 -0.12)">
       <use xlink:href="#DejaVuSans-32"/>
      </g>
     </g>
    </g>
    <g id="ytick_4">
     <g id="line2d_10">
      <g>
       <use style="opacity:0.1;stroke:#000000;stroke-width:0.8;" x="33.824646" xlink:href="#m6a8957a22c" y="22.738356"/>
      </g>
     </g>
     <g id="text_10">
      <!-- 3 -->
      <defs>
       <path d="M 40.578125 39.3125 
Q 47.65625 37.796875 51.625 33 
Q 55.609375 28.21875 55.609375 21.1875 
Q 55.609375 10.40625 48.1875 4.484375 
Q 40.765625 -1.421875 27.09375 -1.421875 
Q 22.515625 -1.421875 17.65625 -0.515625 
Q 12.796875 0.390625 7.625 2.203125 
L 7.625 11.71875 
Q 11.71875 9.328125 16.59375 8.109375 
Q 21.484375 6.890625 26.8125 6.890625 
Q 36.078125 6.890625 40.9375 10.546875 
Q 45.796875 14.203125 45.796875 21.1875 
Q 45.796875 27.640625 41.28125 31.265625 
Q 36.765625 34.90625 28.71875 34.90625 
L 20.21875 34.90625 
L 20.21875 43.015625 
L 29.109375 43.015625 
Q 36.375 43.015625 40.234375 45.921875 
Q 44.09375 48.828125 44.09375 54.296875 
Q 44.09375 59.90625 40.109375 62.90625 
Q 36.140625 65.921875 28.71875 65.921875 
Q 24.65625 65.921875 20.015625 65.03125 
Q 15.375 64.15625 9.8125 62.3125 
L 9.8125 71.09375 
Q 15.4375 72.65625 20.34375 73.4375 
Q 25.25 74.21875 29.59375 74.21875 
Q 40.828125 74.21875 47.359375 69.109375 
Q 53.90625 64.015625 53.90625 55.328125 
Q 53.90625 49.265625 50.4375 45.09375 
Q 46.96875 40.921875 40.578125 39.3125 
z
" id="DejaVuSans-33"/>
      </defs>
      <g transform="translate(22.689646 27.297418)scale(0.12 -0.12)">
       <use xlink:href="#DejaVuSans-33"/>
      </g>
     </g>
    </g>
    <g id="text_11">
     <!-- Stage (m) -->
     <defs>
      <path d="M 53.515625 70.515625 
L 53.515625 60.890625 
Q 47.90625 63.578125 42.921875 64.890625 
Q 37.9375 66.21875 33.296875 66.21875 
Q 25.25 66.21875 20.875 63.09375 
Q 16.5 59.96875 16.5 54.203125 
Q 16.5 49.359375 19.40625 46.890625 
Q 22.3125 44.4375 30.421875 42.921875 
L 36.375 41.703125 
Q 47.40625 39.59375 52.65625 34.296875 
Q 57.90625 29 57.90625 20.125 
Q 57.90625 9.515625 50.796875 4.046875 
Q 43.703125 -1.421875 29.984375 -1.421875 
Q 24.8125 -1.421875 18.96875 -0.25 
Q 13.140625 0.921875 6.890625 3.21875 
L 6.890625 13.375 
Q 12.890625 10.015625 18.65625 8.296875 
Q 24.421875 6.59375 29.984375 6.59375 
Q 38.421875 6.59375 43.015625 9.90625 
Q 47.609375 13.234375 47.609375 19.390625 
Q 47.609375 24.75 44.3125 27.78125 
Q 41.015625 30.8125 33.5 32.328125 
L 27.484375 33.5 
Q 16.453125 35.6875 11.515625 40.375 
Q 6.59375 45.0625 6.59375 53.421875 
Q 6.59375 63.09375 13.40625 68.65625 
Q 20.21875 74.21875 32.171875 74.21875 
Q 37.3125 74.21875 42.625 73.28125 
Q 47.953125 72.359375 53.515625 70.515625 
z
" id="DejaVuSans-53"/>
      <path d="M 18.3125 70.21875 
L 18.3125 54.6875 
L 36.8125 54.6875 
L 36.8125 47.703125 
L 18.3125 47.703125 
L 18.3125 18.015625 
Q 18.3125 11.328125 20.140625 9.421875 
Q 21.96875 7.515625 27.59375 7.515625 
L 36.8125 7.515625 
L 36.8125 0 
L 27.59375 0 
Q 17.1875 0 13.234375 3.875 
Q 9.28125 7.765625 9.28125 18.015625 
L 9.28125 47.703125 
L 2.6875 47.703125 
L 2.6875 54.6875 
L 9.28125 54.6875 
L 9.28125 70.21875 
z
" id="DejaVuSans-74"/>
     </defs>
     <g transform="translate(14.946208 170.508281)rotate(-90)scale(0.18 -0.18)">
      <use xlink:href="#DejaVuSans-53"/>
      <use x="63.476562" xlink:href="#DejaVuSans-74"/>
      <use x="102.685547" xlink:href="#DejaVuSans-61"/>
      <use x="163.964844" xlink:href="#DejaVuSans-67"/>
      <use x="227.441406" xlink:href="#DejaVuSans-65"/>
      <use x="288.964844" xlink:href="#DejaVuSans-20"/>
      <use x="320.751953" xlink:href="#DejaVuSans-28"/>
      <use x="359.765625" xlink:href="#DejaVuSans-6d"/>
      <use x="457.177734" xlink:href="#DejaVuSans-29"/>
     </g>
    </g>
   </g>
   <g id="line2d_11">
    <path clip-path="url(#pc32ab5e518)" d="M 33.824646 241.926213 
L 429.165354 241.926213 
" style="fill:none;stroke:#000000;stroke-linecap:square;stroke-width:0.75;"/>
   </g>
   <g id="line2d_12">
    <path clip-path="url(#pc32ab5e518)" d="M 231.495 248.865354 
L 231.495 2.834646 
" style="fill:none;stroke:#000000;stroke-linecap:square;stroke-width:0.75;"/>
   </g>
  </g>
 </g>
 <defs>
  <clipPath id="pc32ab5e518">
   <rect height="246.030709" width="395.340709" x="33.824646" y="2.834646"/>
  </clipPath>
 </defs>
</svg>
