<?xml version="1.0" encoding="utf-8"?>
<svg xmlns="http://www.w3.org/2000/svg" xmlns:xlink="http://www.w3.org/1999/xlink" width="600" height="400" viewBox="0 0 600 400">
<defs>
  <clipPath id="clip00">
    <rect x="0" y="0" width="600" height="400"/>
  </clipPath>
</defs>
<polygon clip-path="url(#clip00)" points="
0,400 600,400 600,0 0,0 
  " fill="#ffffff" fill-opacity="1"/>
<defs>
  <clipPath id="clip01">
    <rect x="120" y="0" width="421" height="400"/>
  </clipPath>
</defs>
<polygon clip-path="url(#clip00)" points="
62.5219,357.163 580.315,357.163 580.315,15.748 62.5219,15.748 
  " fill="#ffffff" fill-opacity="1"/>
<defs>
  <clipPath id="clip02">
    <rect x="62" y="15" width="518" height="342"/>
  </clipPath>
</defs>
<g clip-path="url(#clip00)">
<text style="fill:#00002d; fill-opacity:1; font-family:Arial; font-size:12; text-anchor:start;" transform="rotate(0, 51.2806, 332.777)" x="51.2806" y="332.777">0</text>
</g>
<g clip-path="url(#clip00)">
<text style="fill:#00002d; fill-opacity:1; font-family:Arial; font-size:12; text-anchor:start;" transform="rotate(0, 51.2806, 222.726)" x="51.2806" y="222.726">1</text>
</g>
<g clip-path="url(#clip00)">
<text style="fill:#00002d; fill-opacity:1; font-family:Arial; font-size:12; text-anchor:start;" transform="rotate(0, 51.2806, 112.676)" x="51.2806" y="112.676">2</text>
</g>
<polyline clip-path="url(#clip00)" style="stroke:#00002d; stroke-width:0.8; stroke-opacity:1; fill:none" points="
  62.5219,357.163 62.5219,329.364 71.8252,329.364 62.5219,329.364 62.5219,219.314 71.8252,219.314 62.5219,219.314 62.5219,109.263 71.8252,109.263 62.5219,109.263 
  62.5219,15.748 
  "/>
<g clip-path="url(#clip00)">
<text style="fill:#00002d; fill-opacity:1; font-family:Arial; font-size:12; text-anchor:start;" transform="rotate(0, 177.406, 372.528)" x="177.406" y="372.528">-</text>
</g>
<g clip-path="url(#clip00)">
<text style="fill:#00002d; fill-opacity:1; font-family:Arial; font-size:12; text-anchor:start;" transform="rotate(0, 184.327, 372.528)" x="184.327" y="372.528">5</text>
</g>
<g clip-path="url(#clip00)">
<text style="fill:#00002d; fill-opacity:1; font-family:Arial; font-size:12; text-anchor:start;" transform="rotate(0, 355.146, 372.528)" x="355.146" y="372.528">0</text>
</g>
<g clip-path="url(#clip00)">
<text style="fill:#00002d; fill-opacity:1; font-family:Arial; font-size:12; text-anchor:start;" transform="rotate(0, 529.427, 372.528)" x="529.427" y="372.528">5</text>
</g>
<polyline clip-path="url(#clip00)" style="stroke:#00002d; stroke-width:0.8; stroke-opacity:1; fill:none" points="
  62.5219,357.163 184.161,357.163 184.161,347.86 184.161,357.163 358.441,357.163 358.441,347.86 358.441,357.163 532.721,357.163 532.721,347.86 532.721,357.163 
  580.315,357.163 
  "/>
<polyline clip-path="url(#clip00)" style="stroke:#00002d; stroke-width:0.8; stroke-opacity:1; fill:none" points="
  580.315,357.163 580.315,329.364 571.012,329.364 580.315,329.364 580.315,219.314 571.012,219.314 580.315,219.314 580.315,109.263 571.012,109.263 580.315,109.263 
  580.315,15.748 
  "/>
<polyline clip-path="url(#clip00)" style="stroke:#00002d; stroke-width:0.8; stroke-opacity:1; fill:none" points="
  62.5219,15.748 184.161,15.748 184.161,25.0513 184.161,15.748 358.441,15.748 358.441,25.0513 358.441,15.748 532.721,15.748 532.721,25.0513 532.721,15.748 
  580.315,15.748 
  "/>
<g clip-path="url(#clip00)">
<text style="fill:#00002d; fill-opacity:1; font-family:Arial; font-size:16; text-anchor:middle;" transform="rotate(0, 321.418, 397.6)" x="321.418" y="397.6">Discharge (m3/s)</text>
</g>
<g clip-path="url(#clip00)">
<text style="fill:#00002d; fill-opacity:1; font-family:Arial; font-size:16; text-anchor:middle;" transform="rotate(-90, 14.4, 186.456)" x="14.4" y="186.456">Stage (m)</text>
</g>
<polyline clip-path="url(#clip02)" style="stroke:#0099ff; stroke-width:0.8; stroke-opacity:1; fill:none" points="
  356.516,335.493 356.516,329.156 356.516,321.48 356.516,314.151 356.516,307.256 356.516,298.938 362.463,290.839 360.67,282.962 370.743,274.632 366.361,265.01 
  364.51,254.835 368.149,244.01 367.644,232.504 372.606,221.068 377.539,208.884 379.314,196.716 381.339,184.566 382.006,172.091 385.911,160.927 386.328,149.219 
  392.605,138.263 394.595,128.203 396.225,119.338 396.749,111.043 395.519,103.249 398.752,97.1721 386.315,93.4044 379.05,91.1006 382.976,88.8552 373.484,87.1402 
  358.068,88.1456 333.564,91.231 329.755,94.7673 325.606,99.1996 327.633,104.905 332.111,110.038 328.149,115.069 320.29,122.065 325.707,128.752 325.672,134.769 
  324.948,141.684 323.724,151.023 335.018,158.738 332.402,167.507 340.442,175.926 335.173,184.129 335.431,193.514 338.958,201.149 338.96,208.864 341.307,215.655 
  326.682,220.846 328.421,228.127 329.98,237.78 340.36,247.172 339.739,255.598 341.82,264.106 340.693,271.962 346.058,279.566 345.02,286.338 344.984,293.462 
  356.516,300.58 356.516,307.046 356.516,313.272 356.516,319.186 356.516,324.768 356.516,329.473 356.516,333.523 356.516,334.508 356.516,333.742 356.516,333.413 
  356.516,333.413 356.516,333.085 356.516,332.976 356.516,332.757 356.516,332.428 356.516,331.991 356.516,331.662 356.516,330.021 356.516,323.454 356.516,315.355 
  356.516,307.364 356.516,299.266 360.796,290.968 360.176,282.139 360.704,273.328 365.658,265.024 370.794,255.929 372.568,245.419 370.283,234.794 372.328,224.628 
  374.164,213.461 369.712,202.516 377.876,191.791 379.595,181.174 374.282,170.558 384.086,160.599 385.56,150.858 374.575,141.774 375.826,134.77 383.465,127.874 
  380.283,121.414 379.804,117.049 374.288,114.084 369.315,111.673 357.963,111.772 357.626,114.084 340.929,116.218 330.781,120.96 330.131,126.233 335.05,130.065 
  324.201,136.958 340.674,143.306 335.522,148.337 328.528,156.121 343.495,161.912 332.732,168.037 338.511,176.236 338.855,183.363 338.942,190.86 337.678,198.666 
  344.091,205.8 338.189,213.463 342.22,221.012 343.133,228.455 342.15,236.335 349.384,243.777 349.83,250.782 343.751,258.553 350.879,266.104 353.097,273.109 
  346.828,280.332 351.871,287.556 363.666,294.013 356.516,300.47 356.516,306.928 356.516,313.166 356.516,318.748 356.516,324.001 356.516,328.926 356.516,332.866 
  356.516,333.851 356.516,334.18 356.516,335.602 356.516,337.682 356.516,338.886 356.516,338.557 356.516,338.995 356.516,339.105 356.516,338.667 356.516,336.04 
  356.516,327.722 356.516,319.623 356.516,312.181 356.516,304.52 363.91,295.983 363.9,287.775 363.36,278.8 364.64,269.607 369.981,260.304 368.137,250.016 
  368.583,238.962 375.016,227.798 372.696,216.307 377.391,204.596 378.29,192.776 383.619,181.065 382.836,169.464 394.482,157.862 385.74,147.356 398.251,137.399 
  397.179,127.427 392.879,119.338 393.091,112.118 395.461,104.795 390.65,98.4335 395.27,93.5639 388.388,89.6972 383.485,86.3945 369.172,84.8606 374.666,84.7534 
  345.907,86.1756 332.672,90.0061 318.286,95.369 310.062,101.936 314.357,109.269 323.317,116.601 329.31,123.606 335.359,129.735 335.479,136.192 332.918,142.759 
  336.552,150.42 338.317,158.081 330.493,166.18 336.343,175.155 338.042,183.144 335.977,191.353 341.864,199.78 346.594,207.77 343.483,216.635 343.669,224.406 
  342.987,231.848 347.394,240.056 348.894,248.155 346.925,256.145 346.615,263.806 346.039,271.467 349.143,279.019 347.28,286.571 352.922,293.794 356.516,300.799 
  356.516,307.475 356.516,313.713 356.516,319.623 356.516,325.096 356.516,330.024 356.516,334.389 356.516,334.18 356.516,333.417 356.516,332.442 356.516,331.443 
  356.516,331.171 356.516,330.916 356.516,330.787 356.516,330.676 356.516,330.568 356.516,330.458 356.516,329.473 356.516,322.907 356.516,315.793 356.516,308.241 
  356.516,300.142 363.797,292.371 362.796,284.163 364.874,275.626 365.104,266.433 366.358,257.239 367.379,247.608 370.406,236.554 370.607,225.828 373.335,215.431 
  377.808,203.611 375.643,192.228 379.492,181.941 378.527,171.434 387.595,160.599 382.646,151.296 385.147,143.087 389.645,134.113 388.868,126.342 376.126,121.417 
  378.774,116.383 375.415,112.661 359.031,111.676 368.156,110.144 346.019,110.801 343.519,114.522 344.864,117.696 337.621,122.402 336.362,128.203 346.593,132.581 
  338.365,138.272 334.621,144.072 349.641,148.779 337.216,154.36 340.189,162.131 343.605,168.15 343.966,174.17 340.718,182.378 339.521,189.711 344.293,197.372 
  344.987,204.815 342.164,212.695 348.868,220.466 355.441,228.127 344.253,234.912 349.686,242.137 350.443,249.906 346.055,256.673 351.088,263.86 357.72,271.029 
  355.915,277.144 355.088,283.722 362.011,290.401 356.516,296.758 356.516,302.656 356.516,308.569 356.516,314.48 356.516,319.623 356.516,324.001 356.516,328.27 
  356.516,332.1 356.516,333.413 356.516,333.195 356.516,332.757 356.516,332.428 356.516,332.538 356.516,328.926 356.516,323.126 356.516,317.653 356.516,311.415 
  356.516,304.739 356.516,298.175 363.705,291.158 364.111,283.506 361.693,274.973 367.993,266.337 365.205,255.816 369.318,245.803 373.269,235.151 371.458,224.187 
  372.497,213.897 379.326,202.407 380.297,191.462 391.73,180.08 380.059,168.26 389.15,155.892 389.366,146.152 390.341,135.973 399.943,125.357 390.347,118.028 
  399.146,110.025 392.465,102.264 397.58,96.7953 400.957,90.02 400.57,83.8772 394.893,80.1027 389.057,77.4377 386.932,75.6688 378.889,74.7016 342.643,75.7249 
  324.813,79.0616 304.907,84.8761 301.13,90.7758 311.563,97.6674 315.084,103.678 321.91,109.929 333.447,115.945 334.028,121.526 330.818,127.657 331.05,135.098 
  328.422,142.849 334.249,151.131 332.842,159.723 332.572,167.589 337.625,175.808 345.556,184.567 342.307,192.894 343.479,201.747 346.487,210.615 343.544,219.152 
  343.415,227.798 344.37,236.335 343.676,243.996 346.717,252.314 349.254,260.194 345.93,267.637 356.099,275.407 349.246,282.959 352.642,290.295 356.516,297.397 
  356.516,304.191 356.516,310.762 356.516,316.463 356.516,321.046 356.516,326.027 356.516,330.587 356.516,332.319 356.516,331.88 356.516,331.772 356.516,331.553 
  356.516,331.334 356.516,331.225 356.516,331.225 356.516,331.115 356.516,329.802 356.516,324.111 356.516,317.106 356.516,310.211 356.516,302.878 359.741,295.655 
  363.571,287.665 361.783,280.004 365.363,272.014 365.009,262.821 370.992,253.518 365.044,243.449 370.387,232.833 370.584,222.435 369.462,211.272 376.052,199.999 
  374.398,189.602 379.6,179.095 381.487,168.479 381.8,158.3 379.57,149.545 378.372,140.899 381.22,132.143 377.299,125.354 384.198,119.128 380.891,114.084 
  371.566,110.14 375.775,106.849 359.443,106.642 367.998,106.348 357.538,105.363 328.957,109.05 333.267,113.306 331.12,117.145 324.445,122.949 329.301,128.978 
  325.703,135.861 336.432,141.555 336.915,147.028 334.564,153.922 338.334,159.723 331.009,167.056 338.546,174.717 335.742,181.174 335.647,190.04 339.499,197.482 
  337.442,204.596 336.765,212.476 340.539,220.247 342.616,227.47 340.189,234.365 344.813,242.136 346.515,249.469 345.454,256.364 352.891,263.806 351.186,271.248 
  347.165,277.925 351.245,285.038 354.273,292.043 356.516,298.394 356.516,304.511 356.516,310.539 356.516,316.343 356.516,321.388 356.516,325.314 356.516,329.529 
  356.516,333.542 356.516,336.15 356.516,335.929 356.516,335.493 356.516,331.881 356.516,326.85 356.516,321.146 356.516,315.027 356.516,308.901 356.516,302.126 
  362.984,294.779 360.623,287.064 363.904,279.586 364.668,271.248 364.305,262.71 362.927,253.409 364.719,243.668 368.68,233.489 370.837,222.654 371.545,211.381 
  378.815,199.671 384.235,187.413 379.207,175.045 385.585,163.006 389.078,150.749 395.21,139.366 392.975,128.203 397.71,117.915 400.877,108.831 398.582,100.732 
  397.089,93.5084 412.85,86.7228 409.934,81.0316 422.214,76.216 416.839,72.276 422.321,69.3209 414.692,67.132 401.712,65.9281 391.285,65.4904 361.055,66.147 
  316.392,68.117 300.547,71.401 278.216,76.4333 273.595,82.8922 281.01,90.2444 285.321,98.5984 308.535,107.299 314.218,116.178 329.165,124.923 321.498,133.237 
  321.904,141.874 334.656,150.205 327.387,158.738 329.517,167.931 329.916,177.125 333.209,186.1 339.799,195.184 339.42,204.486 343.927,213.351 345.75,221.888 
  344.408,230.206 343.613,238.524 344.042,246.951 348.369,255.379 349.229,263.478 345.465,271.358 351.09,279.238 349.061,286.79 353.558,294.341 356.516,301.674 
  356.516,308.35 356.516,314.592 356.516,320.599 356.516,326.081 356.516,331.228 356.516,334.741 356.516,333.195 356.516,332.593 356.516,332.338 356.516,332.1 
  356.516,331.88 356.516,331.663 356.516,331.443 356.516,331.224 356.516,331.006 356.516,330.896 356.516,327.394 356.516,319.733 356.516,311.415 356.516,302.769 
  360.378,294.34 363.141,285.476 365.701,276.302 365.038,266.926 372.425,257.568 372.554,247.622 368.694,236.886 373.201,225.719 376.811,214.218 378.848,202.629 
  377.149,190.806 377.866,179.423 382.483,168.041 382.367,157.753 388.019,147.903 387.79,138.162 387.266,129.735 378.301,122.293 383.393,115.616 377.947,110.691 
  371.834,107.409 373.654,104.014 370.065,102.374 358.451,103.049 352.673,104.072 345.95,107.189 333.661,111.999 335.728,117.206 330.172,122.293 336.729,125.553 
  326.833,131.486 332.155,137.943 338.254,142.221 330.902,149.211 339.207,156.987 331.42,163.467 328.979,172.355 332.917,180.189 339.319,188.963 335.974,197.061 
  339.006,203.392 338.991,210.99 343.211,219.065 342.081,226.594 342.705,233.925 339.602,242.027 349.558,250.235 349.702,257.896 349.149,265.229 349.986,272.343 
  350.306,279.894 348.895,287.01 351.988,293.575 356.516,300.341 356.516,306.763 356.516,312.838 356.516,317.968 356.516,322.903 356.516,328.051 356.516,332.875 
  356.516,337.35 356.516,339.761 356.516,341.184 356.516,342.497 356.516,342.497 356.516,339.656 356.516,333.403 356.516,325.862 356.516,318.223 356.516,310.172 
  356.516,301.565 361.99,293.516 361.816,285.991 364.763,277.049 364.444,267.502 364.064,257.13 371.491,245.747 368.102,234.374 373.245,222.213 379.07,209.74 
  379.663,196.825 383.716,183.035 387.803,169.683 393.386,156.33 398.246,143.525 398.391,131.158 406.554,119.338 416.154,109.376 409.176,99.8563 411.179,92.105 
  418.128,84.4799 431.899,77.7483 435.433,72.7276 449.715,68.6678 449.793,64.5053 450.689,61.541 443.304,59.693 431.652,58.1575 419.889,57.1722 395.97,57.0631 
  351.034,58.1575 296.999,60.6747 258.936,64.7242 251.569,70.3059 242.535,76.8727 250.269,84.9717 248.44,94.4935 274.918,105.11 294.756,114.85 301.668,124.591 
  313.316,134.66 331.517,144.619 329.614,154.36 334.052,163.885 330.627,173.833 338.732,183.254 340.194,192.666 336.079,201.883 344.93,210.068 344.047,219.204 
  340.777,229.008 345.56,238.524 348.769,247.331 342.646,256.018 345.074,264.572 350.424,272.759 350.136,280.942 355.235,288.869 354.014,295.422 356.516,302.742 
  356.516,310.539 356.516,317.392 356.516,323.115 356.516,327.832 356.516,332.505 356.516,334.582 356.516,334.289 356.516,334.52 356.516,334.731 356.516,334.289 
  356.516,333.951 356.516,333.855 356.516,333.851 356.516,333.742 356.516,333.523 356.516,333.195 356.516,331.991 356.516,324.986 356.516,315.464 356.516,305.614 
  362.931,295.983 361.412,286.68 361.037,276.611 365.016,266.214 367.445,255.598 368.782,244.65 371.947,232.842 372.84,220.465 375.922,207.328 378.015,195.17 
  390.229,183.254 384.775,170.393 379.821,158.171 386.517,146.371 393.468,134.443 391.375,125.028 395.929,116.273 394.727,108.065 385.767,102.045 395.862,96.0257 
  377.972,92.1951 383.634,88.9117 378.693,86.9417 358.521,87.5984 342.843,89.3495 336.879,92.9612 328.447,96.9013 313.71,102.045 319.148,108.174 329.996,112.661 
  321.033,119.009 324.924,126.999 334.87,132.471 330.643,139.585 326.358,148.012 329.432,156.002 330.868,164.21 326.023,173.185 329.509,181.612 336.993,190.039 
  345.283,198.576 343.507,207.664 339.443,215.641 345.959,223.968 339.261,232.836 347.566,240.836 344.781,248.702 348.702,256.638 350.768,265.248 351.23,273.109 
  346.959,280.878 354.958,288.322 358.861,295.545 356.516,302.659 356.516,309.773 356.516,316.449 356.516,322.688 356.516,328.488 356.516,333.632 356.516,338.339 
  356.516,340.09 356.516,340.199 356.516,339.871 356.516,340.09 356.516,340.527 356.516,339.214 356.516,340.418 356.516,336.806 356.516,328.488 356.516,319.842 
  356.516,311.196 356.516,302.221 365.22,292.59 360.836,282.959 362.731,272.781 367.368,261.834 370.079,249.906 374.891,237.668 373.993,224.57 378.078,210.615 
  384.876,197.058 388.355,182.82 387.934,168.041 395.248,153.913 400.285,139.479 400.715,126.233 408.558,113.974 415.15,102.812 421.897,92.9612 429.032,84.5306 
  437.776,76.882 444.514,70.1965 466.971,64.7207 461.065,60.8797 470.265,58.1575 468.191,55.3658 469.338,53.1036 464.452,51.2624 437.463,50.279 413.523,50.0579 
  385.187,50.4963 321.119,52.4663 256.634,56.5158 219.6,62.0975 192.018,69.102 187.509,76.9821 189.913,86.3945 204.7,97.5579 239.353,109.925 269.855,122.074 
  285.706,133.675 308.791,144.51 316.26,155.455 327.602,165.743 329.056,175.921 338.172,186.537 340.267,196.716 338.863,206.675 344.54,216.416 338.674,225.828 
  341.78,235.241 342.87,244.544 343.163,253.518 345.325,262.493 346.477,271.358 347.767,280.004 347.413,288.431 356.516,296.421 356.516,304.082 356.516,311.415 
  356.516,318.2 356.516,324.439 356.516,329.802 356.516,333.413 356.516,330.787 356.516,329.473 356.516,328.598 356.516,328.051 356.516,327.394 356.516,326.737 
  356.516,326.187 356.516,325.762 356.516,325.424 356.516,324.983 356.516,325.082 356.516,325.533 356.516,325.15 356.516,324.967 356.516,324.767 356.516,323.456 
  356.516,311.85 356.516,299.157 364.234,287.247 364.46,275.025 366.091,263.478 371.282,251.781 373.906,238.856 378.667,224.953 378.027,211.263 383.587,197.266 
  385.332,183.144 385.056,168.697 389.995,154.47 391.135,141.665 399.771,129.407 398.495,118.462 394.795,108.721 403.518,99.9657 398.376,93.0707 397.16,87.0511 
  395.997,82.5639 399.356,78.7333 379.124,76.9821 376.394,76.4349 352.118,77.201 319.874,80.4844 310.61,85.4095 302.709,91.3195 305.898,98.4335 314.127,107.08 
  320.687,115.507 322.798,124.044 329.306,132.471 329.919,140.572 325.859,149.764 327.201,159.375 335.34,168.095 327.165,178.219 337.046,186.742 333.968,195.618 
  336.468,205.471 340.419,214.565 338.272,223.746 343.611,233.052 344.68,242.245 343.745,251.11 345.514,259.975 346.934,268.731 349.256,277.158 353.155,285.805 
  351.405,294.122 356.516,301.893 356.516,309.445 356.516,316.559 356.516,323.126 356.516,329.145 356.516,334.289 356.516,335.821 356.516,337.135 356.516,337.245 
  356.516,337.461 356.516,338.01 356.516,338.686 356.516,339.598 356.516,342.06 356.516,343.496 356.516,344.909 356.516,344.358 356.516,344.458 356.516,343.924 
  356.516,343.592 356.516,331.987 356.516,316.568 356.516,302.221 367.285,288.537 369.953,275.831 369.303,263.587 371.156,249.957 379.784,234.683 375.428,219.48 
  382.159,202.843 390.307,185.866 394.165,169.683 401.668,152.991 404.952,137.486 402.361,122.73 418.36,109.161 418.76,97.0101 421.07,87.0511 442.796,77.7483 
  448.136,69.6493 472.756,63.3014 477.402,58.048 504.561,53.6702 507.151,50.1679 499.014,47.3223 493.98,44.9148 486.024,42.8351 484.043,41.409 442.6,40.546 
  407.591,40.8651 350.21,42.7221 263.425,46.6518 212.755,52.2474 192.23,58.2115 170.864,65.6895 157.936,74.5743 155.362,85.0866 173.475,97.7654 206.485,112.114 
  241.791,127.022 278.899,139.436 299.681,150.858 313.277,163.514 327.525,175.178 329.403,186.209 335.645,196.924 335.359,207.226 335.094,217.62 339.857,227.798 
  339.875,237.649 343.876,247.28 345.528,256.583 343.694,265.885 342.116,274.86 347.639,283.506 349.168,291.934 356.516,300.033 356.516,307.475 356.516,314.37 
  356.516,320.718 356.516,326.187 356.516,329.373 356.516,327.066 356.516,325.639 356.516,325.082 356.516,325.096 356.516,324.602 356.516,323.873 356.516,323.454 
  356.516,323.014 356.516,322.587 356.516,322.25 356.516,321.918 356.516,322.017 356.516,322.688 356.516,322.742 356.516,322.559 356.516,324.329 356.516,326.301 
  356.516,326.737 356.516,310.539 368.72,293.575 370.115,278.143 368.722,263.478 370.585,249.906 378.068,235.131 376.269,219.699 381.719,203.94 387.728,187.74 
  391.479,171.324 398.395,155.255 396.326,140.407 406.597,126.78 413.614,114.755 416.036,103.909 413.406,94.6029 412.614,86.498 417.97,79.1651 418.886,73.5893 
  425.1,69.2147 430.978,65.3949 421.206,62.9731 393.181,62.4813 364.501,63.4303 313.47,66.4753 272.23,72.2744 263.031,79.6094 281.695,88.255 285.234,98.324 
  295.657,108.503 316.369,118.572 316.955,128.531 323.797,138.6 333.473,148.012 333.179,157.424 337.471,167.933 340.621,178.548 334.631,188.488 347.803,198.959 
  338.474,209.302 338.911,218.263 344.561,227.466 339.177,237.32 346.58,247.07 345.796,256.689 349.16,265.667 350.197,274.641 352.391,283.506 350.88,292.152 
  356.516,300.361 356.516,308.35 356.516,315.902 356.516,322.907 356.516,329.255 356.516,334.946 356.516,336.259 356.516,337.791 356.516,338.667 356.516,339.324 
  356.516,339.323 356.516,340.309 356.516,340.856 356.516,339.76 356.516,338.557 356.516,338.248 356.516,337.081 356.516,336.15 356.516,336.054 356.516,335.715 
  356.516,334.727 356.516,333.733 356.516,327.944 356.516,312.4 365.805,295.326 365.607,279.566 366.464,264.134 377.014,248.374 379.823,231.082 384.38,212.585 
  387.32,194.199 390.786,175.374 404.045,156.878 403.894,139.695 414.6,122.729 412.621,107.408 427.478,93.8594 433.961,82.3915 448.8,72.3854 460.874,64.8477 
  506.969,58.0747 503.348,51.9191 531.855,47.4745 535.406,44.1572 536.168,41.3028 537.325,37.9622 526.788,34.936 538.705,32.4377 499.184,30.582 488.116,29.5823 
  439.963,29.9205 352.751,32.0035 248.167,35.2972 199.398,39.3328 162.987,44.8606 144.12,51.5007 134.067,60.0181 99.7149,70.3044 108.586,82.0172 118.663,96.1351 
  145.654,111.895 202.914,128.859 246.439,144.291 278.621,157.753 303.656,170.777 318.424,183.144 326.902,194.308 329.306,205.581 334.076,216.307 337.802,226.923 
  337.63,236.992 340.097,246.951 345.141,256.801 344.963,266.323 349.734,275.626 347.654,284.711 349.737,293.136 356.516,301.018 356.516,308.37 356.516,315.082 
  356.516,321.265 356.516,327.189 356.516,329.258 356.516,327.503 356.516,326.29 356.516,325.318 356.516,324.548 356.516,324.001 356.516,323.454 356.516,323.126 
  356.516,323.012 356.516,323.137 356.516,323.454 356.516,324.85 356.516,327.772 356.516,330.24 356.516,330.714 356.516,332.72 356.516,335.055 356.516,336.543 
  356.516,328.793 356.516,306.599 370.057,287.01 372.152,269.059 372.942,252.643 374.496,236.335 385.499,218.495 386.851,200.546 392.912,182.819 396.435,164.967 
  402.29,148.122 404.114,132.146 412.859,116.944 424.135,102.811 414.867,91.4844 426.174,82.5833 433.781,74.4649 435.013,67.3488 450.273,61.7713 463.069,57.3914 
  463.791,54.6358 461.21,52.6297 454.398,51.4813 418.306,50.5918 375.909,51.5872 295.399,54.9835 242.931,60.5746 209.948,67.5662 207.147,76.5444 214.238,87.2736 
  232.81,99.628 262.453,112.771 285.868,125.142 299.066,136.206 311.575,147.246 325.136,158.903 321.86,170.03 332.283,181.284 334.374,192.777 333.613,203.821 
  335.414,214.993 343.343,225.941 339.391,235.911 341.143,245.638 343.382,255.653 345.677,265.467 345.83,275.079 345.413,284.49 350.187,293.795 356.516,302.55 
  356.516,310.868 356.516,318.529 356.516,325.533 356.516,331.881 356.516,336.916 356.516,337.135 356.516,337.572 356.516,336.478 356.516,336.697 356.516,336.15 
  356.516,335.821 356.516,334.836 356.516,334.946 356.516,334.508 356.516,333.304 356.516,332.757 356.516,332.1 356.516,331.334 356.516,330.677 356.516,330.13 
  356.516,329.692 356.516,329.255 356.516,328.817 356.516,318.091 356.516,297.953 367.615,279.128 375.798,261.289 379.625,242.792 384.581,222.545 392.61,201.86 
  397.308,181.831 399.855,161.912 409.622,143.744 420.212,125.904 422.8,109.488 426.453,95.2596 430.911,83.0017 462.598,72.276 477.653,63.4109 509.217,56.5158 
  530.097,50.934 533.335,46.2279 548.788,42.0691 553.968,38.3475 558.2,34.5172 553.042,31.0183 547.62,28.379 522.773,25.7615 499.28,24.0139 448.785,23.4771 
  379.942,24.0104 269.347,27.1304 209.029,31.9099 173.616,37.1439 154.166,42.8335 134.107,49.8402 104.357,58.9236 89.3749,69.6492 84.2337,82.345 88.5898,97.6674 
  133.622,114.084 188.249,131.596 241.831,148.56 273.674,162.897 298.871,176.578 315.972,188.945 324.174,200.875 331.968,212.038 333.337,222.983 340.45,233.49 
  338.2,243.777 345.366,253.956 346.624,263.697 346.087,273.218 349.431,282.412 350.208,291.277 356.516,299.485 356.516,307.146 356.516,314.26 356.516,320.499 
  356.516,325.862 356.516,329.799 356.516,329.045 356.516,328.379 356.516,328.16 356.516,328.465 356.516,329.692 356.516,330.406 356.516,331.11 356.516,331.991 
  356.516,333.033 356.516,334.306 356.516,334.07 356.516,334.526 356.516,335.221 356.516,337.353 356.516,339.666 356.516,342.282 356.516,344.577 356.516,335.155 
  356.516,310.105 369.234,288.212 370.611,268.184 377.662,250.454 380.867,231.301 392.361,210.834 391.969,190.26 405.555,170.449 405.545,151.386 404.44,133.838 
  409.762,117.586 417.282,102.141 423.946,89.2365 431.591,78.7333 461.34,69.3302 474.755,61.547 495.172,55.4213 510.592,51.0432 529.68,47.3238 532.537,44.1484 
  529.053,41.5024 516.891,39.3868 500.761,37.5817 470.457,36.0356 440.616,36.0459 356.807,38.4572 248.152,42.6254 202.47,47.9757 178.871,54.6552 151.131,63.1917 
  138.725,73.4814 143.228,85.8472 151.091,100.165 190.374,116.984 235.892,134.441 270.625,148.327 292.787,161.142 309.87,173.951 324.345,186.437 324.918,198.245 
  333.551,210.068 337.261,221.232 339.198,232.395 339.27,243.34 343.936,253.628 346.862,263.915 346.423,273.656 347.767,283.068 350.437,292.371 356.516,300.908 
  356.516,309.007 356.516,316.559 356.516,323.563 356.516,329.912 356.516,335.272 356.516,338.229 356.516,337.373 356.516,336.971 356.516,336.587 356.516,336.93 
  356.516,336.7 356.516,336.15 356.516,335.812 356.516,335.496 356.516,335.165 356.516,334.945 356.516,334.291 356.516,333.851 356.516,333.285 356.516,332.811 
  356.516,332.428 356.516,331.43 356.516,325.53 356.516,305.724 371.717,285.485 373.043,266.429 374.573,247.827 381.589,227.032 386.336,206.128 393.726,185.771 
  403.075,164.539 410.393,145.386 418.115,126.999 431.586,109.816 428.122,95.0407 436.091,82.7828 452.284,71.7287 477.223,62.6447 522.155,55.7497 544.239,50.0586 
  556.371,45.1332 556.929,40.6462 569.712,36.0528 575.404,31.4435 578.128,27.5127 580.315,23.5761 565.671,19.4276 520.384,16.3492 457.087,15.748 379.197,17.3536 
  293.792,20.1798 221.757,24.5561 183.28,29.7022 149.527,35.3928 128.16,41.5217 119.693,49.0735 85.8472,58.5953 62.5219,70.0871 76.8302,83.8772 73.9312,99.8563 
  119.325,116.82 174.156,134.769 227.594,152.5 271.163,167.603 296.088,181.284 320.743,194.089 332.295,205.8 329.75,217.073 333.911,227.908 337.091,238.305 
  336.217,248.484 342.212,258.443 341.886,268.074 344.887,277.377 347.593,286.242 349.518,294.889 356.516,302.878 356.516,310.211 356.516,316.997 356.516,322.907 
  356.516,328.16 356.516,332.1 356.516,333.085 356.516,334.07 356.516,335.274 356.516,336.587 356.516,338.01 356.516,338.995 356.516,340.965 356.516,342.826 
  356.516,344.796 356.516,345.781 356.516,345.781 356.516,345.781 356.516,345.781 356.516,345.781 356.516,345.781 356.516,345.781 356.516,328.379 356.516,305.508 
  372.403,283.387 373.071,263.259 376.058,244 384.732,222.887 390.704,200.765 395.698,180.029 402.943,160.171 408.758,141.555 414.034,124.155 430.563,107.641 
  418.9,92.7423 428.064,81.4155 457.348,71.529 484.389,63.0825 503.174,56.4081 517.485,51.3632 534.203,46.994 533.049,43.4952 541.804,39.5656 545.709,35.3928 
  533.637,32.6027 536.414,30.1588 517.855,28.6071 466.857,27.5111 413.429,28.2794 307.944,30.9055 225.611,35.3927 196.745,40.7556 161.151,46.8846 147.934,54.6552 
  115.846,64.7242 109.158,77.201 105.86,91.2101 120.214,107.517 161.138,125.248 224.869,143.744 263.71,159.833 289.167,173.623 309.238,186.866 320.674,199.452 
  330.42,211.163 332.067,222.654 338.306,233.708 340.312,244.215 336.539,254.722 344.9,264.791 345.179,274.422 343.899,283.941 349.446,292.818 356.516,301.346 
  356.516,309.222 356.516,317.092 356.516,324.548 356.516,330.512 356.516,335.364 356.516,338.886 356.516,337.574 356.516,336.806 356.516,335.931 356.516,335.494 
  356.516,335.054 356.516,334.617 356.516,334.308 356.516,333.907 356.516,333.851 356.516,334.084 356.516,334.183 356.516,333.742 356.516,333.514 356.516,333.088 
  356.516,332.976 356.516,331.663 356.516,316.995 356.516,296.421 369.575,277.506 375.37,259.046 378.227,240.056 383.788,219.713 389.892,199.018 397.372,177.782 
  403.033,158.072 404.779,139.26 422.719,121.855 422.956,105.766 437.065,92.0857 438.525,80.4844 463.517,70.1965 490.488,61.4408 524.852,54.9835 533.65,49.7302 
  545.236,45.3523 551.567,40.9745 561.411,36.8156 562.757,32.985 550.703,29.4827 539.825,26.3088 530.21,23.5726 491.848,22.3687 415.201,22.9165 312.174,25.4316 
  222.279,29.5921 187.478,34.7555 168.735,40.2639 134.274,46.7751 101.772,55.7636 91.4539,66.5883 82.8875,78.7333 86.4696,92.733 107.405,109.053 160.582,126.452 
  215.61,144.069 262.956,159.514 289.157,173.075 309.854,185.658 320.364,198.344 326.731,210.506 331.755,221.286 336.868,231.719 337.288,241.807 338.829,251.879 
  340.412,261.724 348.026,271.029 348.151,279.914 350.502,288.706 356.516,297.187 356.516,305.628 356.516,313.17 356.516,319.623 356.516,325.305 356.516,330.243 
  356.516,333.523 356.516,335.383 356.516,337.244 356.516,339.105 356.516,340.305 356.516,341.412 356.516,343.482 356.516,345.449 356.516,346.861 356.516,348.298 
  356.516,349.556 356.516,350.139 356.516,350.159 356.516,350.16 356.516,350.158 356.516,350.159 356.516,348.845 356.516,320.061 356.516,297.515 371.621,276.501 
  370.821,257.46 374.828,238.196 385.426,216.94 392.064,196.014 399.355,175.045 404.835,153.229 408.86,135.134 422.902,118.462 429.115,101.438 433.884,87.791 
  450.003,76.8727 475.643,67.0337 503.476,59.1385 536.247,52.9041 539.817,47.9793 545.648,43.4916 565.606,39.0045 577.431,34.7361 568.421,30.9055 572.256,27.5127 
  556.407,24.3382 549.278,21.7136 490.564,20.9459 417.267,21.9116 317.379,24.8305 234.976,29.2638 188.855,33.7372 152.567,39.1104 131.068,46.009 95.7943,54.3361 
  85.9441,65.0492 74.2979,77.7483 85.2659,92.5237 106.624,109.269 156.234,126.78 215.24,145.057 260.546,161.474 290.875,175.264 314.479,188.507 321.124,201.312 
  332.746,212.695 334.267,223.64 334.817,234.692 342.181,245.2 342.888,255.289 346.306,265.065 340.247,274.641 353.627,284.396 351.507,293.469 356.516,301.674 
  356.516,309.326 356.516,316.343 356.516,322.797 356.516,328.378 356.516,333.196 356.516,335.383 356.516,333.394 356.516,332.154 356.516,331.225 356.516,329.788 
  356.516,328.923 356.516,328.817 356.516,328.717 356.516,328.485 356.516,328.16 356.516,328.051 356.516,327.941 356.516,327.722 356.516,327.613 356.516,327.722 
  356.516,327.503 356.516,316.012 356.516,296.859 372.449,278.034 373.092,260.523 381.216,242.792 383.235,222.873 390.38,202.407 401.226,181.831 403.818,161.584 
  409.526,142.325 416.292,124.582 422.945,108.174 426.98,93.6214 430.057,81.9211 444.796,71.291 470.106,62.5908 502.786,55.8785 529.994,50.4963 535.825,46.1169 
  559.853,42.2884 555.801,38.4572 571.146,34.6266 555.697,31.1244 547.038,28.1693 535.475,25.5426 493.639,23.6821 458.158,23.4632 379.842,25.1049 258.336,28.6071 
  204.715,33.4227 173.078,38.6761 151.217,44.5862 130.7,51.7002 89.3363,61.0031 84.5834,71.9476 87.5292,85.5189 102.382,100.841 145.207,117.696 203.326,135.645 
  252.736,151.952 280.486,165.633 302.176,178.657 320.491,190.806 325.303,201.86 329.405,212.804 335.795,223.421 340.65,233.818 342.258,243.887 343.421,253.737 
  344.126,263.149 344.484,272.452 345.797,281.427 350.443,290.073 356.516,298.5 356.516,306.162 356.516,313.494 356.516,320.061 356.516,325.865 356.516,330.887 
  356.516,334.508 356.516,337.795 356.516,339.666 356.516,341.184 356.516,342.334 356.516,344.487 356.516,345.781 356.516,345.779 356.516,345.781 356.516,345.781 
  356.516,345.78 356.516,345.782 356.516,345.781 356.516,345.761 356.516,344.85 356.516,320.718 356.516,300.019 369.346,280.548 374.637,262.712 374.035,244.772 
  378.753,225.496 386.317,205.143 392.387,184.899 406.186,164.858 406.212,145.714 417.93,127.55 417.387,110.815 423.716,95.369 440.849,82.9477 454.873,72.7331 
  479.294,63.9581 510.931,57.0615 524.581,51.4816 534.803,46.7751 561.605,42.4006 571.906,37.9008 573.152,33.7511 570.239,30.1429 569.141,26.3227 579.534,22.2593 
  528.243,19.907 476.507,19.4331 397.685,20.6176 309.744,23.3521 226.204,27.7322 180.866,32.8755 148.463,38.5661 144.223,45.0256 118.168,52.9041 90.0865,62.7348 
  82.5778,74.4094 85.1823,88.0362 101.795,103.454 139.053,120.21 189.696,138.71 246.542,155.902 280.431,170.117 300.928,183.582 316.567,196.384 327.813,208.107 
  331.88,219.262 338.085,229.874 336.04,240.918 343.581,251.986 341.62,261.889 345.868,271.34 343.695,280.442 348.368,289.398 356.516,298.006 356.516,305.833 
  356.516,312.605 356.516,319.073 356.516,325.314 356.516,330.687 356.516,334.942 356.516,335.165 356.516,334.07 356.516,333.304 356.516,332.647 356.516,332.21 
  356.516,331.991 356.516,331.881 356.516,331.443 356.516,331.115 356.516,331.006 356.516,330.896 356.516,330.787 356.516,330.896 356.516,330.787 356.516,330.787 
  356.516,323.016 356.516,305.614 367.224,287.775 371.188,271.248 373.155,255.598 376.967,238.852 382.813,220.465 385.736,201.859 393.901,182.599 398.425,163.116 
  406.558,146.023 410.006,129.679 422.094,114.084 415.242,100.28 427.005,88.361 431.254,78.8427 455.642,69.9869 470.559,62.8603 487.869,57.1725 506.886,52.576 
  502.725,49.1828 513.686,46.2279 518.635,43.8201 502.956,41.5217 487.237,39.9895 465.483,39.1138 415.443,39.4425 344.183,41.1934 261.601,45.0207 214.244,50.1772 
  182.766,56.5158 156.712,64.2829 154.832,74.2321 144.612,86.285 163.803,99.9103 211.889,115.269 252.676,130.501 278.985,143.418 296.682,156 318.528,168.26 
  324.413,179.552 330.632,190.533 334.898,201.422 335.888,212.928 338.707,223.752 337.276,233.49 342.248,243.549 342.227,253.303 349.424,262.712 346.55,271.795 
  350.052,280.77 351.36,289.635 356.516,298.062 356.516,305.943 356.516,313.166 356.516,319.952 356.516,326.081 356.516,331.553 356.516,335.383 356.516,337.682 
  356.516,340.418 356.516,342.497 356.516,342.497 356.516,342.497 356.516,342.497 356.516,342.497 356.516,342.497 356.516,342.497 356.516,342.497 
  356.516,342.497 356.516,342.497 356.516,342.497 356.516,328.488 356.516,310.102 368.186,292.371 367.69,276.064 371.398,260.085 380.291,242.683 381.619,224.187 
  389.713,205.033 400.02,184.896 398.728,165.089 403.109,147.456 409.367,130.392 418.137,114.197 419.957,99.4324 433.246,86.9417 441.689,76.9282 465.235,68.027 
  495.102,60.7842 504.722,55.2009 523.567,50.7157 537.984,46.6657 540.284,42.835 545.613,39.0045 561.064,35.0644 554.932,31.8904 542.989,28.9357 534.604,26.3088 
  473.423,24.8827 425.917,25.5519 335.138,27.6221 243.885,31.3398 203.535,36.5828 180.005,42.9445 147.444,49.3463 121,57.2625 94.4702,67.4604 97.4541,79.6104 
  110.926,93.07 122.599,108.721 174.176,125.796 228.706,143.305 267.148,158.3 294.807,171.234 311.41,184.185 325.74,196.059 329.708,208.003 337.582,219.265 
  338.121,229.768 341.248,239.828 340.211,249.691 340.974,259.538 346.204,268.84 341.972,277.925 350.262,286.68 353.487,294.995 356.516,302.997 356.516,310.32 
  356.516,317.212 356.516,324.097 356.516,330.349 356.516,335.109 356.516,336.787 356.516,336.04 356.516,335.386 356.516,334.944 356.516,334.727 356.516,334.527 
  356.516,334.454 356.516,334.289 356.516,334.85 356.516,335.059 356.516,334.617 356.516,334.608 356.516,334.402 356.516,334.18 356.516,333.632 356.516,323.235 
  356.516,307.475 365.685,291.711 365.273,276.839 368.853,262.164 374.52,246.948 377.164,230.519 379.825,214.993 385.671,198.102 392.783,179.897 396.902,162.897 
  403.842,147.477 405.389,131.608 421.438,116.492 422.552,102.58 419.425,91.8564 425.164,83.1111 460.102,74.2963 468.291,66.2464 477.576,60.6747 485.761,56.1855 
  507.459,52.999 503.217,50.9341 477.466,49.128 471.859,47.7391 441.732,46.994 405.396,47.3433 333.229,49.0189 276.623,52.3569 239.003,57.9531 210.447,64.1789 
  202.664,71.5099 188.225,79.9473 204.541,90.6122 228,103.359 273.814,117.272 288.273,129.629 304.727,141.008 320.214,152.159 330.647,162.91 333.325,173.185 
  332.346,183.25 341.05,194.294 347.888,205.143 343.047,214.497 345.754,223.739 347.895,233.052 349.689,241.805 350.436,251.205 353.844,260.851 355.551,269.223 
  345.662,277.358 357.993,285.367 359.702,293.026 356.516,300.588 356.516,307.694 356.516,314.038 356.516,320.813 356.516,327.175 356.516,331.826 356.516,333.175 
  356.516,334.836 356.516,334.4 356.516,334.617 356.516,336.04 356.516,336.478 356.516,337.901 356.516,338.448 356.516,338.229 356.516,339.105 356.516,327.394 
  356.516,316.449 356.516,304.958 373.237,293.466 366.746,281.755 368.627,269.825 371.15,257.13 379.667,243.777 377.753,229.44 384.293,213.899 386.48,197.92 
  392.429,181.831 392.186,164.867 405.885,148.669 408.395,132.909 424.118,117.477 414.13,103.687 414.225,92.3045 431.77,82.4544 443.122,73.4799 471.223,66.0376 
  480.78,60.0181 496.028,55.2024 506.888,51.1529 514.2,47.6507 505.615,44.6957 522.421,42.1784 501.216,39.88 501.905,38.0195 478.207,36.8156 451.558,36.2683 
  393.759,37.0344 307.114,39.2234 239.232,43.054 207.504,47.76 184.143,53.3421 155.728,60.2369 141.805,68.8798 135.173,79.5086 148.796,91.7573 176.846,106.638 
  223.756,123.154 267.673,137.615 285.821,149.927 309.088,162.002 324.092,173.185 328.064,184.022 332.992,194.855 337.753,205.362 341.459,215.54 337.152,225.5 
  341.267,235.131 342.646,244.653 344.354,253.956 347.505,262.93 347.343,271.905 347.641,280.442 353.155,288.65 356.516,296.64 356.516,304.191 356.516,311.305 
  356.516,317.763 356.516,323.563 356.516,328.488 356.516,328.598 356.516,326.518 356.516,325.205 356.516,324.22 356.516,323.563 356.516,323.016 356.516,322.25 
  356.516,321.812 356.516,321.703 356.516,321.484 356.516,321.156 356.516,320.718 356.516,320.279 356.516,320.172 356.516,320.28 356.516,320.151 356.516,318.583 
  356.516,305.395 366.362,290.603 367.91,276.507 368.293,262.602 369.276,250.022 380.922,236.865 379.435,223.749 383.537,209.028 380.13,193.96 388.891,178.438 
  395.71,162.571 397.363,148.229 401.926,133.456 393.438,120.78 401.43,109.871 408.002,98.4335 412.168,90.5673 413.775,83.5524 411.046,76.8727 407.227,72.3767 
  417.024,68.5566 405.679,66.2565 382.707,65.2906 365.205,66.2026 298.964,69.8682 291.897,75.5732 296.065,81.4729 289.885,88.1456 309.148,94.4842 307.867,102.486 
  313.848,111.239 319.851,119.447 321.24,127.984 324.614,137.177 326.29,147.137 330.393,156.768 334.978,166.509 331.372,176.249 337.043,185.552 338.318,194.527 
  333.687,204.596 340.387,213.68 340.667,222.326 341.341,231.191 342.645,240.386 343.435,249.25 346.692,257.877 344.777,266.815 349.252,275.188 348.971,282.507 
  352.183,290.069 356.516,297.953 356.516,305.513 356.516,312.726 356.516,319.514 356.516,325.952 356.516,332.373 356.516,336.368 356.516,338.325 356.516,341.399 
  356.516,344.358 356.516,347.432 356.516,350.155 356.516,350.159 356.516,351.691 356.516,352.238 356.516,353.223 356.516,353.661 356.516,354.536 356.516,354.318 
  356.516,335.821 356.516,321.484 356.516,308.35 365.751,295.111 367.502,282.621 369.148,270.373 366.703,257.899 371.983,243.791 377.648,228.564 378.724,214.173 
  383.299,199.143 389.863,183.363 389.125,167.711 396.17,152.829 398.074,138.71 392.954,125.357 398.994,112.99 411.233,101.936 407.201,91.9762 414.472,83.8772 
  416.596,76.7632 430.343,70.3059 436.844,65.5998 434.864,62.0975 441.366,59.1425 434.384,56.9536 417.437,55.8591 409.61,55.3119 372.656,55.8591 315.857,58.048 
  275.365,61.5503 257.184,66.0376 240.11,72.276 230.986,80.2655 236.698,90.0062 259.698,100.513 284.54,110.582 294.48,121.308 312.743,131.924 320.305,142.102 
  332.528,151.734 329.292,161.584 329.993,172.091 340.072,182.05 338.452,191.9 340.072,202.191 340.396,211.919 343.767,221.669 341.047,231.523 343.283,240.398 
  342.832,248.812 344.043,258.17 349.073,267.109 343.894,275.736 351.325,284.161 351.351,292.372 356.516,300.251 356.516,307.584 356.516,314.589 356.516,321.046 
  356.516,326.737 356.516,330.896 356.516,328.926 356.516,327.613 356.516,326.628 356.516,325.971 356.516,325.314 356.516,324.767 356.516,324.439 356.516,324.22 
  356.516,323.892 356.516,323.892 356.516,323.563 356.516,323.454 356.516,323.344 356.516,323.345 356.516,323.344 356.516,323.344 356.516,323.238 356.516,322.46 
  356.516,313.823 356.516,301.13 363.604,288.445 371.338,275.079 367.822,262.986 370.35,251.239 371.064,237.867 376.998,224.291 379.067,211.063 379.374,197.154 
  382.722,182.922 384.389,169.122 391.777,156.549 390.426,144.236 388.178,132.671 397.529,122.402 391.746,113.101 384.562,106.313 383.694,100.404 377.796,95.9163 
  383.967,92.8517 374.864,90.444 355.579,90.1156 338.161,91.9762 340.057,94.8218 328.165,99.6374 326.365,106.095 331.561,111.895 323.782,118.79 337.501,126.999 
  337.597,133.675 328.879,141.665 344.916,148.122 335.136,155.674 334.338,164.648 336.179,172.419 335.694,180.737 337.881,188.945 343.882,197.044 335.965,205.909 
  340.864,214.993 342.684,223.53 346.055,231.848 344.888,240.712 343.189,249.032 346.003,257.239 351.285,265.428 347.933,273.819 349.568,281.755 353.651,288.746 
  351.655,295.979 356.516,303.754 356.516,310.877 356.516,317.65 356.516,324.111 356.516,330.021 356.516,335.712 356.516,338.448 356.516,341.512 356.516,344.907 
  356.516,347.532 356.516,350.358 356.516,353.058 356.516,353.442 356.516,352.662 356.516,352.235 356.516,352.348 356.516,352.357 356.516,352.344 356.516,339.871 
  356.516,326.741 356.516,315.017 356.516,303.973 363.028,293.141 363.349,281.55 367.93,269.716 373.985,258.17 370.181,245.657 370.721,232.286 375.264,218.275 
  381.601,203.502 383.359,188.836 386.278,174.06 389.891,159.287 392.569,145.823 396.511,132.78 398.161,120.158 400.165,109.378 406.881,98.8574 403.59,89.6743 
  416.374,82.2355 416.779,75.7881 422.682,70.301 429.018,66.147 423.099,63.1022 429.692,60.8396 421.757,59.3614 401.792,59.4847 376.409,59.9121 354.779,60.7842 
  311.191,63.2922 277.011,67.4637 258.073,72.4949 240.843,79.9369 253.262,89.1307 267.25,98.6524 285.176,108.721 300.755,118.462 317.871,128.641 325.485,138.713 
  327.362,147.894 330.993,157.534 334.523,166.731 341.659,175.497 335.37,184.677 339.331,194.363 339.967,203.849 339.563,213.133 341.528,222.543 345.326,231.848 
  343.201,241.041 346.158,249.687 342.454,258.662 347.136,267.527 352.021,275.954 349.086,283.944 349.733,292.043 356.516,299.704 356.516,307.039 356.516,313.823 
  356.516,320.042 356.516,326.025 356.516,331.115 356.516,331.43 356.516,329.689 356.516,329.036 356.516,328.498 356.516,328.157 356.516,328.16 356.516,327.832 
  356.516,327.832 356.516,327.832 356.516,327.832 356.516,327.832 356.516,327.613 356.516,327.285 356.516,327.065 356.516,325.862 356.516,318.094 356.516,307.247 
  356.516,296.421 363.152,286.027 372.042,274.983 365.853,263.587 369.581,252.698 370.187,240.514 367.684,227.798 372.946,215.317 376.338,202.307 382.33,188.945 
  384.158,175.917 382.768,163.43 385.249,152.281 389.446,141.39 387.284,131.138 392.669,121.198 383.517,112.663 389.498,106.094 384.994,101.279 377.119,97.0108 
  375.245,93.6179 357.729,91.9762 359.425,90.9913 335.476,92.1948 329.765,96.5729 336.979,100.297 321.626,105.867 328.586,112.99 328.895,119.013 327.825,125.59 
  337.634,130.829 324.375,136.686 329.843,144.967 330.548,152.5 325.769,161.035 333.354,168.917 331.865,175.702 334.968,184.458 334.237,193.542 339.474,201.75 
  335.664,210.29 338.654,218.705 339.435,227.032 339.203,235.572 345.563,243.354 344.379,251.11 344.178,259.374 345.439,267.656 349.653,275.736 348.127,283.508 
  343.104,291.268 356.516,299.047 356.516,306.931 356.516,313.836 356.516,319.842 356.516,326.249 356.516,332.22 356.516,338.12 356.516,341.952 356.516,345.029 
  356.516,344.686 356.516,344.632 356.516,344.706 356.516,344.686 356.516,344.685 356.516,344.687 356.516,344.686 356.516,344.686 356.516,344.686 356.516,344.686 
  356.516,330.239 356.516,319.187 356.516,308.679 356.516,297.605 367.893,287.172 366.951,276.83 368.941,265.324 365.628,253.296 370.456,240.932 370.982,228.574 
  378.286,214.99 380.903,200.875 386.74,186.975 387.302,173.513 385.37,159.395 392.325,146.59 388.398,134.769 391.712,123.825 394.369,113.975 387.858,105.876 
  399.472,98.2146 396.444,91.8634 398.093,86.6226 407.479,81.7977 399.299,78.0731 385.921,76.2021 374.356,76.1066 367.848,75.5038 347.019,76.525 310.996,80.0466 
  309.487,84.5355 312.108,90.4434 307.753,97.8863 314.071,105.548 315.937,113.537 329.045,121.855 322.51,130.063 323.784,138.162 333.205,146.48 331.166,154.798 
  328.914,163.991 337.492,172.857 338.253,181.612 342.135,190.477 335.813,199.452 344.561,208.974 343.25,218.167 341.055,227.47 344.774,236.445 350.193,245.2 
  345.854,254.284 345.074,263.04 347.818,271.467 346.601,279.894 347.218,288.103 351.258,296.092 356.516,303.754 356.516,310.977 356.516,317.872 356.516,324.22 
  356.516,329.911 356.516,334.945 356.516,334.727 356.516,334.073 356.516,333.514 356.516,333.304 356.516,333.198 356.516,332.661 356.516,331.662 356.516,331.499 
  356.516,331.571 356.516,331.443 356.516,331.461 356.516,331.499 356.516,331.553 356.516,332.442 356.516,332.87 356.516,332.757 356.516,332.748 356.516,329.915 
  356.516,318.419 356.516,306.052 361.01,294.451 363.814,283.068 366.306,271.577 365.867,260.302 367.788,248.265 372.552,235.588 369.55,222.929 372.64,209.849 
  378.45,197.058 380.181,184.571 384.631,172.09 378.185,159.604 382.459,148.344 384.265,138.6 387.507,128.75 380.953,120.542 383.532,113.975 382.921,108.393 
  378.778,104.234 370.556,102.155 375.731,99.8563 365.515,99.0902 333.037,101.826 337.715,105.657 326.537,109.925 317.515,117.039 329.103,123.168 333.167,129.078 
  325.624,136.302 331.91,143.197 336.174,149.873 334.568,156.111 337.848,163.882 334.864,171.653 340.697,178.329 338.86,186.975 338.743,195.402 341.491,203.064 
  338.009,211.6 342.589,219.809 341.999,228.127 343.197,236.444 342.567,244.764 347.829,252.752 346.151,260.613 349.36,268.676 346.994,276.611 351.239,283.492 
  352.643,290.507 356.516,298.062 356.516,305.076 356.516,312.068 356.516,318.638 356.516,324.877 356.516,330.786 356.516,336.478 356.516,339.984 356.516,340.626 
  356.516,342.716 356.516,344.819 356.516,344.318 356.516,343.592 356.516,344.318 356.516,344.819 356.516,344.686 356.516,340.407 356.516,330.462 356.516,321.265 
  356.516,312.618 356.516,303.207 365.182,293.794 364.668,284.272 362.451,274.422 368.992,263.806 367.925,252.314 371.06,240.494 373.344,228.346 380.569,214.774 
  379.13,200.437 385.662,186.647 385.935,172.309 392.857,158.081 393.594,144.072 387.357,131.267 399.795,119.338 401.224,107.627 399.889,98.2146 414.001,90.0062 
  415.128,82.1261 417.636,75.9971 441.832,70.6343 450.586,65.8187 452.211,62.207 448.209,59.7992 439.347,58.048 430.326,56.8441 415.566,56.4063 385.013,56.8441 
  322.485,58.4858 277.612,62.0975 258.765,66.9131 232.655,73.0421 236.856,81.1411 245.448,90.444 262.224,100.732 283.718,111.239 297.932,121.527 317.833,131.596 
  324.418,141.117 328.199,150.201 328.677,160.489 333.15,170.12 332.95,178.986 333.004,189.055 346.006,197.92 341.245,207.441 341.071,216.854 344.749,225.828 
  347.506,234.912 345.012,243.891 347.148,252.631 343.948,261.289 348.051,269.962 353.217,277.764 352.062,285.148 352.645,293.777 356.516,301.328 356.516,307.584 
  356.516,314.979 356.516,321.611 356.516,327.284 356.516,332.421 356.516,335.073 356.516,333.413 356.516,332.812 356.516,332.338 356.516,331.881 356.516,331.442 
  356.516,330.897 356.516,330.458 356.516,330.239 356.516,330.021 356.516,329.911 356.516,329.692 356.516,327.832 356.516,319.733 356.516,310.32 356.516,300.471 
  364.838,290.839 364.417,280.986 361.996,270.71 366.619,260.523 369.658,249.246 367.349,238.183 372.113,226.923 379.502,214.262 377.69,201.347 380.797,188.507 
  383.146,174.924 391.804,162.017 386.301,150.201 392.182,138.828 388.678,128.309 387.728,119.885 385.989,112.224 397.338,104.891 387.621,98.7618 378.919,94.8218 
  379.18,91.3196 377.316,88.3645 371.302,87.3789 358.583,87.8189 354.513,89.1306 327.686,92.9418 324.104,98.8158 325.883,104.781 325.246,111.005 313.672,118.46 
  329.919,125.685 324.866,133.227 322,141.715 332.109,149.654 331.016,156.973 331.724,165.63 335.013,173.951 339.34,182.168 337.394,191.023 334.464,199.452 
  341.314,207.422 338.165,216.47 345.996,224.953 342.226,233.038 344.826,241.256 344.768,249.797 346.795,258.675 348.431,266.967 353.784,275.407 349.739,283.619 
  348.957,291.072 356.516,298.391 356.516,305.889 356.516,313.295 356.516,320.171 356.516,326.298 356.516,332.429 356.516,337.682 356.516,339.217 356.516,339.205 
  356.516,339.214 356.516,339.327 356.516,338.9 356.516,338.12 356.516,338.066 356.516,338.137 356.516,338.12 356.516,338.137 356.516,336.206 356.516,326.956 
  356.516,318.652 356.516,309.339 356.516,299.266 364.283,289.516 361.826,279.569 367.521,268.731 366.924,257.348 371.387,245.31 371.351,232.614 377.069,219.153 
  377.995,205.36 378.568,190.806 381.438,176.269 391.275,162.405 394.189,148.779 394.84,136.534 401.683,125.142 393.666,114.084 395.995,104.553 397.706,96.5762 
  406.726,89.1306 406.138,82.673 410.451,77.0917 420.529,72.3854 414.525,68.7737 415.42,66.5848 415.989,64.9431 395.96,64.177 364.77,64.6148 307.018,67.3509 
  301.497,70.7437 280.862,75.7782 268.042,82.345 266.012,90.7723 288.184,99.8563 295.986,108.831 315.333,117.915 318.381,127.109 327.506,136.521 336.353,145.711 
  330.076,154.698 331.897,164.32 334.864,173.404 340.574,183.669 341.423,194.417 344.992,203.778 340.262,212.58 342.667,221.013 340.174,230.373 348.157,239.418 
  347.248,248.155 345.03,257.019 347.083,265.777 348.82,274.313 354.049,282.631 354.936,291.056 356.516,298.938 356.516,306.509 356.516,313.659 356.516,320.389 
  356.516,327.408 356.516,333.417 356.516,337.025 356.516,336.359 356.516,336.262 356.516,335.931 356.516,335.384 356.516,334.725 356.516,334.508 356.516,334.199 
  356.516,333.797 356.516,333.851 356.516,334.303 356.516,334.402 356.516,333.851 356.516,333.732 356.516,333.855 356.516,330.568 356.516,319.839 356.516,308.25 
  356.516,297.187 366.937,285.692 366.881,274.956 364.25,264.134 369.288,252.15 369.895,239.269 375.592,226.157 375.553,212.169 380.027,198.303 384.195,184.458 
  384.478,171.667 393.308,158.085 388.908,145.057 394.223,133.556 399.004,123.281 397.775,113.646 388.291,105.984 387.938,99.7485 384.299,94.384 395.694,89.6585 
  383.54,86.339 365.431,84.9717 361.008,83.7539 349.117,84.5304 325.101,88.6928 329.561,94.3933 329.841,100.181 328.662,107.08 330.972,114.851 337.837,121.745 
  334.904,128.969 330.899,137.287 336.855,145.276 339.582,152.719 344.143,160.818 340.255,169.135 341.834,177.453 342.528,185.881 333.952,194.527 340.04,203.392 
  343.167,211.713 342.821,220.456 343.819,229.331 347.251,237.871 346.079,245.761 346.905,253.737 348.495,261.673 355.534,269.845 349.234,277.268 352.6,284.709 
  355.897,291.934 356.516,299.047 356.516,305.833 356.516,312.29 356.516,318.529 356.516,324.329 356.516,329.364 356.516,333.523 356.516,333.414 356.516,333.304 
  356.516,332.647 356.516,332.432 356.516,331.981 356.516,331.553 356.516,331.337 356.516,330.691 356.516,329.692 356.516,327.34 356.516,320.518 356.516,310.868 
  356.516,301.673 363.524,292.263 361.876,282.412 368.792,272.121 369.792,261.298 375.625,249.906 370.669,237.32 371.972,225.258 377.067,212.695 382.541,198.743 
  393.239,184.233 387.702,169.135 392.466,154.527 398.308,140.698 401.046,126.999 408.267,114.302 404.705,103.578 407.993,93.6179 420.333,84.7522 414.248,77.7499 
  428.049,71.6193 453.913,65.7993 443.514,61.7137 451.034,58.4858 462.553,55.2974 445.4,53.2305 437.967,52.3569 417.779,51.9089 388.779,52.6264 320.361,54.8741 
  285.709,57.9244 250.002,61.8766 244.138,68.0076 224.15,76.0965 236.133,85.0223 258.537,94.8218 284.012,104.877 297.986,114.737 314.639,125.248 321.426,135.217 
  317.906,145.163 331.703,155.783 331.166,165.527 340.412,174.708 341.806,184.348 344.935,194.421 347.05,203.406 342.58,212.038 347.115,221.506 342.35,230.444 
  345.521,239.728 348.112,248.591 347.245,256.693 351.818,264.791 355.597,272.343 346.444,279.238 354.013,286.352 359.348,292.809 356.516,298.829 356.516,304.629 
  356.516,310.211 356.516,315.136 356.516,319.514 356.516,323.126 356.516,326.299 356.516,328.488 356.516,329.473 356.516,328.817 356.516,328.707 356.516,328.16 
  356.516,327.832 356.516,327.175 356.516,322.031 356.516,314.589 356.516,306.271 356.516,297.953 365.169,288.76 364.884,279.894 366.554,270.479 368.602,260.751 
  373.399,250.016 370.141,239.068 371.507,227.675 377.941,216.088 383.512,203.336 375.835,190.13 385.423,177.125 389.049,163.227 383.558,150.639 400.818,137.615 
  395.599,125.357 391.013,114.413 402.054,104.015 399.425,95.369 405.173,87.7078 405.508,81.5789 407.269,75.8878 406.318,71.619 400.434,68.2265 415.383,64.837 
  391.699,63.4016 369.869,63.5203 344.618,65.1655 326.909,67.1459 306.297,70.4154 296.836,76.3815 296.541,83.6761 302.154,91.429 317.712,99.3269 319.571,107.792 
  329.084,116.054 329.196,125.48 336.975,133.569 331.708,142.759 330.43,151.724 336.328,160.492 333.431,170.339 338.358,178.88 338.138,187.621 338.179,197.372 
  336.313,206.698 342.48,214.625 340.002,222.873 342.309,232.355 348.469,241.611 349.977,250.016 345.41,258.323 351.779,266.984 347.586,274.969 352.346,282.193 
  355.475,289.635 356.516,296.859 356.516,303.863 356.516,310.539 356.516,316.668 356.516,322.359 356.516,327.503 356.516,331.772 356.516,332.21 356.516,332.208 
  356.516,331.772 356.516,331.134 356.516,330.514 356.516,330.021 356.516,330.582 356.516,328.271 356.516,319.623 356.516,310.221 356.516,300.639 360.988,291.167 
  363.968,282.206 365.405,272.346 364.999,261.289 368.706,249.897 369.775,237.652 374.095,224.843 381.582,211.272 384.287,197.154 390.328,182.378 385.026,167.275 
  393.635,153.375 399.061,138.928 397.231,125.795 407.025,113.537 404.661,102.045 414.288,92.6329 416.239,83.6583 416.605,75.7782 429.511,68.7736 441.732,63.4111 
  445.236,58.9236 445.146,55.6369 455.545,52.9133 452.294,51.1529 433.586,50.1645 404.43,50.2632 385.652,51.4813 338.14,53.2904 278.416,56.7042 250.706,60.8936 
  237.671,66.5032 238.486,72.6639 231.813,80.2655 250.931,90.8452 276.937,101.644 294.613,110.801 300.554,121.243 322.687,131.29 319.354,141.555 333.243,151.841 
  331.299,161.475 335.111,171.434 336.919,181.171 340.443,190.924 340.208,200.875 342.591,210.174 340.699,219.904 344.634,229.768 344.904,238.797 350.858,247.917 
  347.86,256.583 347.992,264.902 348.133,272.999 347.814,281.208 349.579,288.65 355.009,296.311 356.516,303.316 356.516,309.555 356.516,315.572 356.516,321.046 
  356.516,325.881 356.516,325.917 356.516,324.767 356.516,324.343 356.516,324.114 356.516,323.344 356.516,323.007 356.516,322.801 356.516,322.578 356.516,322.687 
  356.516,323.235 356.516,325.533 356.516,325.53 356.516,314.379 356.516,303.973 362.968,294.013 367.733,283.919 365.723,273.656 367.55,263.011 369.963,251.042 
  370.929,237.648 372.338,226.012 379.777,212.622 383.308,198.139 386.27,184.718 394.55,170.811 397.099,156.987 396.455,143.172 397.09,130.651 399.231,120.104 
  406.985,108.324 410.052,98.3012 402.185,89.8967 407.867,83.2314 405.674,77.3066 413.307,72.3854 406.395,68.9923 413.041,66.6957 401.974,65.5998 384.632,65.1426 
  360.701,65.3254 330.214,68.0076 310.763,71.2771 286.991,76.8692 289.316,85.6283 315.285,93.5177 315.891,101.932 326.845,110.801 329.335,120.323 330.986,128.64 
  336.225,135.973 336.08,146.479 341.135,157.317 339.277,166.071 340.777,174.584 346.4,184.742 344.974,194.308 343.65,202.37 341.246,212.294 346.906,222.217 
  342.298,230.037 346.312,239.045 343.859,248.265 349.819,256.813 351.766,265.225 352.343,273.109 350.831,281.427 352.155,289.307 356.516,296.859 356.516,303.973 
  356.516,310.758 356.516,316.887 356.516,323.235 356.516,328.926 356.516,333.085 356.516,331.553 356.516,330.787 356.516,330.13 356.516,329.364 356.516,328.817 
  356.516,328.16 356.516,327.719 356.516,326.965 356.516,326.737 356.516,325.533 356.516,317.521 356.516,309.116 356.516,299.214 364.361,289.192 363.729,277.487 
  367.8,267.034 370.664,255.844 371.236,243.34 373.404,230.752 378.176,218.254 381.981,203.939 383.193,189.331 386.074,174.383 391.241,158.519 397.026,144.239 
  402.661,130.629 399.906,117.696 404.459,105.327 405.484,95.4787 410.58,86.8323 419.546,79.0649 425.821,71.7195 435.53,66.6942 442.966,61.8821 452.588,57.5147 
  452.55,54.2174 447.275,52.1935 449.464,51.0629 422.272,50.0585 404.298,50.057 360.965,51.5911 290.414,54.4363 260.786,58.5979 239.42,64.279 231.783,71.5099 
  230.835,80.4659 245.804,90.0814 268.818,100.075 285.008,110.096 307.987,120.918 319.841,132.581 332.037,144.042 334.804,153.371 333.508,162.021 338.298,173.561 
  347.084,184.261 337.576,191.9 340.136,200.873 340.195,211.054 344.904,220.794 342.629,229.549 346.702,239.29 349.999,248.702 348.234,257.349 349.883,265.557 
  348.926,273.437 348.717,282.08 350.874,289.644 356.516,296.53 356.516,303.75 356.516,310.854 356.516,317.872 356.516,323.617 356.516,328.25 356.516,329.255 
  356.516,328.709 356.516,328.488 356.516,328.269 356.516,328.488 356.516,328.707 356.516,328.598 356.516,328.598 356.516,328.598 356.516,328.707 356.516,329.255 
  356.516,322.031 356.516,311.305 356.516,300.033 365.515,289.963 366.582,278.472 367.91,266.98 366.71,255.487 372.249,243.449 373.663,230.226 380.001,216.69 
  378.378,202.079 381.515,188.634 391.402,174.602 398.615,159.066 393.966,145.161 400.021,131.832 409.626,117.368 406.614,106.037 408.992,97.0392 414.489,88.1456 
  423.151,79.607 417.398,72.6912 433.369,68.2265 438.127,64.2344 438.316,60.0126 447.509,56.8441 411.07,56.2445 384.906,56.5346 353.436,57.8291 299.437,61.2204 
  278.779,66.3665 275.845,71.5099 275.545,78.8427 293.841,86.6134 309.907,94.384 322.33,102.264 325.379,109.927 333.561,118.9 333.543,129.059 343.88,137.888 
  330.243,148.341 337.977,157.411 341.893,166.505 340.921,176.687 341.204,186.656 343.349,196.931 346.1,205.581 344.618,214.556 347.213,223.749 347.033,232.504 
  347.223,241.698 347.787,250.672 349.516,258.443 352.328,266.87 350.708,275.298 357.375,283.068 354.699,290.73 356.516,298.281 356.516,304.958 356.516,311.087 
  356.516,316.997 356.516,322.141 356.516,326.956 356.516,330.349 356.516,329.473 356.516,328.929 356.516,328.698 356.516,328.598 356.516,328.601 356.516,328.174 
  356.516,327.175 356.516,322.196 356.516,314.389 356.516,306.052 356.516,297.733 363.21,288.541 364.447,277.487 364.925,267.527 366.721,257.13 369.212,245.638 
  370.792,233.052 377.733,220.794 382.011,207.551 383.107,192.995 388.64,178.11 395.315,162.021 396.58,147.683 405.664,134.005 408.261,119.775 406.455,108.374 
  416.37,97.831 415.825,88.255 426.177,79.0444 426.867,70.9684 433.839,64.8337 451.1,59.4766 464.253,55.623 460.871,53.2324 468.758,50.9883 469.835,48.9446 
  445.495,47.7601 431.018,47.1051 392.245,47.2123 330.989,49.0735 270.178,52.3569 242.002,57.2819 218.466,62.5353 223.758,69.4303 226.822,78.0769 242.889,88.3645 
  265.113,99.5246 282.609,111.029 294.411,122.621 321.232,132.139 323.127,142.307 329.44,153.813 334.323,164.155 338.59,174.041 340.383,183.144 342.981,192.774 
  337.145,202.744 335.411,212.038 343.422,221.119 340.773,230.847 341.204,240.494 344.792,249.214 344.501,257.713 347.338,266.214 349.672,275.094 349.507,283.29 
  351.988,290.62 356.516,297.835 356.516,304.521 356.516,310.758 356.516,316.582 356.516,321.748 356.516,326.19 356.516,325.898 356.516,324.512 356.516,324.111 
  356.516,325.922 356.516,328.186 356.516,329.255 356.516,330.447 356.516,331.776 356.516,333.523 356.516,334.508 356.516,333.523 356.516,317.653 356.516,306.709 
  361.045,295.983 360.482,285.367 371.936,274.532 366.757,263.478 370.271,252.095 370.889,240.495 367.189,227.359 377.182,214.118 376.948,200.456 376.615,185.717 
  380.645,171.653 391.465,157.986 392.258,144.842 395.599,131.814 402.797,119 393.287,107.959 400.837,98.6524 404.922,89.8965 410.061,82.564 406.233,76.216 
  401.651,71.0721 424.144,66.3659 417.077,63.5203 394.329,61.8786 367.419,62.0975 365.814,62.8636 311.282,65.1626 297.375,69.8666 269.632,76.216 288.651,83.1305 
  294.281,90.7184 312.5,98.7618 314.045,107.422 317.891,116.715 321.819,126.123 322.339,135.195 325.127,144.851 321.676,154.579 323.636,164.097 331.732,175.032 
  333.072,185.115 340.648,194.253 339.064,204.137 339.764,213.133 339.52,222.019 343.441,231.027 346.012,239.618 343.617,249.483 348.516,258.556 348.536,266.87 
  349.454,274.961 351.271,282.961 355.062,290.62 356.516,297.972 356.516,305.123 356.516,311.853 356.516,318.762 356.516,324.769 356.516,329.692 356.516,329.702 
  356.516,328.109 356.516,327.175 356.516,327.408 356.516,327.179 356.516,326.518 356.516,326.181 356.516,325.865 356.516,325.424 356.516,325.096 356.516,324.875 
  356.516,324.548 356.516,324.349 356.516,321.868 356.516,311.634 356.516,300.484 360.736,289.748 369.343,278.472 368.001,266.533 368.402,254.725 372.939,242.026 
  369.804,228.345 374.31,214.774 379.879,200.437 384.111,185.662 388.397,171.651 395.075,156.987 393.514,143.654 396.363,130.885 397.118,118.79 397.921,108.735 
  397.7,100.298 401.278,92.0856 391.299,85.1813 402.577,79.2838 399.521,74.3554 396.388,70.9629 395.695,68.6628 377.67,67.132 362.829,67.2608 323.81,69.4859 
  300.834,73.9177 288.11,80.4983 297.487,88.1491 299.236,96.0257 307.451,104.116 312.78,112.992 326.601,120.979 324.495,128.879 322.609,137.123 321.977,146.48 
  335.209,156.454 333.236,165.965 336.915,174.717 331.779,183.898 338.608,193.117 342.126,201.422 344.1,210.283 341.343,219.904 347.724,229.112 348.748,237.922 
  343.022,246.711 348.142,255.05 344.981,263.499 348.893,271.413 350.226,279.676 351.189,288.227 351.066,295.766 356.516,302.659 356.516,309.455 356.516,315.523 
  356.516,321.046 356.516,326.313 356.516,325.865 356.516,325.424 356.516,326.947 356.516,329.148 356.516,330.896 356.516,332.647 356.516,334.508 356.516,336.15 
  356.516,338.12 356.516,339.542 356.516,341.184 356.516,343.154 356.516,344.358 356.516,346.437 356.516,348.189 356.516,325.752 356.516,309.992 356.516,296.53 
  364.414,284.053 362.293,272.452 368.536,261.07 369.504,248.921 375.292,235.46 376.985,221.888 376.898,207.989 381.211,193.213 384.182,179.094 388.671,164.978 
  386.871,150.749 394.142,137.705 395.259,126.615 393.314,115.398 401.345,104.33 400.308,95.5844 394.519,89.0212 403.133,83.1204 402.715,77.9638 396.311,74.3554 
  373.745,72.3857 371.555,71.5098 359.767,71.8382 319.049,75.3405 308.338,80.9222 310.674,86.8323 301.763,94.7123 322.357,102.921 327.585,110.582 316.881,119.009 
  332.275,127.108 336.078,135.207 330.007,145.057 333.434,154.251 325.282,163.335 335.909,173.075 336.624,182.159 340.036,191.681 339.434,200.656 342.55,209.521 
  341.489,219.152 346.128,227.689 345.255,236.445 346.467,245.419 346.712,254.394 346.192,263.149 347.588,271.686 347.571,279.676 352.033,287.773 350.254,295.545 
  356.516,303.116 356.516,310.157 356.516,316.668 356.516,323.358 356.516,329.039 356.516,331.772 356.516,330.23 356.516,329.258 356.516,328.269 356.516,327.722 
  356.516,327.175 356.516,326.518 356.516,326.081 356.516,325.533 356.516,325.096 356.516,324.658 356.516,324.439 356.516,324.111 356.516,324.217 356.516,323.791 
  356.516,320.718 356.516,309.879 356.516,299.471 363.398,289.416 367.275,278.963 366.701,267.836 369.472,256.364 368.687,243.998 369.776,231.191 372.825,217.839 
  375.479,204.049 378.744,190.587 384.299,176.906 384.981,163.006 384.547,150.42 386.793,138.053 393.554,126.452 394.822,116.601 401.453,106.861 387.64,98.6524 
  390.872,92.414 400.187,87.0511 394.456,82.7828 376.169,80.2655 375.801,79.3899 350.882,79.8277 335.423,82.6733 318.089,87.27 325.637,92.0857 323.203,98.5429 
  320.371,105.547 322.337,113.209 335.297,120.102 333.258,126.78 333.524,134.898 331.071,142.815 335.214,151.077 336.871,160.503 337.597,169.686 338.361,178.219 
  340.081,186.747 342.754,195.187 341.293,203.72 343.658,212.257 344.714,220.794 342.56,229.44 343.052,237.977 345.995,246.512 347.334,254.722 347.963,262.731 
  349.825,270.757 349.471,278.691 351.772,287.022 353.145,294.783 356.516,301.674 356.516,308.341 356.516,314.483 356.516,320.28 356.516,325.424 356.516,328.707 
  356.516,330.896 356.516,332.319 356.516,334.508 356.516,336.368 356.516,338.667 356.516,341.075 356.516,343.154 356.516,345.671 356.516,348.079 356.516,350.596 
  356.516,353.223 356.516,354.318 356.516,357.163 356.516,326.409 356.516,313.057 356.516,301.018 363.488,289.525 370.991,278.036 365.499,266.87 367.553,255.469 
  368.976,243.394 373.298,230.753 375.535,217.168 378.677,202.951 382.037,188.836 382.686,175.273 393.297,160.816 392.986,147.027 393.314,134.641 404.133,122.565 
  400.064,112.005 397.542,102.141 405.246,93.2861 400.411,86.5039 409.689,80.9309 402.845,76.2143 396.026,72.7138 400.083,70.3963 387.178,69.3748 371.178,69.3209 
  343.316,70.511 312.299,73.9141 301.922,78.9522 299.447,85.3093 302.032,93.8335 314.239,102.592 317.71,111.019 323.357,119.886 330.875,129.078 327.532,137.815 
  332.966,146.315 331.019,156.111 335.457,165.291 339.414,173.619 335.209,183.035 341.082,192.566 343.16,201.637 342.442,211.272 344.431,220.356 345.342,229.112 
  346.512,238.305 343.616,247.389 348.543,256.145 346.659,264.791 350.039,273.109 352.739,281.208 352.555,289.088 356.516,296.968 356.516,304.301 356.516,311.196 
  356.516,317.763 356.516,323.563 356.516,328.817 356.516,332.428 356.516,330.568 356.516,329.802 356.516,329.255 356.516,328.707 356.516,328.269 356.516,327.832 
  356.516,327.613 356.516,327.394 356.516,327.175 356.516,327.066 356.516,326.956 356.516,326.737 356.516,326.518 356.516,324.986 356.516,316.231 356.516,305.833 
  364.373,295.436 363.383,285.042 366.06,274.304 367.569,263.259 372.828,252.318 368.091,239.523 371.195,225.5 374.772,211.984 378.908,198.596 384.015,184.786 
  385.524,171.104 388.431,157.425 387.39,145.057 391.209,133.784 395.984,122.951 397.236,113.428 395.018,105.419 391.649,98.378 383.383,92.5234 385.673,87.475 
  380.683,83.4359 370.863,81.6883 365.777,81.1503 353.678,81.5755 335.185,85.0811 323.277,90.3348 326.422,96.135 315.13,102.811 331.765,109.925 331.873,117.149 
  339.798,123.606 337.014,130.063 335.722,137.287 332.308,145.276 340.578,153.922 333.898,162.24 338.826,170.996 339.564,179.533 339.684,187.741 346.358,196.059 
  343.43,204.815 342.44,213.023 346.972,221.341 343.123,229.659 343.911,238.086 344.398,246.514 350.22,254.831 347.794,262.93 347.478,270.92 349.805,278.691 
  352.778,286.352 352.787,293.904 356.516,301.018 356.516,307.584 356.516,313.823 356.516,319.842 356.516,325.096 356.516,329.802 356.516,331.991 356.516,334.07 
  356.516,336.259 356.516,338.886 356.516,340.965 356.516,343.264 356.516,345.781 356.516,347.751 356.516,349.83 356.516,352.347 356.516,352.349 356.516,335.602 
  356.516,320.917 356.516,310.265 356.516,299.923 361.983,289.074 366.585,278.358 362.942,268.184 367.392,257.58 368.52,246.173 375.594,234.256 376.554,221.892 
  378.845,208.221 377.236,193.87 382.595,180.245 390.376,166.528 388.999,153.375 393.828,141.01 395.363,129.398 399.732,118.79 399.82,109.272 401.24,100.089 
  395.244,91.7573 393.766,85.4649 399.763,80.2849 401.254,76.216 393.392,73.2588 396.007,71.2931 380.467,70.9626 350.095,72.4754 311.929,76.1605 305.139,81.1411 
  298.904,86.8184 313.236,94.271 311.269,102.264 323.428,110.044 325.358,118.24 330.311,126.561 328.261,134.551 336.16,142.978 334.763,151.624 337.508,160.051 
  326.549,169.464 335.918,178.657 341.678,186.866 336.435,196.606 343.97,205.8 347.638,214.336 346.683,223.202 339.562,232.067 345.238,240.819 346.428,249.587 
  345.133,258.224 346.093,266.429 347.262,275.065 351.282,284.053 353.484,291.878 356.516,299.138 356.516,306.271 356.516,312.949 356.516,319.185 356.516,324.986 
  356.516,330.24 356.516,334.18 356.516,332.757 356.516,331.553 356.516,330.677 356.516,329.911 356.516,329.258 356.516,328.807 356.516,328.379 356.516,328.054 
  356.516,327.189 356.516,326.299 356.516,326.027 356.516,325.991 356.516,325.862 356.516,323.562 356.516,313.933 356.516,303.754 362.721,293.903 365.859,284.053 
  369.352,273.875 365.447,263.478 366.947,252.643 368.71,240.932 374.735,228.783 372.652,216.525 378.805,203.83 383.367,190.696 379.285,177.782 383.998,165.524 
  390.278,153.485 389.544,142.321 391.012,131.924 387.1,122.187 385.986,114.403 390.864,107.08 376.803,101.721 376.472,98.008 373,94.6029 364.8,93.0361 
  361.001,93.0361 346.468,95.1501 333.893,98.993 335.734,103.253 328.732,108.612 328.753,115.06 334.233,121.311 336.447,127.218 338.586,133.346 332.81,140.899 
  334.16,148.669 337.637,155.564 336.254,162.678 340.886,170.887 343.543,178.658 335.291,186.755 340.284,194.527 342.65,202.974 343.952,211.109 343.518,219.371 
  347.028,228.469 347.464,237.105 344.105,244.762 344.514,252.962 344.936,260.745 347.713,268.622 352.267,276.064 352.203,283.397 352.52,290.73 356.516,297.844 
  356.516,304.739 356.516,311.196 356.516,317.434 356.516,323.126 356.516,328.269 356.516,332.757 356.516,335.712 356.516,338.448 356.516,341.622 356.516,344.796 
  356.516,347.422 356.516,349.068 356.516,349.055 356.516,349.064 356.516,349.177 356.516,348.75 356.516,339.214 356.516,323.4 356.516,312.748 356.516,302.659 
  360.929,293.026 361.42,283.507 363.999,273.437 366.568,263.039 367.645,252.644 372.816,241.151 372.386,229.092 373.15,216.689 379.025,202.735 378.013,188.603 
  385.438,174.714 387.302,161.036 389.812,148.569 390.04,136.736 388.285,125.357 403.375,115.288 390.944,105.657 396.484,98.1052 406.508,91.5379 398.071,85.5205 
  404.511,80.4844 397.592,77.1816 399.896,74.0811 395.134,72.1665 368.717,71.9337 330.713,73.9141 317.205,77.4199 309.351,81.9165 304.247,88.2517 310.361,95.369 
  316.27,102.264 323.889,109.706 328.362,117.149 324.848,124.81 328.428,132.909 330.334,141.008 333.669,149.654 334.065,158.519 337.983,168.15 339.693,177.122 
  339.394,185.562 337.077,194.417 340.102,203.279 343.406,212.134 346.034,221.669 341.26,230.37 345.839,238.614 343.265,246.951 349.73,255.271 346.022,263.587 
  349.476,271.467 348.037,279.347 350.989,287.008 352.057,294.451 356.516,301.674 356.516,308.46 356.516,315.027 356.516,320.937 356.516,326.409 356.516,331.115 
  356.516,333.851 356.516,331.991 356.516,331.115 356.516,330.458 356.516,329.911 356.516,329.364 356.516,328.817 356.516,328.379 356.516,327.941 356.516,327.722 
  356.516,327.284 356.516,326.956 356.516,323.673 356.516,315.245 356.516,305.943 356.516,297.187 362.453,287.993 369.494,278.472 364.964,268.84 365.724,258.99 
  366.364,248.046 371.395,236.445 376.537,224.953 373.879,212.695 377.905,200.327 373.421,188.07 380.974,176.249 384.408,163.882 393.988,152.719 382.376,142.54 
  385.937,132.69 386.078,124.044 387.182,116.601 378.476,109.925 382.848,104.781 379.407,99.8563 383.696,95.8068 365.733,93.6179 352.713,93.9462 345.516,95.5879 
  338.873,97.6674 339.247,101.279 329.866,106.423 326.429,112.552 329.532,119.447 337.481,125.467 336.875,132.581 335.297,140.023 335.324,146.371 336.617,154.032 
  337.937,162.021 336.961,169.464 335.168,177.125 334.855,185.115 345.67,192.995 340.933,200.546 342.195,209.083 347.829,216.854 345.278,224.624 350.376,232.176 
  343.472,240.056 347.735,247.717 347.509,255.16 347.698,262.93 348.706,270.263 351.527,277.596 354.109,284.929 354.261,292.043 356.516,298.938 356.516,305.505 
  356.516,311.524 356.516,317.325 356.516,322.688 356.516,327.832 356.516,332.428 356.516,335.383 356.516,337.682 356.516,340.746 356.516,343.263 356.516,345.892 
  356.516,346.875 356.516,346.856 356.516,336.97 356.516,325.862 356.516,315.779 356.516,306.705 356.516,298.172 361.723,289.867 363.057,281.305 361.753,271.905 
  364.437,262.825 365.091,252.437 368.255,240.603 370.373,229.167 372.316,217.639 375.954,205.143 381.081,192.777 379.864,180.837 382.607,169.026 384.657,156.99 
  390.719,144.962 387.765,133.347 394.829,122.239 394.337,112.79 405.478,103.577 395.972,96.243 406.588,89.8973 400.49,84.6433 402.8,80.1561 393.886,76.763 
  387.916,74.6838 384.394,73.1549 371.845,73.2517 345.294,75.0121 332.881,77.4234 314.746,80.9361 305.954,85.9567 309.909,91.8128 311.84,99.0001 318.649,107.08 
  328.926,115.068 328.728,123.059 335.865,131.267 332.311,139.585 332.799,147.903 338.703,156.659 335.419,165.743 340.037,174.608 338.227,183.254 338.994,192.447 
  342.405,200.875 342.346,209.411 340.018,218.167 343.01,226.813 344.229,235.35 347.121,243.668 346.33,251.986 348.015,260.194 347.7,267.965 350.521,275.736 
  353.356,283.397 351.139,290.839 356.516,297.953 356.516,304.739 356.516,311.195 356.516,317.217 356.516,322.907 356.516,328.141 356.516,332.592 356.516,332.647 
  356.516,330.663 356.516,329.689 356.516,329.255 356.516,328.935 356.516,328.704 356.516,328.598 356.516,328.708 356.516,328.598 356.516,328.379 356.516,328.16 
  356.516,326.847 356.516,319.733 356.516,311.414 356.516,302.332 359.593,293.794 362.502,284.581 365.422,275.571 366.966,265.885 367.52,255.474 373.142,244.649 
  374.737,233.708 370.533,222.883 375.492,211.597 376.431,199.342 375.824,187.851 378.759,176.685 384.604,165.195 386.488,153.942 381.987,144.347 386.164,135.098 
  385.314,127.56 382.652,121.202 379.195,114.084 375.262,109.15 382.488,105.332 374.204,102.374 362.954,101.389 360.781,101.387 345.286,103.359 346.663,107.099 
  341.647,110.528 328.841,115.616 331.216,122.635 337.464,128.205 344.125,133.784 330.287,141.237 340.749,147.415 338.726,154.47 339.075,162.692 342.999,169.685 
  342.979,176.906 337.659,184.468 340.576,191.959 343.834,199.342 344.088,207.565 347.089,215.433 345.649,222.873 346.472,230.982 346.236,238.254 349.138,245.966 
  350,254.627 349.52,262.276 348.663,269.607 348.658,276.402 349.968,283.346 352.648,290.73 356.516,298.295 356.516,305.071 356.516,311.087 356.516,316.878 
  356.516,322.472 356.516,327.394 356.516,332.1 356.516,334.07 356.516,335.931 356.516,337.572 356.516,340.418 356.516,343.701 356.516,343.045 356.516,342.279 
  356.516,345.452 356.516,334.399 356.516,324.766 356.516,316.121 356.516,308.697 356.516,300.856 361.184,292.59 361.679,284.701 367.297,276.568 366.618,266.214 
  368.68,255.461 368.177,244.967 368.518,234.803 378.321,223.155 374.056,210.812 380.959,198.248 377.285,185.445 386.605,173.184 387.014,160.927 395.12,149.107 
  390.251,138.163 386.794,127.984 386.763,118.459 388.725,109.825 386.608,103.14 399.299,96.2411 391.266,90.7584 382.931,87.5984 380.596,83.9312 375.029,80.7933 
  368.956,80.0466 351.779,80.9243 336.804,83.1089 332.351,86.8323 332.943,91.1201 324.342,96.6284 327.674,103.359 333.792,110.377 328.512,117.153 336.322,123.606 
  331.673,131.036 334.251,139.05 332.354,147.027 339.699,155.67 338.568,163.321 338.729,172.419 339.773,181.228 347.613,188.816 339.805,197.154 341.428,205.582 
  343.434,213.242 342.538,221.669 347.691,229.984 352.48,237.658 346.467,245.966 346.671,253.952 349.8,261.932 351.344,270.482 349.493,278.088 352.602,285.019 
  353.287,292.152 356.516,298.94 356.516,305.504 356.516,311.634 356.516,317.106 356.516,322.469 356.516,327.066 356.516,330.677 356.516,328.16 356.516,325.862 
  356.516,324.217 356.516,323.025 
  "/>
</svg>
