<?xml version="1.0" encoding="UTF-8" standalone="no"?>
<!-- Created with matplotlib (http://matplotlib.org/) -->

<svg
   xmlns:dc="http://purl.org/dc/elements/1.1/"
   xmlns:cc="http://creativecommons.org/ns#"
   xmlns:rdf="http://www.w3.org/1999/02/22-rdf-syntax-ns#"
   xmlns:svg="http://www.w3.org/2000/svg"
   xmlns="http://www.w3.org/2000/svg"
   xmlns:sodipodi="http://sodipodi.sourceforge.net/DTD/sodipodi-0.dtd"
   xmlns:inkscape="http://www.inkscape.org/namespaces/inkscape"
   height="100"
   version="1.1"
   viewBox="0 0 133.17161 80"
   width="166.46451"
   id="svg3588"
   inkscape:version="0.91 r13725"
   sodipodi:docname="logo-large.svg">
  <metadata
     id="metadata3800">
    <rdf:RDF>
      <cc:Work
         rdf:about="">
        <dc:format>image/svg+xml</dc:format>
        <dc:type
           rdf:resource="http://purl.org/dc/dcmitype/StillImage" />
        <dc:title></dc:title>
      </cc:Work>
    </rdf:RDF>
  </metadata>
  <sodipodi:namedview
     pagecolor="#ffffff"
     bordercolor="#666666"
     borderopacity="1"
     objecttolerance="10"
     gridtolerance="10"
     guidetolerance="10"
     inkscape:pageopacity="0"
     inkscape:pageshadow="2"
     inkscape:window-width="1440"
     inkscape:window-height="900"
     id="namedview3798"
     showgrid="false"
     inkscape:zoom="2.7459313"
     inkscape:cx="120.2397"
     inkscape:cy="52.448564"
     inkscape:window-x="0"
     inkscape:window-y="0"
     inkscape:window-maximized="1"
     inkscape:current-layer="axes_1"
     units="px"
     fit-margin-top="0"
     fit-margin-left="0"
     fit-margin-right="0"
     fit-margin-bottom="0" />
  <defs
     id="defs3590"
     style="stroke-linecap:butt;stroke-linejoin:round;stroke-miterlimit:100000">
    <style
       type="text/css"
       id="style3592">
*{stroke-linecap:butt;stroke-linejoin:round;stroke-miterlimit:100000;}
  </style>
    <defs
       id="defs3783">
      <path
         d="m 12.40625,8.296875 16.109375,0 0,55.625 -17.53125,-3.515625 0,8.984375 17.4375,3.515625 9.859375,0 0,-64.609375 16.109375,0 0,-8.296875 -41.984375,0 z"
         id="BitstreamVeraSans-Roman-31"
         inkscape:connector-curvature="0"
         style="stroke-linecap:butt;stroke-linejoin:round;stroke-miterlimit:100000" />
      <path
         d="M 32.171875,-5.078125 Q 28.375,-14.84375 24.75,-17.8125 q -3.609375,-2.984375 -9.65625,-2.984375 l -7.1875,0 0,7.515625 5.28125,0 q 3.703125,0 5.75,1.765625 2.0625,1.75 4.546875,8.296875 L 25.09375,0.875 2.984375,54.6875 12.5,54.6875 29.59375,11.921875 46.6875,54.6875 l 9.515625,0 z"
         id="BitstreamVeraSans-Roman-79"
         inkscape:connector-curvature="0"
         style="stroke-linecap:butt;stroke-linejoin:round;stroke-miterlimit:100000" />
    </defs>
    <defs
       id="defs3624">
      <path
         style="stroke-linecap:butt;stroke-linejoin:round;stroke-miterlimit:100000"
         inkscape:connector-curvature="0"
         id="BitstreamVeraSans-Roman-32"
         d="m 19.1875,8.296875 34.421875,0 0,-8.296875 -46.28125,0 0,8.296875 q 5.609375,5.8125 15.296875,15.59375 9.703125,9.796875 12.1875,12.640625 4.734375,5.3125 6.609375,9 1.890625,3.6875 1.890625,7.25 0,5.8125 -4.078125,9.46875 -4.078125,3.671875 -10.625,3.671875 -4.640625,0 -9.796875,-1.609375 -5.140625,-1.609375 -11,-4.890625 l 0,9.96875 Q 13.765625,71.78125 18.9375,73 q 5.1875,1.21875 9.484375,1.21875 11.328125,0 18.0625,-5.671875 6.734375,-5.65625 6.734375,-15.125 0,-4.5 -1.6875,-8.53125 Q 49.859375,40.875 45.40625,35.40625 44.1875,33.984375 37.640625,27.21875 31.109375,20.453125 19.1875,8.296875" />
    </defs>
    <defs
       id="defs3616">
      <path
         inkscape:connector-curvature="0"
         style="stroke:#000000;stroke-width:0.5;stroke-linecap:butt;stroke-linejoin:round;stroke-miterlimit:100000"
         id="mf6d7d7843b"
         d="M 0,0 0,4" />
    </defs>
    <defs
       id="defs3608">
      <path
         inkscape:connector-curvature="0"
         style="stroke:#000000;stroke-width:0.5;stroke-linecap:butt;stroke-linejoin:round;stroke-miterlimit:100000"
         id="mf30347e33e"
         d="M 0,0 0,-4" />
    </defs>
    <defs
       id="defs3646">
      <path
         style="stroke-linecap:butt;stroke-linejoin:round;stroke-miterlimit:100000"
         inkscape:connector-curvature="0"
         id="BitstreamVeraSans-Roman-34"
         d="m 37.796875,64.3125 -24.90625,-38.921875 24.90625,0 z m -2.59375,8.59375 12.40625,0 0,-47.515625 10.40625,0 0,-8.203125 -10.40625,0 0,-17.1875 -9.8125,0 0,17.1875 -32.90625,0 0,9.515625 z" />
    </defs>
    <defs
       id="defs3668">
      <path
         style="stroke-linecap:butt;stroke-linejoin:round;stroke-miterlimit:100000"
         inkscape:connector-curvature="0"
         id="BitstreamVeraSans-Roman-36"
         d="m 33.015625,40.375 q -6.640625,0 -10.53125,-4.546875 -3.875,-4.53125 -3.875,-12.4375 0,-7.859375 3.875,-12.4375 3.890625,-4.5625 10.53125,-4.5625 6.640625,0 10.515625,4.5625 3.875,4.578125 3.875,12.4375 0,7.90625 -3.875,12.4375 Q 39.65625,40.375 33.015625,40.375 m 19.578125,30.921875 0,-8.984375 q -3.71875,1.75 -7.5,2.671875 -3.78125,0.9375 -7.5,0.9375 -9.765625,0 -14.921875,-6.59375 -5.140625,-6.59375 -5.875,-19.921875 2.875,4.25 7.21875,6.515625 4.359375,2.265625 9.578125,2.265625 10.984375,0 17.359375,-6.671875 6.375,-6.65625 6.375,-18.125 0,-11.234375 -6.640625,-18.03125 -6.640625,-6.78125 -17.671875,-6.78125 -12.65625,0 -19.34375,9.6875 -6.6875,9.703125 -6.6875,28.109375 0,17.28125 8.203125,27.5625 8.203125,10.28125 22.015625,10.28125 3.71875,0 7.5,-0.734375 3.78125,-0.734375 7.890625,-2.1875" />
    </defs>
    <defs
       id="defs3697">
      <path
         style="stroke-linecap:butt;stroke-linejoin:round;stroke-miterlimit:100000"
         inkscape:connector-curvature="0"
         id="BitstreamVeraSans-Roman-30"
         d="m 31.78125,66.40625 q -7.609375,0 -11.453125,-7.5 Q 16.5,51.421875 16.5,36.375 q 0,-14.984375 3.828125,-22.484375 3.84375,-7.5 11.453125,-7.5 7.671875,0 11.5,7.5 3.84375,7.5 3.84375,22.484375 0,15.046875 -3.84375,22.53125 -3.828125,7.5 -11.5,7.5 m 0,7.8125 q 12.265625,0 18.734375,-9.703125 6.46875,-9.6875 6.46875,-28.140625 0,-18.40625 -6.46875,-28.109375 -6.46875,-9.6875 -18.734375,-9.6875 -12.25,0 -18.71875,9.6875 Q 6.59375,17.96875 6.59375,36.375 q 0,18.453125 6.46875,28.140625 6.46875,9.703125 18.71875,9.703125" />
      <path
         style="stroke-linecap:butt;stroke-linejoin:round;stroke-miterlimit:100000"
         inkscape:connector-curvature="0"
         id="BitstreamVeraSans-Roman-2e"
         d="M 10.6875,12.40625 21,12.40625 21,0 10.6875,0 Z" />
      <path
         style="stroke-linecap:butt;stroke-linejoin:round;stroke-miterlimit:100000"
         inkscape:connector-curvature="0"
         id="BitstreamVeraSans-Roman-2d"
         d="m 4.890625,31.390625 26.3125,0 0,-8 -26.3125,0 z" />
      <path
         style="stroke-linecap:butt;stroke-linejoin:round;stroke-miterlimit:100000"
         inkscape:connector-curvature="0"
         id="BitstreamVeraSans-Roman-35"
         d="m 10.796875,72.90625 38.71875,0 0,-8.3125 -29.6875,0 0,-17.859375 q 2.140625,0.734375 4.28125,1.09375 2.15625,0.359375 4.3125,0.359375 Q 40.625,48.1875 47.75,41.5 54.890625,34.8125 54.890625,23.390625 54.890625,11.625 47.5625,5.09375 40.234375,-1.421875 26.90625,-1.421875 q -4.59375,0 -9.359375,0.78125 -4.75,0.78125 -9.828125,2.34375 l 0,9.921875 q 4.390625,-2.390625 9.078125,-3.5625 4.6875,-1.171875 9.90625,-1.171875 8.453125,0 13.375,4.4375 4.9375,4.4375 4.9375,12.0625 0,7.609375 -4.9375,12.046875 -4.921875,4.453125 -13.375,4.453125 -3.953125,0 -7.890625,-0.875 -3.921875,-0.875 -8.015625,-2.734375 z" />
    </defs>
    <defs
       id="defs3689">
      <path
         inkscape:connector-curvature="0"
         style="stroke:#000000;stroke-width:0.5;stroke-linecap:butt;stroke-linejoin:round;stroke-miterlimit:100000"
         id="m3a987aa22a"
         d="M 0,0 -4,0" />
    </defs>
    <defs
       id="defs3681">
      <path
         inkscape:connector-curvature="0"
         style="stroke:#000000;stroke-width:0.5;stroke-linecap:butt;stroke-linejoin:round;stroke-miterlimit:100000"
         id="m966d75440b"
         d="M 0,0 4,0" />
    </defs>
  </defs>
  <g
     id="figure_1"
     style="stroke-linecap:butt;stroke-linejoin:round;stroke-miterlimit:100000"
     transform="translate(-8.1638398e-8,-208)">
    <g
       id="axes_1"
       style="stroke-linecap:butt;stroke-linejoin:round;stroke-miterlimit:100000">
      <g
         id="g5397"
         transform="matrix(0.32104204,0,0,0.28660409,-2.7592765,206.72901)"
         style="stroke-linecap:butt;stroke-linejoin:round;stroke-miterlimit:100000">
        <g
           transform="matrix(1.8900505,0,0,1.8900507,-125.39064,-1.9239198)"
           id="g4436"
           style="stroke-linecap:butt;stroke-linejoin:round;stroke-miterlimit:100000">
          <circle
             style="fill:#d66661;stroke:#c93d39;stroke-width:3;stroke-linecap:butt;stroke-linejoin:round;stroke-miterlimit:100000"
             cx="212.459"
             cy="60.249001"
             r="16.5"
             id="circle4414" />
          <circle
             style="fill:#6bab5b;stroke:#3b972e;stroke-width:3;stroke-linecap:butt;stroke-linejoin:round;stroke-miterlimit:100000"
             cx="233.834"
             cy="23.874001"
             r="16.5"
             id="circle4416" />
          <circle
             style="fill:#aa7dc0;stroke:#945bb0;stroke-width:3;stroke-linecap:butt;stroke-linejoin:round;stroke-miterlimit:100000"
             cx="255.459"
             cy="59.999001"
             r="16.5"
             id="circle4418" />
        </g>
        <path
           clip-path="none"
           d="m 22.404646,136.33581 0.998699,-2.07926 0.998699,-2.07827 0.9987,-2.07681 9.234417,-19.04701 9.234417,-18.497462 9.234417,-17.576375 9.234417,-16.302265 5.5495,-9.046236 5.549499,-8.401527 5.5495,-7.695808 5.5495,-6.934206 4.692031,-5.231179 4.692032,-4.623493 4.692031,-3.991804 4.692035,-3.339389 5.09686,-2.86811 5.09686,-2.060292 5.09686,-1.239852 5.09686,-0.411816 4.69886,0.356174 4.69885,1.060282 4.69886,1.758869 4.69885,2.448298 5.03767,3.37605 5.03767,4.13358 5.03767,4.866372 5.03767,5.570041 5.83663,7.28926 5.83664,8.130382 5.83663,8.906203 5.83664,9.610489 10.37382,18.576699 10.37382,20.084174 9.09691,18.451681 9.09691,18.86029 9.91807,20.5968 9.91807,20.16841 9.97702,19.38379 9.97702,18.02324 5.51543,9.22364 5.51543,8.61186 5.51544,7.93828 5.51543,7.20779 5.2478,6.13255 5.2478,5.38455 5.24779,4.60159 5.2478,3.78874 5.45649,3.05106 5.45649,2.1243 5.45649,1.18262 5.45649,0.23264 4.59321,-0.54197 4.5932,-1.21371 4.5932,-1.8794 4.59321,-2.53575 5.60778,-3.96706 5.60778,-4.89697 5.60778,-5.79057 5.60778,-6.64123 5.27147,-6.9747 5.27148,-7.63722 5.27148,-8.2497 5.27148,-8.80813 8.44532,-15.12957 8.44532,-16.15938 8.44532,-16.91765 8.44531,-17.39163 1.2997,-2.70001 1.2997,-2.70325 1.29969,-2.70541"
           style="fill:none;stroke:#009afa;stroke-width:8;stroke-linecap:round;stroke-linejoin:round;stroke-miterlimit:100;stroke-dasharray:none"
           id="path3760"
           inkscape:connector-curvature="0"
           transform="translate(-9.7850018,5.6000009)" />
      </g>
    </g>
  </g>
  <defs
     id="defs3793" />
</svg>
